if (_typeface_js && _typeface_js.loadFace) _typeface_js.loadFace({"glyphs":{"\u0000":{"x_min":0,"x_max":0,"ha":0},"¦":{"x_min":34.59375,"x_max":809.796875,"ha":521,"o":"m 367 407 l 396 408 q 411 397 411 408 q 392 361 411 394 q 345 273 373 327 q 298 182 316 219 q 232 50 279 145 q 142 -130 185 -44 q 124 -151 134 -147 q 80 -166 93 -166 l 63 -171 q 47 -167 59 -171 q 35 -159 36 -163 q 34 -142 34 -155 q 35 -127 34 -129 q 174 167 68 -41 q 313 402 281 375 q 331 408 319 408 l 367 407 m 765 1139 l 794 1140 q 809 1129 809 1140 q 744 1013 809 1123 q 521 601 636 833 q 502 579 512 583 q 459 566 468 566 l 442 560 q 426 564 438 560 q 414 572 415 569 q 413 589 413 575 q 414 604 413 602 q 561 894 444 682 q 711 1134 678 1106 q 729 1140 717 1140 l 765 1139 "},"Ő":{"x_min":115.296875,"x_max":1241.375,"ha":886,"o":"m 1002 908 q 1071 878 1038 908 q 1105 811 1105 848 q 1087 716 1105 775 q 1035 591 1068 657 q 955 454 1003 525 q 853 317 908 383 q 732 190 798 250 q 598 85 666 130 q 309 -12 450 -12 q 222 13 260 -12 q 163 64 184 39 q 115 224 115 122 q 182 463 115 326 q 367 724 250 601 q 629 924 484 846 q 905 1003 774 1003 q 954 991 931 1003 q 977 964 977 980 q 969 939 977 949 q 955 918 962 929 q 944 902 948 907 q 1002 908 966 908 m 749 594 q 739 581 749 581 q 700 614 730 581 q 670 669 670 647 q 740 788 670 721 q 897 889 811 854 q 676 808 802 883 q 457 627 551 733 q 304 405 362 520 q 246 218 246 290 q 266 142 246 174 q 333 111 286 111 q 446 143 380 111 q 576 229 513 176 q 915 637 793 413 q 965 765 965 729 q 955 779 965 779 q 876 743 927 779 q 786 665 826 708 q 747 603 747 622 l 749 594 m 907 1238 q 925 1257 915 1246 q 941 1274 936 1269 q 953 1287 946 1280 q 962 1300 959 1295 q 969 1310 966 1304 q 976 1331 974 1319 q 997 1343 978 1343 q 1031 1317 1017 1343 q 1045 1274 1045 1291 q 1006 1198 1045 1236 q 921 1123 988 1176 q 835 1069 855 1069 q 824 1076 828 1069 q 820 1087 820 1082 q 907 1238 820 1137 m 1184 1166 q 1095 1109 1164 1148 q 1006 1069 1026 1069 q 987 1087 987 1069 q 995 1116 987 1092 q 1115 1244 1013 1163 q 1150 1282 1134 1260 q 1177 1316 1167 1304 q 1201 1328 1187 1328 q 1228 1304 1215 1328 q 1241 1259 1241 1280 q 1184 1166 1241 1205 "},"Ž":{"x_min":54.265625,"x_max":1152.296875,"ha":854,"o":"m 421 952 q 591 923 421 923 q 791 931 672 923 q 935 948 910 939 q 977 970 960 956 q 1003 992 995 983 q 1060 1018 1025 1018 q 1123 1004 1095 1018 q 1152 968 1152 991 q 1132 922 1152 946 q 1091 883 1112 898 q 1043 852 1069 868 q 1013 833 1017 836 q 979 804 1009 830 q 575 435 851 697 q 238 112 299 173 q 438 146 313 129 q 669 163 562 163 q 833 140 776 163 q 891 62 891 118 q 879 7 891 35 q 859 -20 867 -20 q 853 -11 856 -20 q 848 -1 851 -3 q 734 19 816 19 q 456 3 651 19 q 213 -17 261 -12 q 151 -23 166 -23 q 81 6 108 -23 q 54 59 54 35 l 59 80 q 218 275 59 113 q 555 601 376 437 q 820 832 735 765 q 672 801 761 815 q 503 788 582 788 q 305 874 305 788 q 321 926 305 903 q 359 961 337 949 q 424 986 404 986 q 444 978 444 986 q 433 965 444 973 q 421 952 421 957 m 624 1294 q 646 1313 624 1313 q 689 1297 676 1313 q 708 1271 702 1280 q 722 1242 715 1262 q 733 1213 730 1221 q 752 1150 737 1203 q 962 1304 908 1304 q 984 1287 970 1304 q 998 1262 998 1271 q 992 1244 998 1253 q 973 1223 986 1234 q 947 1201 960 1211 q 914 1174 935 1190 q 878 1144 894 1158 q 832 1099 862 1131 q 783 1053 802 1068 q 745 1038 764 1038 q 684 1072 700 1038 l 686 1088 q 685 1098 686 1094 q 624 1294 624 1255 "},"Á":{"x_min":40.6875,"x_max":1277.796875,"ha":816,"o":"m 947 951 q 977 998 968 998 l 980 998 q 1022 976 990 998 q 1053 935 1053 954 q 879 526 1053 909 q 680 96 706 143 q 645 34 655 50 q 619 0 636 18 q 547 -35 590 -35 q 516 -40 529 -35 q 499 -44 502 -44 q 478 -34 478 -44 q 483 -17 478 -32 q 638 311 489 -3 q 358 320 479 317 q 148 15 242 174 q 126 -15 137 -6 q 99 -25 116 -25 q 61 -7 81 -25 q 40 34 40 10 q 215 324 40 102 q 111 320 133 324 q 83 316 89 316 q 65 347 65 316 q 101 401 65 378 q 198 425 137 425 q 215 425 203 425 q 301 429 257 427 q 611 751 449 602 q 890 959 772 900 q 920 968 909 969 q 947 951 931 968 m 900 855 q 447 429 652 668 q 690 419 567 426 q 900 855 813 678 m 1220 1178 q 1119 1113 1202 1160 q 1015 1066 1035 1066 q 995 1084 995 1066 q 999 1097 995 1090 q 1043 1169 1013 1136 q 1108 1229 1072 1201 q 1169 1276 1143 1258 q 1206 1304 1196 1295 q 1220 1326 1216 1314 q 1239 1338 1225 1338 q 1265 1315 1252 1338 q 1277 1271 1277 1292 q 1220 1178 1277 1215 "},"ĥ":{"x_min":-34.59375,"x_max":822.6875,"ha":546,"o":"m 638 200 q 643 150 643 168 q 637 119 643 132 q 608 82 630 106 q 556 33 586 58 q 403 -25 481 -25 q 291 73 291 -25 q 441 417 291 160 q 448 430 446 426 q 249 230 396 394 q 52 0 101 67 q 32 -13 48 -6 q 7 -21 16 -21 q -12 -15 -2 -21 q -25 -9 -23 -9 q -34 -3 -34 -9 q -10 58 -34 2 q 52 199 13 115 q 373 803 160 431 q 490 987 448 933 q 590 1026 520 1026 q 607 1017 605 1026 q 609 998 609 1008 q 605 978 609 988 l 533 864 q 208 307 317 528 q 413 505 314 436 q 506 550 475 550 q 562 540 537 550 q 587 493 587 530 q 543 392 587 479 q 411 103 411 132 q 434 74 411 74 q 541 141 469 74 q 609 206 595 192 q 624 212 617 212 q 638 200 637 212 m 822 1088 q 802 1069 822 1069 q 768 1074 782 1069 q 742 1090 753 1079 q 724 1112 732 1101 q 710 1141 716 1123 q 699 1170 703 1159 q 689 1203 695 1182 q 680 1233 683 1224 q 562 1135 637 1190 q 454 1079 486 1079 q 439 1094 439 1079 q 445 1122 439 1109 q 468 1151 452 1136 q 495 1178 484 1167 q 531 1208 506 1188 q 664 1330 621 1281 q 701 1344 672 1344 q 748 1325 730 1344 q 772 1284 767 1306 q 781 1235 777 1262 q 787 1204 786 1208 q 795 1184 789 1200 q 805 1159 801 1168 q 813 1136 808 1150 q 822 1088 822 1106 "},"Î":{"x_min":-14.921875,"x_max":948.71875,"ha":389,"o":"m 692 983 l 724 984 q 741 971 741 984 q 740 965 741 967 q 134 30 416 488 q 108 2 120 6 q 101 0 107 2 q 54 -12 67 -12 q 39 -13 40 -12 q 24 -20 33 -20 q 13 -20 16 -20 q -2 -14 10 -19 q -14 -6 -14 -9 q -12 33 -14 26 q 144 304 2 81 q 434 740 286 528 q 613 978 581 953 q 638 985 622 985 l 692 983 m 948 1070 q 928 1051 948 1051 q 894 1057 908 1051 q 869 1072 879 1062 q 850 1094 858 1083 q 836 1123 842 1105 q 825 1153 829 1141 q 815 1185 821 1165 q 806 1216 809 1206 q 688 1117 763 1172 q 580 1062 613 1062 q 565 1077 565 1062 q 571 1105 565 1091 q 594 1134 578 1118 q 621 1160 610 1150 q 657 1190 632 1170 q 790 1313 747 1263 q 827 1327 798 1327 q 874 1307 856 1327 q 898 1266 893 1288 q 908 1217 903 1244 q 913 1186 912 1190 q 921 1166 915 1182 q 931 1142 927 1150 q 939 1119 934 1133 q 948 1070 948 1089 "},"e":{"x_min":10.859375,"x_max":508.671875,"ha":441,"o":"m 508 507 q 472 428 508 462 q 389 394 436 394 q 370 401 375 394 q 365 420 365 408 q 368 442 365 432 q 314 417 343 434 q 240 367 284 400 q 197 318 197 334 q 213 312 197 312 q 262 323 229 312 q 308 335 295 335 q 326 333 322 335 q 345 313 335 328 q 355 287 355 297 q 337 263 355 278 q 297 241 320 248 q 267 229 275 233 q 124 119 124 149 q 215 66 124 66 q 330 103 272 66 q 420 166 380 134 q 470 206 459 198 q 486 213 480 213 q 503 174 503 213 q 499 122 503 134 q 472 91 494 109 q 197 -26 326 -26 q 86 -7 128 -26 q 10 98 10 27 q 140 240 10 191 q 107 269 114 251 q 99 327 99 287 q 136 411 99 366 q 227 484 173 455 q 440 548 346 548 q 485 537 462 548 q 508 507 508 526 "},"»":{"x_min":29.84375,"x_max":487.640625,"ha":521,"o":"m 289 345 q 298 325 290 342 q 309 301 305 307 q 314 280 314 294 q 279 229 314 249 q 141 131 207 195 q 89 84 110 101 q 52 51 65 51 q 29 122 29 51 q 67 191 29 164 q 131 234 73 197 q 222 297 189 271 q 186 373 208 339 q 164 419 164 406 q 181 496 164 455 q 221 536 198 536 q 244 527 240 536 q 253 498 251 514 q 257 469 255 482 q 261 443 259 456 q 265 421 264 430 q 271 399 267 413 q 276 381 275 386 q 283 362 278 377 q 289 345 288 347 m 441 475 q 458 379 444 442 q 479 298 472 316 q 487 269 487 280 q 453 226 487 258 q 293 69 343 126 q 267 52 278 52 q 243 123 243 52 q 247 162 243 149 q 267 184 251 174 q 389 284 357 238 q 382 316 386 294 q 363 376 372 365 q 354 418 354 386 q 371 486 354 449 q 407 523 387 523 q 433 515 426 523 q 441 475 439 507 "},"ļ":{"x_min":-5.421875,"x_max":686.359375,"ha":358,"o":"m 604 1018 q 661 998 636 1018 q 686 941 686 979 q 644 822 686 903 q 543 656 602 741 q 409 477 484 572 q 183 206 291 326 q 177 176 182 198 q 172 132 172 154 q 192 91 172 109 q 244 73 213 73 q 309 95 274 73 q 370 143 344 117 q 454 213 438 213 q 470 164 470 213 l 470 150 q 461 111 470 124 q 333 7 404 42 q 198 -26 261 -26 q 101 12 134 -26 q 67 119 67 51 q 138 430 67 251 q 298 734 209 609 q 604 1018 498 1018 m 573 905 q 567 915 573 915 q 442 779 543 915 q 296 563 341 644 q 210 360 250 482 q 432 656 290 455 q 573 905 573 857 m 200 -162 q 140 -270 200 -213 q 33 -327 81 -327 q 12 -319 21 -327 q 0 -309 4 -311 q -5 -298 -5 -308 q -2 -284 -5 -287 q 13 -277 1 -282 q 37 -267 25 -273 q 70 -231 70 -252 q 55 -208 70 -224 q 41 -175 41 -191 q 69 -118 41 -140 q 131 -96 96 -96 q 183 -115 166 -96 q 200 -162 200 -135 "},"Ĕ":{"x_min":126.15625,"x_max":982.4375,"ha":836,"o":"m 391 663 q 545 619 391 619 q 601 627 583 619 q 719 650 649 650 q 790 614 790 650 q 778 572 790 600 q 760 539 766 545 q 716 522 754 533 q 667 511 678 512 q 652 509 656 510 q 643 507 649 508 q 621 504 638 507 q 595 504 603 501 q 286 261 370 394 q 248 159 248 202 q 341 92 248 92 q 526 149 414 92 q 724 287 638 206 q 811 427 811 368 q 839 446 811 446 q 905 368 905 446 q 873 281 905 332 q 784 179 841 231 q 657 82 727 127 q 502 9 588 37 q 358 -18 417 -18 q 263 -7 299 -18 q 195 25 227 3 q 126 171 126 73 q 154 279 126 224 q 229 378 183 333 q 411 518 314 462 q 271 661 271 550 q 465 892 271 788 q 699 975 573 950 q 798 987 758 987 q 921 974 880 987 q 962 940 946 962 q 978 902 978 918 q 973 873 978 886 q 960 853 969 860 q 929 837 946 843 q 910 830 912 832 q 819 808 857 808 q 745 826 751 808 q 760 866 746 843 q 626 840 695 864 q 506 785 557 817 q 423 720 456 754 q 391 663 391 686 m 566 1262 q 575 1285 566 1273 q 598 1296 583 1296 q 625 1284 613 1296 q 651 1241 637 1271 q 671 1200 665 1212 q 695 1181 677 1189 q 736 1173 712 1173 q 788 1186 761 1173 q 835 1218 816 1199 q 873 1255 855 1237 q 946 1300 915 1300 q 968 1284 954 1300 q 982 1258 982 1268 q 969 1227 982 1249 q 933 1178 956 1205 q 881 1124 909 1150 q 740 1063 812 1063 q 617 1122 667 1063 q 566 1262 566 1182 "},"ò":{"x_min":14.25,"x_max":565.640625,"ha":509,"o":"m 502 516 q 544 498 522 516 q 565 442 565 480 q 539 344 565 404 q 466 222 512 284 q 365 106 420 160 q 245 16 309 51 q 129 -18 181 -18 q 45 14 77 -18 q 14 106 14 47 q 43 236 14 164 q 117 361 71 307 q 215 459 162 416 q 409 548 326 548 q 465 530 446 548 q 472 519 472 524 l 472 515 q 502 516 482 516 m 434 426 l 429 426 q 405 461 405 426 q 301 404 356 444 q 204 307 247 363 q 116 120 118 196 q 144 82 116 82 q 227 118 172 82 q 336 223 282 155 q 416 340 389 290 q 443 408 443 390 q 434 426 443 426 m 465 652 q 445 629 465 629 q 413 634 426 629 q 391 651 400 640 q 378 670 383 662 q 367 693 373 678 q 352 727 362 707 q 320 779 342 746 q 287 827 298 811 q 276 855 276 843 q 308 886 276 868 q 359 904 340 904 q 382 902 377 904 q 392 895 387 900 q 398 885 396 890 q 405 868 401 879 q 411 846 408 856 q 440 750 427 788 q 465 652 465 675 "},"ţ":{"x_min":-28.484375,"x_max":635.5,"ha":298,"o":"m 508 873 l 536 866 q 547 860 542 866 q 552 849 552 854 q 537 819 552 843 q 504 766 523 796 q 483 733 484 735 q 558 737 536 737 q 588 734 580 737 q 607 717 596 731 q 626 696 617 703 q 635 674 635 689 q 618 650 635 660 q 581 638 600 640 q 407 622 423 623 q 253 360 352 538 q 149 137 155 182 q 146 104 146 117 q 174 78 146 78 q 236 99 202 78 q 298 145 269 120 q 379 213 374 213 q 397 152 397 213 q 366 92 397 119 q 251 4 298 33 q 158 -25 204 -25 q 139 -23 147 -25 q 59 15 84 -13 q 34 95 33 45 q 64 217 34 145 q 138 369 93 288 q 284 616 211 501 l 259 613 q 167 604 180 604 l 161 604 q 123 612 141 604 q 105 631 105 619 q 114 653 105 642 q 126 670 124 664 q 162 704 131 685 q 208 723 193 722 q 239 725 224 724 q 271 726 253 725 q 299 727 289 727 l 360 730 q 438 840 417 815 q 463 867 459 864 q 476 869 466 869 l 508 873 m 177 -176 q 117 -284 177 -227 q 10 -341 58 -341 q -10 -333 -2 -341 q -23 -323 -18 -324 q -28 -311 -28 -322 q -25 -298 -28 -301 q -9 -291 -21 -295 q 14 -281 2 -286 q 47 -245 47 -266 q 32 -221 47 -238 q 18 -189 18 -205 q 46 -131 18 -153 q 108 -109 73 -109 q 160 -129 143 -109 q 177 -176 177 -149 "},"^":{"x_min":303.84375,"x_max":790.125,"ha":695,"o":"m 763 648 l 766 592 q 734 559 766 573 q 667 545 703 545 q 632 567 632 545 q 635 580 632 570 q 654 685 638 590 q 676 833 670 779 q 532 697 643 795 q 384 548 421 598 q 371 546 382 546 q 332 570 360 546 q 303 611 303 593 q 318 649 303 629 q 361 693 333 668 q 417 740 389 718 q 487 795 445 763 q 546 842 529 828 q 622 903 562 855 q 698 967 682 951 q 726 983 714 983 q 779 942 738 983 q 790 917 790 931 l 790 914 q 763 648 763 737 "},"«":{"x_min":113.265625,"x_max":572.421875,"ha":520,"o":"m 118 290 q 113 304 113 295 q 148 349 113 330 q 213 401 182 369 q 275 469 244 434 q 315 514 306 505 q 335 523 323 523 q 358 453 358 523 q 354 413 358 426 q 335 392 349 400 q 214 291 244 337 q 245 200 235 212 q 255 155 255 188 q 237 87 255 122 q 198 52 220 52 q 169 60 175 52 q 160 101 162 68 q 143 197 158 134 q 118 290 129 259 m 290 294 q 285 307 285 299 q 319 353 285 330 q 375 391 353 375 q 410 417 397 406 q 456 456 423 428 q 506 498 489 484 q 527 516 523 512 q 534 521 531 519 q 548 527 541 527 q 572 457 572 527 q 568 418 572 430 q 544 393 564 405 q 467 346 524 380 q 385 295 410 311 q 421 200 400 220 q 440 147 440 183 q 423 77 440 112 q 383 42 406 42 q 355 51 361 42 q 344 91 348 59 q 337 145 341 123 q 328 185 333 168 q 320 211 324 203 q 290 294 304 252 "},"í":{"x_min":6.78125,"x_max":579.875,"ha":281,"o":"m 373 152 q 369 123 373 132 q 263 13 336 55 q 137 -27 191 -27 q 45 8 84 -27 q 6 81 6 44 q 44 189 6 118 q 118 321 81 261 q 155 386 155 381 q 142 406 155 392 q 128 428 128 421 q 156 466 128 436 q 224 525 184 496 q 286 555 265 555 q 324 536 307 555 q 341 501 341 517 q 180 208 341 486 q 169 190 178 204 q 154 167 160 176 q 143 145 149 158 q 129 99 129 118 q 160 76 129 76 q 225 98 191 76 q 283 145 259 119 q 356 213 347 213 q 373 152 373 213 m 522 748 q 421 683 504 730 q 317 636 337 636 q 297 654 297 636 q 301 667 297 660 q 345 738 316 706 q 410 799 375 771 q 472 846 445 828 q 508 874 498 865 q 522 896 518 884 q 541 908 527 908 q 567 885 554 908 q 579 841 579 862 q 522 748 579 785 "},"ˆ":{"x_min":304.515625,"x_max":687.71875,"ha":555,"o":"m 687 621 q 667 602 687 602 q 633 608 647 602 q 608 623 618 613 q 589 645 597 634 q 575 674 581 656 q 564 704 568 692 q 554 736 560 716 q 545 767 548 757 q 427 668 502 723 q 319 613 352 613 q 304 628 304 613 q 310 656 304 642 q 333 685 317 669 q 360 711 349 701 q 396 741 371 721 q 529 864 486 814 q 566 878 537 878 q 613 858 595 878 q 637 817 632 839 q 647 768 642 795 q 652 737 651 741 q 660 717 654 733 q 670 693 666 701 q 678 670 673 684 q 687 621 687 640 "},"ū":{"x_min":0,"x_max":671.4375,"ha":549,"o":"m 616 212 q 632 193 629 212 q 634 152 634 173 q 630 123 634 131 q 544 30 611 85 q 418 -23 478 -23 q 350 -1 381 -23 q 319 75 319 20 q 348 183 319 130 q 84 -27 180 -27 q 23 0 46 -27 q 0 55 0 26 q 8 114 0 84 q 25 170 16 145 q 52 230 34 194 q 79 282 70 266 q 107 331 88 299 q 158 420 126 364 q 210 502 189 476 q 250 530 231 529 q 285 514 270 530 q 300 487 300 497 q 255 396 300 477 q 120 113 120 153 q 128 103 120 103 q 290 244 160 103 q 440 424 419 385 q 479 491 460 464 q 508 524 499 518 q 583 545 537 543 q 595 544 591 545 q 604 533 599 543 q 610 516 610 522 q 556 415 604 497 q 503 322 508 333 q 423 106 423 156 q 444 78 423 78 q 539 141 484 83 q 580 183 560 162 q 604 209 600 205 q 616 212 609 212 m 537 677 l 457 677 q 330 670 381 677 q 318 697 318 670 q 367 790 318 790 l 512 783 q 609 792 571 783 q 656 802 647 802 q 671 776 671 802 q 667 739 671 751 q 658 718 663 727 q 643 702 653 709 q 626 691 632 695 q 603 684 619 687 q 581 680 588 681 q 537 677 569 677 "},"Ẅ":{"x_min":98.34375,"x_max":1549.734375,"ha":1245,"o":"m 1338 938 q 1330 948 1330 938 q 1336 962 1330 959 q 1356 972 1342 965 q 1375 981 1370 979 q 1392 989 1380 984 q 1411 996 1403 994 q 1428 1002 1418 999 q 1470 1007 1445 1007 q 1522 989 1496 1007 q 1549 943 1549 971 q 1498 787 1549 884 q 1365 584 1446 689 q 1184 370 1285 479 q 988 177 1084 262 q 808 37 893 91 q 678 -16 724 -16 q 582 70 582 -16 q 721 425 582 193 q 268 12 451 105 q 196 -12 221 -12 q 134 18 170 -12 q 98 79 98 49 q 333 552 98 248 q 556 811 422 668 q 378 710 439 710 q 330 741 345 710 q 316 785 316 765 q 343 830 316 806 q 375 855 370 855 q 383 851 379 855 q 387 845 387 848 q 378 832 378 835 q 386 829 378 829 q 522 907 394 829 q 661 984 649 984 q 729 965 697 984 q 762 932 762 946 q 748 897 762 919 q 587 685 735 876 q 372 396 439 494 q 274 235 305 298 q 242 159 242 172 q 246 145 242 145 q 450 317 275 145 q 784 657 626 489 q 957 843 943 825 q 987 869 971 862 q 1036 877 1003 877 q 1127 843 1127 877 q 1087 782 1127 828 q 1031 715 1047 736 q 842 411 946 607 q 738 160 738 215 q 748 145 738 145 q 806 184 758 145 q 934 298 855 222 q 1114 487 1013 375 q 1307 737 1216 600 q 1399 910 1399 874 q 1372 945 1399 945 l 1338 938 m 1255 1183 q 1295 1170 1279 1183 q 1310 1123 1310 1158 q 1275 1052 1310 1089 q 1195 1016 1240 1016 q 1156 1031 1170 1016 q 1143 1063 1143 1046 q 1151 1099 1143 1081 q 1171 1135 1158 1116 q 1208 1169 1184 1155 q 1255 1183 1231 1183 m 1086 1125 q 1054 1054 1086 1092 q 981 1016 1022 1016 q 940 1073 940 1016 q 966 1148 940 1109 q 1037 1187 992 1187 q 1071 1172 1056 1187 q 1086 1125 1086 1158 "},"ȷ":{"x_min":-339.109375,"x_max":392.1875,"ha":307,"o":"m 358 206 q 377 212 368 215 q 387 197 385 209 q 387 123 396 153 q 336 91 383 118 q 229 30 289 65 q 96 -58 169 -4 q -25 -165 23 -112 q -105 -286 -53 -222 q -274 -408 -206 -408 q -320 -390 -301 -408 q -339 -346 -339 -373 q -325 -297 -339 -320 q -281 -244 -312 -274 q -227 -193 -250 -213 q -157 -134 -205 -174 q -90 -80 -108 -95 q -14 48 -61 -30 q 58 173 31 128 q 180 366 135 303 q 165 366 177 367 q 146 365 153 364 q 129 373 138 365 q 118 397 121 381 q 196 477 114 421 q 307 533 278 533 q 358 482 358 533 q 352 461 358 476 q 236 265 347 445 q 82 21 125 86 q 120 48 88 25 q 186 96 151 71 q 258 147 221 121 q 358 206 344 206 "},"ņ":{"x_min":-44.765625,"x_max":648.375,"ha":543,"o":"m 396 104 q 436 74 396 74 q 491 96 458 74 q 550 143 524 118 q 630 213 621 213 q 648 162 648 213 q 616 92 648 111 q 466 -13 519 5 q 400 -23 436 -23 q 329 8 364 -22 q 294 82 294 38 q 317 181 294 126 q 364 277 340 237 q 423 369 388 316 q 461 434 459 421 l 459 436 q 348 347 437 434 q 202 198 260 261 q 65 27 145 134 q 28 -1 42 -1 q -9 7 14 -1 q -39 21 -33 16 q -44 33 -44 25 q -40 53 -44 41 q -30 72 -35 65 q -16 96 -26 80 q 24 165 -6 113 q 116 322 54 218 q 191 448 179 427 q 233 514 217 493 q 336 552 263 552 q 352 532 352 552 q 293 412 352 500 l 265 369 q 463 534 382 499 q 534 551 502 551 q 584 534 565 551 q 602 496 602 517 q 588 447 602 476 q 559 395 574 418 q 521 338 545 373 q 495 300 497 303 q 485 284 493 297 q 472 265 476 271 q 459 243 468 259 q 443 218 449 228 q 429 193 438 208 q 416 167 421 178 q 405 143 411 156 q 396 104 396 120 m 224 -162 q 165 -270 224 -213 q 58 -327 105 -327 q 36 -319 45 -327 q 23 -309 28 -311 q 18 -298 18 -308 q 22 -284 18 -287 q 37 -277 25 -282 q 62 -267 50 -273 q 94 -231 94 -252 q 80 -208 94 -224 q 65 -175 65 -191 q 93 -118 65 -140 q 156 -96 121 -96 q 207 -115 191 -96 q 224 -162 224 -135 "},"µ":{"x_min":-160.0625,"x_max":627.703125,"ha":549,"o":"m 462 78 q 503 59 491 83 q 495 9 516 35 q 419 -15 473 -15 q 377 -4 399 -15 q 336 63 336 18 q 361 161 336 116 q 230 21 273 53 q 141 -15 178 -15 q 83 7 105 -15 q 66 71 60 29 q -39 -103 -22 -62 q -68 -173 -57 -143 q -84 -216 -79 -204 q -102 -228 -89 -228 q -126 -222 -115 -228 q -148 -202 -136 -216 q -160 -160 -159 -187 q -151 -118 -160 -133 q -97 -30 -142 -103 q 125 333 74 244 q 183 433 176 421 q 199 459 190 444 q 213 481 207 474 q 225 499 218 489 q 237 513 232 508 q 248 522 242 518 q 273 530 259 530 q 302 514 287 530 q 317 487 317 497 q 277 412 317 476 q 138 159 151 207 q 143 108 133 123 q 169 94 153 94 q 299 194 208 94 q 459 427 390 294 q 525 524 501 509 q 601 545 555 543 q 612 544 608 545 q 622 533 616 543 q 627 516 627 522 q 573 415 621 497 q 520 322 525 333 q 440 106 440 156 q 462 78 440 78 "},"ỳ":{"x_min":-4.75,"x_max":636.171875,"ha":542,"o":"m 247 -225 q 226 -259 244 -228 q 189 -321 209 -290 q 141 -381 170 -353 q 93 -412 112 -410 q 68 -415 73 -415 q 6 -352 6 -415 q 82 -179 6 -278 q 155 -98 111 -141 q 204 -49 200 -55 q 305 140 208 -44 q 185 24 240 69 q 78 -25 129 -19 l 73 -25 q 21 -7 46 -25 q -4 52 -4 9 q 29 177 -4 117 q 72 248 42 198 q 128 345 102 299 q 178 432 152 383 q 217 503 204 482 q 243 524 231 524 q 275 509 255 524 q 294 473 294 494 q 205 290 294 452 q 116 107 116 129 q 122 101 116 101 q 203 153 140 101 q 341 286 265 205 q 474 451 426 377 q 484 466 480 461 q 494 479 488 471 q 503 493 499 488 q 512 504 507 497 q 521 514 517 510 q 530 520 525 517 q 546 527 537 527 q 574 523 556 527 q 597 514 593 519 q 604 505 600 510 q 611 492 611 498 q 606 475 611 485 q 543 367 600 464 q 309 -50 373 81 q 600 206 413 36 q 615 212 607 212 q 636 148 636 212 q 629 123 636 129 q 247 -225 426 -32 m 430 630 q 410 607 430 607 q 378 613 391 607 q 356 629 364 618 q 343 649 347 640 q 332 671 338 657 q 317 705 326 685 q 285 757 307 725 q 251 806 263 790 q 240 834 240 822 q 272 864 240 846 q 323 882 305 882 q 347 880 342 882 q 356 873 352 878 q 363 863 360 868 q 369 846 366 857 q 376 824 373 834 q 404 728 392 766 q 430 630 430 653 "},"č":{"x_min":30.515625,"x_max":731.125,"ha":507,"o":"m 483 150 q 528 181 518 172 q 552 201 538 189 q 574 212 565 212 q 588 182 588 212 q 557 115 588 151 q 482 55 527 80 q 387 12 438 30 q 215 -25 286 -25 q 87 21 144 -25 q 30 142 30 67 q 67 292 30 217 q 163 424 105 367 q 300 516 222 480 q 453 551 377 551 q 519 530 490 551 q 548 472 548 509 q 512 384 548 436 q 438 333 476 333 q 395 375 395 333 q 415 413 395 385 q 436 451 436 441 q 428 461 436 461 q 348 435 391 461 q 270 381 305 409 q 204 317 236 352 q 137 158 137 240 q 158 100 137 124 q 230 76 179 76 q 331 88 280 76 q 415 114 382 100 q 483 150 448 128 m 357 887 q 379 906 357 906 q 422 890 408 906 q 441 864 435 873 q 455 835 448 855 q 466 805 463 814 q 484 743 470 796 q 695 897 641 897 q 717 881 703 897 q 731 855 731 864 q 725 837 731 846 q 706 816 718 828 q 680 794 693 804 q 647 767 668 784 q 611 737 627 751 q 565 693 595 724 q 516 647 535 661 q 478 632 497 632 q 417 665 433 632 l 419 681 q 418 691 419 687 q 357 887 357 848 "},"’":{"x_min":292.3125,"x_max":497.8125,"ha":207,"o":"m 428 907 q 481 887 464 907 q 497 836 497 868 q 475 773 497 804 q 407 709 452 743 q 340 676 362 676 q 310 684 318 676 q 297 693 301 692 q 292 705 292 695 q 297 720 292 716 q 325 755 303 724 q 351 797 347 787 q 340 830 340 807 q 366 880 340 853 q 428 907 392 907 "},"-":{"x_min":101.734375,"x_max":459.828125,"ha":441,"o":"m 145 270 l 141 270 q 114 278 128 269 q 101 299 101 286 q 108 322 101 312 q 118 343 115 333 q 142 375 120 354 q 180 397 164 395 q 233 401 195 398 q 311 407 272 404 q 385 410 349 410 q 427 406 421 410 q 440 388 433 402 q 453 366 447 373 q 459 344 459 360 q 447 318 459 329 q 420 304 435 307 q 385 300 404 302 q 343 295 366 297 q 299 290 320 293 q 250 282 278 287 q 145 270 198 271 "},"Q":{"x_min":69.171875,"x_max":1129.234375,"ha":945,"o":"m 910 969 q 1074 916 1019 969 q 1129 788 1129 863 q 1097 626 1129 712 q 1007 448 1065 539 q 874 272 948 357 q 709 118 800 187 q 526 12 617 48 q 552 -8 532 7 q 580 -31 572 -25 q 606 -52 588 -37 q 633 -72 624 -66 q 658 -89 642 -78 q 683 -105 674 -101 q 706 -116 693 -110 q 747 -127 727 -127 q 779 -122 766 -127 q 796 -112 792 -118 q 804 -101 800 -106 q 811 -96 807 -96 q 819 -106 819 -96 q 810 -132 819 -115 q 783 -166 800 -148 q 722 -203 765 -184 q 649 -222 680 -222 q 327 19 536 -222 q 209 -10 263 -10 q 112 36 155 -10 q 69 159 69 84 q 122 345 69 234 q 384 706 219 554 q 910 969 671 969 m 1007 800 q 942 859 1007 859 q 697 793 822 859 q 460 616 572 726 q 275 375 348 506 q 201 167 201 244 q 219 118 201 132 q 344 163 257 118 q 497 284 431 209 q 507 291 503 291 q 512 289 511 291 q 518 279 514 286 q 527 264 523 271 q 538 218 538 243 q 520 164 538 192 q 444 90 501 135 q 647 244 518 116 q 857 487 776 373 q 972 684 937 601 q 1007 800 1007 767 "},"M":{"x_min":-119.375,"x_max":1391.71875,"ha":1073,"o":"m 1079 250 l 1085 224 q 1068 185 1085 208 q 924 51 1023 127 q 779 -23 826 -23 q 706 3 732 -23 q 679 66 679 31 q 767 252 679 108 q 1105 751 900 465 q 874 510 1062 706 q 390 18 460 75 q 357 8 379 8 q 310 26 335 8 q 286 67 286 44 l 286 70 q 417 349 288 99 q 632 747 545 599 q 373 432 503 606 q 8 -128 124 103 q -16 -150 -1 -150 q -59 -143 -31 -150 q -119 -86 -119 -126 q -19 88 -119 -61 q 211 416 80 238 q 484 759 343 594 q 734 987 678 987 q 751 983 743 987 q 761 978 759 978 q 765 980 763 978 q 800 991 774 991 q 851 981 826 991 q 876 958 876 971 q 808 828 876 950 q 503 275 581 425 q 716 514 577 365 q 1007 812 855 663 q 1245 1005 1206 1005 q 1284 998 1260 1005 q 1365 986 1326 986 q 1383 976 1376 984 q 1391 962 1391 969 q 1387 950 1391 954 q 1015 433 1167 657 q 829 130 864 209 q 1041 301 900 145 q 1050 311 1047 309 q 1055 317 1053 314 q 1072 300 1066 330 q 1076 275 1075 282 q 1078 260 1077 268 q 1079 250 1079 252 "},"œ":{"x_min":14.25,"x_max":838.96875,"ha":771,"o":"m 838 507 q 802 428 838 462 q 720 394 766 394 q 700 401 705 394 q 695 420 695 408 q 698 442 695 432 q 644 417 674 434 q 571 367 614 400 q 527 318 527 334 q 543 312 527 312 q 592 323 559 312 q 639 335 626 335 q 656 333 652 335 q 675 313 665 328 q 685 287 685 297 q 668 263 685 278 q 628 241 650 248 q 598 229 605 233 q 455 119 455 149 q 545 66 455 66 q 661 103 602 66 q 750 166 710 134 q 800 206 790 198 q 816 213 811 213 q 834 174 834 213 q 829 122 834 134 q 802 91 824 109 q 527 -26 657 -26 q 419 -8 461 -26 q 341 93 343 25 q 125 -18 227 -18 q 45 14 77 -18 q 14 106 14 47 q 43 236 14 164 q 117 361 71 307 q 215 459 162 416 q 409 548 326 548 q 465 530 446 548 q 472 519 472 524 l 472 515 q 498 516 482 516 q 522 505 514 516 q 531 467 529 494 q 652 526 585 504 q 756 548 720 548 q 815 537 792 548 q 838 507 838 526 m 434 426 l 429 426 q 405 461 405 426 q 301 404 356 444 q 204 307 247 363 q 116 120 118 196 q 144 82 116 82 q 227 118 172 82 q 336 223 282 155 q 416 340 389 290 q 443 408 443 390 q 434 426 443 426 m 473 271 q 450 231 466 258 q 511 260 481 249 q 473 271 482 267 "},"ě":{"x_min":10.859375,"x_max":701.28125,"ha":441,"o":"m 508 507 q 472 428 508 462 q 389 394 436 394 q 370 401 375 394 q 365 420 365 408 q 368 442 365 432 q 314 417 343 434 q 240 367 284 400 q 197 318 197 334 q 213 312 197 312 q 262 323 229 312 q 308 335 295 335 q 326 333 322 335 q 345 313 335 328 q 355 287 355 297 q 337 263 355 278 q 297 241 320 248 q 267 229 275 233 q 124 119 124 149 q 215 66 124 66 q 330 103 272 66 q 420 166 380 134 q 470 206 459 198 q 486 213 480 213 q 503 174 503 213 q 499 122 503 134 q 472 91 494 109 q 197 -26 326 -26 q 86 -7 128 -26 q 10 98 10 27 q 140 240 10 191 q 107 269 114 251 q 99 327 99 287 q 136 411 99 366 q 227 484 173 455 q 440 548 346 548 q 485 537 462 548 q 508 507 508 526 m 327 886 q 349 905 327 905 q 392 888 379 905 q 412 863 405 872 q 425 833 418 854 q 436 804 433 813 q 455 741 440 794 q 665 895 611 895 q 687 879 673 895 q 701 854 701 863 q 695 835 701 845 q 676 814 689 826 q 650 792 663 803 q 617 766 638 782 q 581 736 597 750 q 535 691 565 722 q 486 645 505 660 q 448 630 467 630 q 387 663 403 630 l 389 680 q 388 690 389 686 q 327 886 327 847 "},"ũ":{"x_min":0,"x_max":707.390625,"ha":549,"o":"m 616 212 q 632 193 629 212 q 634 152 634 173 q 630 123 634 131 q 544 30 611 85 q 418 -23 478 -23 q 350 -1 381 -23 q 319 75 319 20 q 348 183 319 130 q 84 -27 180 -27 q 23 0 46 -27 q 0 55 0 26 q 8 114 0 84 q 25 170 16 145 q 52 230 34 194 q 79 282 70 266 q 107 331 88 299 q 158 420 126 364 q 210 502 189 476 q 250 530 231 529 q 285 514 270 530 q 300 487 300 497 q 255 396 300 477 q 120 113 120 153 q 128 103 120 103 q 290 244 160 103 q 440 424 419 385 q 479 491 460 464 q 508 524 499 518 q 583 545 537 543 q 595 544 591 545 q 604 533 599 543 q 610 516 610 522 q 556 415 604 497 q 503 322 508 333 q 423 106 423 156 q 444 78 423 78 q 539 141 484 83 q 580 183 560 162 q 604 209 600 205 q 616 212 609 212 m 487 783 q 515 756 499 769 q 554 744 531 744 q 600 754 577 744 q 633 778 623 765 q 675 812 659 812 q 699 795 691 812 q 707 762 707 779 q 702 734 707 745 q 635 661 679 689 q 550 634 591 634 q 483 647 508 634 q 444 675 457 660 q 386 716 406 716 q 350 707 366 716 q 322 686 334 699 q 299 661 310 674 q 246 632 271 632 q 236 640 241 632 q 231 660 231 649 q 265 740 231 701 q 337 801 298 779 q 403 823 377 823 q 452 810 429 823 q 487 783 475 798 "},"ŭ":{"x_min":0,"x_max":669.40625,"ha":549,"o":"m 616 212 q 632 193 629 212 q 634 152 634 173 q 630 123 634 131 q 544 30 611 85 q 418 -23 478 -23 q 350 -1 381 -23 q 319 75 319 20 q 348 183 319 130 q 84 -27 180 -27 q 23 0 46 -27 q 0 55 0 26 q 8 114 0 84 q 25 170 16 145 q 52 230 34 194 q 79 282 70 266 q 107 331 88 299 q 158 420 126 364 q 210 502 189 476 q 250 530 231 529 q 285 514 270 530 q 300 487 300 497 q 255 396 300 477 q 120 113 120 153 q 128 103 120 103 q 290 244 160 103 q 440 424 419 385 q 479 491 460 464 q 508 524 499 518 q 583 545 537 543 q 595 544 591 545 q 604 533 599 543 q 610 516 610 522 q 556 415 604 497 q 503 322 508 333 q 423 106 423 156 q 444 78 423 78 q 539 141 484 83 q 580 183 560 162 q 604 209 600 205 q 616 212 609 212 m 253 832 q 262 855 253 844 q 285 867 270 867 q 312 854 300 867 q 338 812 324 842 q 358 771 352 782 q 382 752 364 760 q 423 744 399 744 q 475 757 448 744 q 522 789 503 770 q 560 826 542 807 q 633 871 602 871 q 655 855 641 871 q 669 829 669 838 q 656 798 669 819 q 620 748 643 776 q 568 695 596 720 q 427 634 499 634 q 304 693 354 634 q 253 832 253 752 "},"{":{"x_min":142.421875,"x_max":1027.5,"ha":610,"o":"m 282 -51 q 336 -103 282 -107 q 416 -86 368 -100 q 478 -72 463 -72 q 493 -86 493 -72 q 451 -142 493 -113 q 361 -189 408 -171 q 226 -215 292 -215 q 179 -193 200 -215 q 142 -102 142 -155 q 169 12 142 -50 q 235 135 196 75 q 313 252 274 195 q 406 446 406 390 q 349 500 406 487 q 303 511 326 505 q 252 580 248 525 q 267 617 254 602 q 287 632 280 632 q 313 625 295 632 q 360 618 332 618 q 439 640 388 618 q 532 705 490 663 q 593 792 573 746 q 615 877 613 838 q 619 954 618 916 q 744 1142 621 1095 q 829 1158 788 1158 q 1027 1087 1027 1158 q 1013 1044 1027 1069 q 979 1007 999 1018 q 937 1015 958 995 q 885 1044 916 1036 q 824 1048 853 1052 q 772 1020 794 1044 q 752 945 751 996 q 740 838 753 894 q 698 727 728 781 q 479 560 636 613 q 533 419 564 517 q 425 219 505 336 q 306 28 330 79 q 282 -51 282 -21 "},"¼":{"x_min":101.734375,"x_max":872.1875,"ha":818,"o":"m 576 159 q 442 150 466 150 q 423 189 423 150 q 424 211 423 207 q 529 319 440 246 q 707 452 617 392 q 822 515 797 512 q 855 505 826 515 q 862 497 859 503 q 868 491 865 491 q 870 483 869 486 q 872 476 872 479 q 825 407 872 472 q 722 249 778 341 q 812 256 796 256 q 828 249 828 256 q 821 232 828 242 q 767 174 784 182 q 673 165 747 171 q 632 99 671 162 q 567 -10 594 35 q 534 -28 560 -24 q 495 -37 507 -33 q 480 -30 489 -37 q 472 -16 472 -23 q 576 159 500 37 m 771 847 q 784 825 784 847 q 783 795 784 803 q 781 781 781 788 q 779 772 780 775 q 777 762 779 769 q 773 750 775 754 q 626 574 762 726 q 160 14 365 282 q 152 1 158 11 q 128 -18 142 -18 q 101 43 101 -18 q 107 90 101 67 q 116 120 113 113 q 123 128 120 126 q 219 241 126 132 q 496 553 311 350 q 714 794 680 756 q 751 835 747 832 q 758 841 754 838 q 771 847 767 847 m 335 697 q 309 683 317 683 q 299 694 301 683 q 293 707 297 704 q 295 727 287 712 q 362 788 300 741 q 441 836 425 836 q 473 821 458 836 q 487 793 487 807 q 434 712 486 787 q 291 499 382 637 q 187 327 200 360 q 172 320 186 325 q 153 314 159 314 q 139 326 147 314 q 128 342 132 338 q 118 350 123 347 q 113 356 112 353 q 202 503 126 385 q 335 697 278 620 m 741 402 q 627 308 683 357 q 527 225 571 260 q 628 240 568 232 q 741 402 680 322 "},"#":{"x_min":94.953125,"x_max":849.140625,"ha":754,"o":"m 203 47 q 191 26 203 26 q 168 44 180 26 q 151 84 156 61 q 147 117 147 106 q 153 146 147 128 q 167 177 160 163 q 188 213 174 190 q 207 247 201 236 l 155 247 q 115 254 135 247 q 94 275 94 261 q 106 288 94 280 q 121 305 117 296 q 158 331 125 314 q 217 348 191 348 q 271 351 244 348 q 297 396 280 366 q 357 494 333 461 q 294 493 318 493 q 251 500 269 493 q 232 520 232 507 q 242 531 232 524 q 252 544 251 538 q 285 569 258 556 q 333 583 313 582 l 421 587 q 497 697 450 626 q 560 791 543 769 q 582 813 576 813 q 597 793 588 813 q 607 758 607 772 q 594 720 607 745 q 524 591 581 695 l 622 594 l 744 783 q 755 791 752 791 q 777 767 763 791 q 792 717 792 743 q 736 597 792 691 l 756 597 q 804 595 794 597 q 823 581 813 592 q 839 567 833 570 q 849 549 849 558 q 832 531 849 539 q 797 522 816 523 q 689 515 779 522 l 596 360 l 650 360 q 706 358 697 360 q 726 344 714 356 q 746 326 737 333 q 756 309 756 320 q 737 289 756 297 q 694 278 718 280 q 545 269 669 276 q 468 79 482 143 l 468 71 q 459 58 468 58 q 435 76 449 58 q 409 122 421 95 q 397 166 397 148 q 431 261 397 184 q 308 251 403 259 q 203 47 229 114 m 568 510 l 465 501 q 427 437 459 491 q 375 354 394 382 q 388 354 376 354 q 479 358 401 355 q 568 510 523 440 "},"Ĳ":{"x_min":-14.921875,"x_max":1607.390625,"ha":1280,"o":"m 692 983 l 724 984 q 741 971 741 984 q 740 965 741 967 q 134 30 416 488 q 108 2 120 6 q 101 0 107 2 q 54 -12 67 -12 q 39 -13 40 -12 q 24 -20 33 -20 q 13 -20 16 -20 q -2 -14 10 -19 q -14 -6 -14 -9 q -12 33 -14 26 q 144 304 2 81 q 434 740 286 528 q 613 978 581 953 q 638 985 622 985 l 692 983 m 1107 222 q 1177 252 1132 234 q 1235 270 1222 270 q 1243 261 1243 270 q 1239 241 1243 251 q 1229 223 1234 231 q 1216 205 1224 216 l 1205 191 q 1112 115 1173 145 q 1051 86 1091 104 q 996 61 1011 69 l 960 6 q 768 -247 845 -162 q 626 -370 691 -332 q 474 -408 560 -408 q 410 -372 432 -408 q 389 -290 389 -335 q 417 -197 389 -245 q 495 -105 445 -149 q 598 -22 544 -61 q 718 52 653 16 q 925 156 825 110 q 1426 861 1172 520 q 1432 869 1432 866 q 1412 872 1432 872 q 1321 858 1391 872 q 1015 745 1167 827 q 754 558 863 663 q 646 387 646 453 q 674 332 646 354 q 736 311 703 311 q 804 327 769 311 q 862 361 838 344 q 888 377 885 377 q 891 368 891 377 q 865 283 891 318 q 793 229 839 247 q 705 212 747 212 q 618 229 662 212 q 543 284 574 247 q 512 369 512 322 q 521 417 512 389 q 960 838 588 636 q 1245 950 1087 908 q 1543 992 1403 992 q 1588 976 1569 992 q 1607 942 1607 960 q 1604 916 1607 923 q 1580 877 1601 908 q 1536 817 1558 846 q 1431 679 1474 737 q 1107 222 1387 621 m 819 -4 q 486 -280 486 -210 q 509 -295 486 -295 q 571 -271 533 -295 q 642 -216 609 -248 q 714 -139 676 -184 q 819 -4 769 -74 "},"Ê":{"x_min":126.15625,"x_max":978,"ha":836,"o":"m 391 663 q 545 619 391 619 q 601 627 583 619 q 719 650 649 650 q 790 614 790 650 q 778 572 790 600 q 760 539 766 545 q 716 522 754 533 q 667 511 678 512 q 652 509 656 510 q 643 507 649 508 q 621 504 638 507 q 595 504 603 501 q 286 261 370 394 q 248 159 248 202 q 341 92 248 92 q 526 149 414 92 q 724 287 638 206 q 811 427 811 368 q 839 446 811 446 q 905 368 905 446 q 873 281 905 332 q 784 179 841 231 q 657 82 727 127 q 502 9 588 37 q 358 -18 417 -18 q 263 -7 299 -18 q 195 25 227 3 q 126 171 126 73 q 154 279 126 224 q 229 378 183 333 q 411 518 314 462 q 271 661 271 550 q 465 892 271 788 q 699 975 573 950 q 798 987 758 987 q 921 974 880 987 q 962 940 946 962 q 978 902 978 918 q 973 873 978 886 q 960 853 969 860 q 929 837 946 843 q 910 830 912 832 q 819 808 857 808 q 745 826 751 808 q 760 866 746 843 q 626 840 695 864 q 506 785 557 817 q 423 720 456 754 q 391 663 391 686 m 963 1068 q 943 1049 963 1049 q 909 1055 923 1049 q 884 1070 894 1060 q 865 1092 873 1081 q 851 1121 857 1103 q 840 1151 844 1139 q 830 1183 836 1163 q 821 1214 824 1204 q 703 1115 778 1170 q 595 1060 628 1060 q 580 1075 580 1060 q 586 1103 580 1089 q 609 1132 593 1116 q 636 1158 625 1148 q 672 1188 647 1168 q 805 1311 762 1261 q 842 1325 813 1325 q 889 1305 871 1325 q 913 1264 908 1286 q 923 1215 918 1242 q 928 1184 927 1188 q 936 1164 930 1180 q 946 1140 942 1148 q 954 1117 949 1131 q 963 1068 963 1087 "},")":{"x_min":-143.109375,"x_max":667.375,"ha":509,"o":"m 555 912 l 550 1050 q 557 1100 550 1085 q 628 1115 564 1115 q 656 1049 645 1115 q 667 871 667 984 q 633 623 667 759 q 544 363 600 486 q 413 126 488 240 q 259 -69 339 12 q 96 -201 180 -151 q -59 -250 12 -250 q -88 -248 -77 -250 q -115 -232 -100 -246 q -143 -174 -143 -208 q -134 -154 -143 -162 q -115 -144 -125 -147 q -90 -141 -105 -142 q 87 -53 -10 -131 q 265 132 185 25 q 412 365 346 239 q 516 636 477 491 q 555 912 555 780 "},"Å":{"x_min":40.6875,"x_max":1222.0625,"ha":816,"o":"m 947 951 q 977 998 968 998 l 980 998 q 1022 976 990 998 q 1053 935 1053 954 q 879 526 1053 909 q 680 96 706 143 q 645 34 655 50 q 619 0 636 18 q 547 -35 590 -35 q 516 -40 529 -35 q 499 -44 502 -44 q 478 -34 478 -44 q 483 -17 478 -32 q 638 311 489 -3 q 358 320 479 317 q 148 15 242 174 q 126 -15 137 -6 q 99 -25 116 -25 q 61 -7 81 -25 q 40 34 40 10 q 215 324 40 102 q 111 320 133 324 q 83 316 89 316 q 65 347 65 316 q 101 401 65 378 q 198 425 137 425 q 215 425 203 425 q 301 429 257 427 q 611 751 449 602 q 890 959 772 900 q 920 968 909 969 q 947 951 931 968 m 900 855 q 447 429 652 668 q 690 419 567 426 q 900 855 813 678 m 1072 1337 q 1142 1349 1072 1349 q 1200 1327 1177 1349 q 1222 1268 1222 1304 q 1193 1182 1222 1231 q 1103 1092 1165 1134 q 1017 1066 1066 1066 q 944 1094 969 1066 q 918 1155 918 1121 q 1072 1337 918 1283 m 995 1180 q 1036 1151 995 1151 q 1108 1180 1078 1151 q 1138 1239 1138 1210 q 1132 1252 1138 1248 q 1121 1259 1125 1256 q 1110 1265 1117 1262 q 1099 1269 1103 1268 q 1077 1277 1092 1273 q 1029 1254 1063 1278 q 995 1180 995 1231 "},"¸":{"x_min":47.46875,"x_max":310.625,"ha":444,"o":"m 230 -177 q 218 -163 230 -169 q 190 -151 206 -156 q 157 -139 173 -146 q 116 -88 116 -122 q 142 -20 116 -55 q 198 14 168 14 q 222 11 211 14 q 232 4 232 7 q 228 -3 232 0 q 221 -8 223 -8 q 192 -50 192 -37 q 210 -69 192 -63 q 251 -80 229 -75 q 292 -101 274 -84 q 310 -140 310 -117 q 303 -183 310 -162 q 223 -279 278 -249 q 97 -309 167 -309 q 56 -304 66 -309 q 47 -273 47 -299 q 59 -227 47 -247 q 80 -208 70 -208 q 91 -213 90 -208 q 96 -218 93 -218 q 230 -177 230 -208 "},"a":{"x_min":4.0625,"x_max":669.40625,"ha":566,"o":"m 559 515 q 611 480 611 515 q 602 452 611 461 q 564 393 593 443 q 500 266 535 343 q 455 133 465 188 q 453 114 453 126 q 474 77 453 77 q 522 96 494 77 q 571 138 550 115 q 614 183 593 160 q 638 209 634 206 q 651 212 642 212 q 666 193 663 212 q 669 152 669 173 q 665 123 669 131 q 578 30 645 84 q 457 -23 512 -23 q 377 9 402 -23 q 351 83 351 42 q 364 153 351 123 q 235 29 308 80 q 116 -21 162 -21 q 41 6 70 -21 q 4 102 4 41 q 31 226 4 164 q 103 339 59 288 q 202 432 148 390 q 409 520 314 520 q 469 508 446 520 q 498 478 492 496 q 525 509 514 502 q 559 515 537 515 m 469 440 q 229 311 353 440 q 148 200 185 265 q 111 112 111 136 q 124 88 111 88 q 230 163 143 88 q 345 274 317 238 q 469 440 377 313 "},"Ę":{"x_min":126.15625,"x_max":978,"ha":836,"o":"m 391 663 q 545 619 391 619 q 601 627 583 619 q 719 650 649 650 q 790 614 790 650 q 778 572 790 600 q 760 539 766 545 q 716 522 754 533 q 667 511 678 512 q 652 509 656 510 q 643 507 649 508 q 621 504 638 507 q 595 504 603 501 q 286 261 370 394 q 248 159 248 202 q 341 92 248 92 q 526 149 414 92 q 724 287 638 206 q 811 427 811 368 q 839 446 811 446 q 905 373 905 446 q 799 197 905 300 q 559 31 694 94 q 487 -42 531 18 q 444 -120 444 -103 q 452 -143 444 -137 q 545 -120 487 -143 q 617 -96 604 -96 q 627 -118 627 -96 q 623 -154 627 -141 q 550 -222 600 -196 q 435 -248 500 -248 q 385 -218 409 -248 q 360 -158 360 -188 q 383 -86 360 -128 q 442 -6 406 -43 q 345 -18 390 -18 q 263 -7 299 -18 q 195 25 227 3 q 126 171 126 73 q 154 279 126 224 q 229 378 183 333 q 411 518 314 462 q 271 661 271 550 q 465 892 271 788 q 699 975 573 950 q 798 987 758 987 q 921 974 880 987 q 962 940 946 962 q 978 902 978 918 q 973 873 978 886 q 960 853 969 860 q 929 837 946 843 q 910 830 912 832 q 819 808 857 808 q 745 826 751 808 q 760 866 746 843 q 626 840 695 864 q 506 785 557 817 q 423 720 456 754 q 391 663 391 686 "},"=":{"x_min":101.734375,"x_max":697.890625,"ha":596,"o":"m 247 465 l 238 465 q 202 473 219 465 q 185 493 185 482 q 195 514 185 504 q 207 530 205 524 q 243 564 212 545 q 292 584 274 583 q 535 594 427 594 q 651 591 643 594 q 670 573 659 587 q 689 553 680 560 q 697 532 697 545 q 679 507 697 518 q 649 495 661 496 q 559 487 636 495 q 247 465 339 466 m 164 270 l 154 270 q 118 279 135 270 q 101 298 101 287 q 111 320 101 309 q 125 340 122 330 q 160 369 128 350 q 208 389 191 388 q 436 400 340 400 q 540 396 532 400 q 558 379 548 393 q 577 358 569 365 q 586 337 586 351 q 569 313 586 324 q 539 301 551 302 q 478 295 526 300 q 381 284 430 290 q 164 270 252 271 "},"˚":{"x_min":326.90625,"x_max":630.0625,"ha":444,"o":"m 480 873 q 550 885 480 885 q 608 863 585 885 q 630 804 630 840 q 601 718 630 767 q 511 628 573 670 q 425 602 474 602 q 352 630 377 602 q 326 691 326 657 q 480 873 326 819 m 403 716 q 444 687 403 687 q 516 716 486 687 q 546 775 546 746 q 540 788 546 784 q 529 795 533 792 q 518 801 525 798 q 507 805 511 804 q 485 813 500 809 q 437 790 471 814 q 403 716 403 767 "},"ú":{"x_min":0,"x_max":688.390625,"ha":549,"o":"m 616 212 q 632 193 629 212 q 634 152 634 173 q 630 123 634 131 q 544 30 611 85 q 418 -23 478 -23 q 350 -1 381 -23 q 319 75 319 20 q 348 183 319 130 q 84 -27 180 -27 q 23 0 46 -27 q 0 55 0 26 q 8 114 0 84 q 25 170 16 145 q 52 230 34 194 q 79 282 70 266 q 107 331 88 299 q 158 420 126 364 q 210 502 189 476 q 250 530 231 529 q 285 514 270 530 q 300 487 300 497 q 255 396 300 477 q 120 113 120 153 q 128 103 120 103 q 290 244 160 103 q 440 424 419 385 q 479 491 460 464 q 508 524 499 518 q 583 545 537 543 q 595 544 591 545 q 604 533 599 543 q 610 516 610 522 q 556 415 604 497 q 503 322 508 333 q 423 106 423 156 q 444 78 423 78 q 539 141 484 83 q 580 183 560 162 q 604 209 600 205 q 616 212 609 212 m 631 731 q 529 667 613 714 q 426 620 446 620 q 406 638 406 620 q 409 651 406 644 q 454 722 424 690 q 518 783 483 754 q 580 830 554 811 q 617 858 607 849 q 631 880 627 868 q 649 892 636 892 q 675 869 663 892 q 688 824 688 845 q 631 731 688 769 "},"¯":{"x_min":352,"x_max":704.671875,"ha":555,"o":"m 571 659 l 491 659 q 364 653 415 659 q 352 680 352 653 q 400 772 352 772 l 545 765 q 642 775 604 765 q 689 784 680 784 q 704 759 704 784 q 700 721 704 733 q 691 700 696 709 q 676 685 687 691 q 659 674 666 678 q 637 667 652 670 q 615 662 621 663 q 571 659 602 659 "},"Z":{"x_min":54.265625,"x_max":1152.296875,"ha":854,"o":"m 421 952 q 591 923 421 923 q 791 931 672 923 q 935 948 910 939 q 977 970 960 956 q 1003 992 995 983 q 1060 1018 1025 1018 q 1123 1004 1095 1018 q 1152 968 1152 991 q 1132 922 1152 946 q 1091 883 1112 898 q 1043 852 1069 868 q 1013 833 1017 836 q 979 804 1009 830 q 575 435 851 697 q 238 112 299 173 q 438 146 313 129 q 669 163 562 163 q 833 140 776 163 q 891 62 891 118 q 879 7 891 35 q 859 -20 867 -20 q 853 -11 856 -20 q 848 -1 851 -3 q 734 19 816 19 q 456 3 651 19 q 213 -17 261 -12 q 151 -23 166 -23 q 81 6 108 -23 q 54 59 54 35 l 59 80 q 218 275 59 113 q 555 601 376 437 q 820 832 735 765 q 672 801 761 815 q 503 788 582 788 q 305 874 305 788 q 321 926 305 903 q 359 961 337 949 q 424 986 404 986 q 444 978 444 986 q 433 965 444 973 q 421 952 421 957 "},"u":{"x_min":0,"x_max":634.8125,"ha":549,"o":"m 616 212 q 632 193 629 212 q 634 152 634 173 q 630 123 634 131 q 544 30 611 85 q 418 -23 478 -23 q 350 -1 381 -23 q 319 75 319 20 q 348 183 319 130 q 84 -27 180 -27 q 23 0 46 -27 q 0 55 0 26 q 8 114 0 84 q 25 170 16 145 q 52 230 34 194 q 79 282 70 266 q 107 331 88 299 q 158 420 126 364 q 210 502 189 476 q 250 530 231 529 q 285 514 270 530 q 300 487 300 497 q 255 396 300 477 q 120 113 120 153 q 128 103 120 103 q 290 244 160 103 q 440 424 419 385 q 479 491 460 464 q 508 524 499 518 q 583 545 537 543 q 595 544 591 545 q 604 533 599 543 q 610 516 610 522 q 556 415 604 497 q 503 322 508 333 q 423 106 423 156 q 444 78 423 78 q 539 141 484 83 q 580 183 560 162 q 604 209 600 205 q 616 212 609 212 "},"k":{"x_min":-28.484375,"x_max":612.4375,"ha":511,"o":"m 52 -16 l 9 -6 q -23 18 -10 -4 q -27 25 -26 24 q -28 29 -28 27 q -27 34 -28 31 q -23 45 -25 38 q -18 58 -20 51 q 219 511 -4 106 q 454 928 443 916 q 469 947 464 941 q 481 956 474 952 q 490 962 487 961 q 502 966 493 963 q 521 973 512 969 q 542 982 531 976 q 557 990 553 988 q 568 992 561 992 q 580 986 574 992 q 585 971 585 980 l 585 966 q 409 644 582 953 q 220 307 236 336 q 376 411 273 328 q 480 520 479 493 q 499 560 481 548 q 537 572 516 572 q 572 558 558 572 q 586 513 587 544 q 551 433 585 481 q 468 343 516 384 q 295 226 364 255 q 421 78 350 78 q 516 141 460 83 q 557 183 537 162 q 581 208 577 204 q 594 212 585 212 q 609 193 607 212 q 612 152 612 173 q 608 123 612 131 q 522 30 588 85 q 396 -23 455 -23 q 328 -7 353 -23 q 288 19 303 8 q 259 49 274 30 q 235 80 244 67 q 212 113 225 92 q 194 144 200 135 q 178 174 189 153 q 166 197 168 195 q 139 143 154 172 q 112 88 124 113 q 90 43 100 63 q 73 8 80 22 q 66 -5 67 -4 q 52 -16 61 -16 "},"Ù":{"x_min":130.21875,"x_max":1275.734375,"ha":1028,"o":"m 1069 375 q 1087 326 1087 375 q 1081 262 1087 278 q 987 145 1061 210 q 824 35 912 80 q 678 -9 735 -9 q 633 11 651 -9 q 614 66 614 32 q 683 250 614 126 q 851 510 752 375 q 619 253 687 320 q 497 140 551 187 q 401 64 444 92 q 240 -2 299 -2 q 155 30 180 -2 q 130 103 130 63 q 267 433 130 220 q 520 780 404 645 q 385 694 422 694 q 330 717 348 694 q 311 768 311 739 q 339 823 311 797 q 378 848 366 848 q 391 846 391 848 q 381 831 391 844 q 370 814 370 819 q 379 809 370 809 q 495 863 406 809 q 647 967 583 916 q 686 982 663 982 q 728 971 708 982 q 739 969 729 974 q 760 954 750 965 q 770 935 770 944 q 765 919 770 927 q 410 444 482 554 q 263 152 263 219 q 283 128 263 128 q 396 204 303 128 q 1110 937 651 412 q 1145 956 1129 958 l 1151 956 q 1166 959 1154 956 q 1207 961 1179 961 q 1275 936 1275 961 q 1255 898 1275 925 q 1172 781 1235 871 q 1015 554 1109 692 q 853 301 921 417 q 785 155 785 186 q 787 154 785 154 q 809 164 790 154 q 945 261 867 194 q 1044 351 1024 327 q 1069 375 1065 375 m 985 1059 q 965 1035 985 1035 q 933 1041 946 1035 q 911 1057 920 1046 q 898 1077 903 1069 q 887 1099 893 1085 q 872 1133 882 1113 q 840 1185 862 1153 q 807 1234 818 1218 q 795 1262 795 1250 q 828 1292 795 1274 q 878 1310 860 1310 q 902 1308 897 1310 q 911 1302 907 1307 q 918 1291 915 1297 q 925 1274 921 1286 q 931 1252 928 1263 q 960 1156 947 1194 q 985 1059 985 1082 "},"Ů":{"x_min":130.21875,"x_max":1275.734375,"ha":1028,"o":"m 1069 375 q 1087 326 1087 375 q 1081 262 1087 278 q 987 145 1061 210 q 824 35 912 80 q 678 -9 735 -9 q 633 11 651 -9 q 614 66 614 32 q 683 250 614 126 q 851 510 752 375 q 619 253 687 320 q 497 140 551 187 q 401 64 444 92 q 240 -2 299 -2 q 155 30 180 -2 q 130 103 130 63 q 267 433 130 220 q 520 780 404 645 q 385 694 422 694 q 330 717 348 694 q 311 768 311 739 q 339 823 311 797 q 378 848 366 848 q 391 846 391 848 q 381 831 391 844 q 370 814 370 819 q 379 809 370 809 q 495 863 406 809 q 647 967 583 916 q 686 982 663 982 q 728 971 708 982 q 739 969 729 974 q 760 954 750 965 q 770 935 770 944 q 765 919 770 927 q 410 444 482 554 q 263 152 263 219 q 283 128 263 128 q 396 204 303 128 q 1110 937 651 412 q 1145 956 1129 958 l 1151 956 q 1166 959 1154 956 q 1207 961 1179 961 q 1275 936 1275 961 q 1255 898 1275 925 q 1172 781 1235 871 q 1015 554 1109 692 q 853 301 921 417 q 785 155 785 186 q 787 154 785 154 q 809 164 790 154 q 945 261 867 194 q 1044 351 1024 327 q 1069 375 1065 375 m 1024 1306 q 1094 1318 1024 1318 q 1152 1296 1129 1318 q 1174 1237 1174 1273 q 1145 1151 1174 1200 q 1055 1061 1117 1103 q 969 1035 1018 1035 q 896 1063 921 1035 q 870 1124 870 1090 q 1024 1306 870 1252 m 947 1149 q 988 1120 947 1120 q 1060 1149 1030 1120 q 1090 1208 1090 1179 q 1084 1221 1090 1217 q 1073 1228 1077 1225 q 1062 1234 1069 1231 q 1051 1238 1055 1237 q 1029 1246 1044 1242 q 981 1223 1015 1247 q 947 1149 947 1200 "},"¢":{"x_min":128.859375,"x_max":724.34375,"ha":657,"o":"m 630 352 q 645 322 645 352 q 614 254 645 291 q 534 190 582 217 q 330 119 430 132 q 236 -76 317 91 q 217 -92 229 -90 q 181 -96 193 -96 q 156 -91 168 -96 q 143 -82 144 -86 q 140 -70 143 -78 q 137 -59 137 -63 q 227 127 137 -53 q 128 283 128 160 q 179 447 128 366 q 313 588 229 529 q 495 672 397 648 q 598 880 585 855 q 649 917 611 905 q 699 930 687 930 q 724 913 724 930 q 707 882 724 909 q 619 712 690 855 l 607 687 l 608 687 q 673 666 644 687 q 701 609 701 644 q 666 522 701 573 q 593 472 630 472 q 550 512 550 472 q 570 551 550 523 q 590 588 590 578 q 583 598 590 598 q 562 596 576 598 q 381 224 448 362 q 600 332 503 242 q 630 352 622 352 m 278 233 q 363 405 309 295 q 439 559 417 515 q 300 446 356 517 q 244 298 244 375 q 278 233 244 251 "},"Ş":{"x_min":95.625,"x_max":1138.734375,"ha":928,"o":"m 185 186 l 176 168 q 231 130 176 148 q 353 112 286 112 q 498 132 419 112 q 636 180 577 151 q 733 240 695 208 q 771 294 771 271 q 703 348 771 323 q 506 403 636 373 q 317 480 377 434 q 257 592 257 526 q 305 718 257 658 q 428 826 352 779 q 595 909 505 872 q 941 984 781 984 q 1049 973 1002 984 q 1138 918 1138 952 q 1132 871 1138 883 q 1122 854 1126 858 q 1113 846 1119 850 q 1104 840 1107 842 q 941 809 1074 815 q 891 804 895 807 q 884 801 887 801 q 876 807 881 801 q 872 824 872 812 q 899 869 872 836 q 722 831 816 864 q 559 756 628 798 q 444 674 490 714 q 398 617 398 634 q 408 590 398 600 q 566 526 436 559 q 745 470 700 491 q 819 430 790 449 q 866 392 849 411 q 908 293 908 344 q 875 196 908 242 q 784 107 843 149 q 636 32 726 65 q 440 -11 545 0 q 415 -54 415 -40 q 456 -76 415 -67 q 515 -101 497 -84 q 533 -140 533 -117 q 526 -183 533 -162 q 446 -279 501 -249 q 320 -309 390 -309 q 280 -304 289 -309 q 270 -273 270 -299 q 282 -227 270 -247 q 303 -208 293 -208 q 315 -213 313 -208 q 319 -218 316 -218 q 440 -193 410 -211 q 453 -177 453 -185 q 441 -163 453 -169 q 413 -151 430 -156 q 379 -139 396 -146 q 339 -87 339 -122 q 367 -17 339 -52 q 294 -19 337 -19 q 207 -8 250 -19 q 141 23 164 3 q 95 107 95 60 q 157 189 95 164 q 176 194 168 194 q 185 186 185 194 "},"é":{"x_min":10.859375,"x_max":689.75,"ha":441,"o":"m 508 507 q 472 428 508 462 q 389 394 436 394 q 370 401 375 394 q 365 420 365 408 q 368 442 365 432 q 314 417 343 434 q 240 367 284 400 q 197 318 197 334 q 213 312 197 312 q 262 323 229 312 q 308 335 295 335 q 326 333 322 335 q 345 313 335 328 q 355 287 355 297 q 337 263 355 278 q 297 241 320 248 q 267 229 275 233 q 124 119 124 149 q 215 66 124 66 q 330 103 272 66 q 420 166 380 134 q 470 206 459 198 q 486 213 480 213 q 503 174 503 213 q 499 122 503 134 q 472 91 494 109 q 197 -26 326 -26 q 86 -7 128 -26 q 10 98 10 27 q 140 240 10 191 q 107 269 114 251 q 99 327 99 287 q 136 411 99 366 q 227 484 173 455 q 440 548 346 548 q 485 537 462 548 q 508 507 508 526 m 632 741 q 531 677 614 724 q 427 630 447 630 q 407 648 407 630 q 411 661 407 654 q 455 732 425 700 q 520 793 484 765 q 581 840 555 822 q 618 868 608 859 q 632 890 628 878 q 651 902 637 902 q 677 879 664 902 q 689 834 689 855 q 632 741 689 779 "},"B":{"x_min":149.203125,"x_max":1108.21875,"ha":950,"o":"m 382 694 l 402 699 q 406 691 406 699 q 382 666 406 683 q 326 648 359 648 q 275 667 293 648 q 256 716 256 686 q 340 844 256 781 q 547 946 424 908 q 782 984 670 984 q 1027 931 947 984 q 1108 787 1108 877 q 948 564 1108 672 q 766 473 864 507 q 937 404 873 461 q 985 293 985 360 q 921 157 985 226 q 750 41 857 87 q 533 -4 644 -4 q 344 52 404 -4 q 317 98 317 78 q 327 140 317 118 q 255 5 278 50 q 213 -14 244 -14 q 166 1 183 -14 q 149 37 149 17 q 155 73 149 58 q 370 448 185 153 q 596 790 555 743 q 695 816 618 816 q 725 803 725 816 q 635 650 725 792 q 541 501 545 507 q 734 575 635 528 q 906 682 832 622 q 980 790 980 741 q 807 869 980 869 q 460 773 627 869 q 397 730 419 750 q 375 702 375 710 q 382 694 375 694 m 504 370 q 477 398 492 370 q 342 169 413 295 q 435 213 374 213 q 476 203 476 213 q 467 196 476 199 q 440 165 440 185 q 543 116 440 116 q 798 214 684 116 q 859 304 859 265 q 809 356 859 328 q 634 388 752 388 q 529 379 552 388 q 504 370 505 370 "},"…":{"x_min":101.734375,"x_max":898.640625,"ha":966,"o":"m 101 6 q 134 80 101 48 q 198 112 166 112 q 254 66 254 112 q 222 -7 254 28 q 150 -42 190 -42 q 101 6 101 -42 m 423 6 q 456 80 423 48 q 520 112 489 112 q 576 66 576 112 q 544 -7 576 28 q 472 -42 512 -42 q 423 6 423 -42 m 746 6 q 778 80 746 48 q 842 112 811 112 q 898 66 898 112 q 866 -7 898 28 q 794 -42 834 -42 q 746 6 746 -42 "},"ē":{"x_min":10.859375,"x_max":672.796875,"ha":441,"o":"m 508 507 q 472 428 508 462 q 389 394 436 394 q 370 401 375 394 q 365 420 365 408 q 368 442 365 432 q 314 417 343 434 q 240 367 284 400 q 197 318 197 334 q 213 312 197 312 q 262 323 229 312 q 308 335 295 335 q 326 333 322 335 q 345 313 335 328 q 355 287 355 297 q 337 263 355 278 q 297 241 320 248 q 267 229 275 233 q 124 119 124 149 q 215 66 124 66 q 330 103 272 66 q 420 166 380 134 q 470 206 459 198 q 486 213 480 213 q 503 174 503 213 q 499 122 503 134 q 472 91 494 109 q 197 -26 326 -26 q 86 -7 128 -26 q 10 98 10 27 q 140 240 10 191 q 107 269 114 251 q 99 327 99 287 q 136 411 99 366 q 227 484 173 455 q 440 548 346 548 q 485 537 462 548 q 508 507 508 526 m 539 687 l 459 687 q 332 680 383 687 q 320 708 320 680 q 368 800 320 800 l 513 793 q 611 803 573 793 q 657 812 649 812 q 672 787 672 812 q 668 749 672 761 q 659 728 664 737 q 644 712 655 719 q 627 701 634 706 q 605 694 620 697 q 583 690 590 691 q 539 687 570 687 "},"H":{"x_min":118.015625,"x_max":1360.515625,"ha":1042,"o":"m 1323 967 l 1332 967 q 1337 967 1336 967 q 1339 966 1338 966 q 1342 964 1341 965 q 1352 958 1346 961 q 1360 944 1360 952 q 1344 910 1360 935 q 1262 784 1328 885 q 990 352 1110 551 q 781 5 783 7 q 778 1 779 3 q 773 -2 777 -2 l 763 0 l 745 -5 l 734 -3 l 722 -5 l 718 -5 l 680 -10 q 647 12 647 -10 q 653 35 647 21 q 864 396 674 85 q 617 392 739 392 l 471 393 q 373 229 435 335 q 229 -3 238 0 q 215 -5 220 -5 q 204 1 209 -5 q 198 7 200 7 q 191 4 196 7 q 175 2 185 2 l 160 2 l 153 6 q 152 4 153 6 q 147 2 151 2 q 118 27 118 2 q 129 69 118 43 q 159 127 141 96 q 256 275 178 158 q 333 392 333 391 q 303 393 320 392 q 255 396 269 393 q 202 459 216 402 q 195 496 194 487 q 210 514 195 514 l 228 510 q 293 506 242 509 q 367 503 345 503 l 406 505 q 617 817 494 643 q 418 744 527 744 q 329 769 366 744 q 292 832 292 794 q 320 892 292 870 q 375 914 349 914 q 400 906 400 914 q 393 900 400 903 q 386 893 386 896 q 410 873 386 882 q 463 865 434 865 q 536 882 493 865 q 626 927 579 900 q 729 990 691 965 q 770 1001 751 1001 q 797 996 789 1001 q 810 987 806 992 q 819 976 814 983 q 828 965 824 969 q 832 956 832 961 q 827 942 832 952 q 775 859 822 931 q 655 675 729 787 q 548 510 581 562 q 939 516 729 510 q 1209 940 1195 920 q 1235 965 1223 959 q 1263 971 1246 971 l 1323 967 "},"î":{"x_min":6.78125,"x_max":541.90625,"ha":281,"o":"m 373 152 q 369 123 373 132 q 263 13 336 55 q 137 -27 191 -27 q 45 8 84 -27 q 6 81 6 44 q 44 189 6 118 q 118 321 81 261 q 155 386 155 381 q 142 406 155 392 q 128 428 128 421 q 156 466 128 436 q 224 525 184 496 q 286 555 265 555 q 324 536 307 555 q 341 501 341 517 q 180 208 341 486 q 169 190 178 204 q 154 167 160 176 q 143 145 149 158 q 129 99 129 118 q 160 76 129 76 q 225 98 191 76 q 283 145 259 119 q 356 213 347 213 q 373 152 373 213 m 541 655 q 521 636 541 636 q 487 641 501 636 q 462 657 472 647 q 443 679 451 668 q 429 708 436 690 q 418 738 422 726 q 408 770 414 750 q 400 800 402 791 q 281 702 356 757 q 173 647 206 647 q 158 661 158 647 q 165 690 158 676 q 187 719 171 703 q 214 745 203 735 q 250 775 225 755 q 383 897 341 848 q 420 912 391 912 q 467 892 449 912 q 491 851 486 873 q 501 802 497 829 q 506 771 505 775 q 514 751 508 767 q 524 727 520 735 q 532 704 527 718 q 541 655 541 674 "},"−":{"x_min":135.640625,"x_max":648.375,"ha":576,"o":"m 198 361 l 188 361 q 152 369 169 361 q 135 389 135 378 q 145 411 135 400 q 158 426 155 421 q 194 460 162 441 q 242 480 225 479 q 507 493 421 493 q 602 490 594 493 q 620 473 610 486 q 639 452 630 459 q 648 431 648 444 q 630 406 648 417 q 587 393 613 396 q 501 386 562 390 q 414 380 441 382 q 348 372 387 377 q 198 361 270 361 "},"≠":{"x_min":115.296875,"x_max":711.453125,"ha":596,"o":"m 255 465 q 198 498 198 465 q 208 514 198 504 q 221 530 219 524 q 257 564 225 545 q 305 584 288 583 q 486 592 392 590 l 602 746 q 620 759 616 759 q 635 699 635 759 q 620 658 635 678 q 572 594 579 604 l 612 594 q 665 591 657 594 q 683 573 673 587 q 702 553 693 560 q 711 532 711 545 q 694 507 711 518 q 657 495 676 497 l 491 480 q 436 400 465 440 l 501 400 q 554 396 545 400 q 572 379 562 393 q 591 359 582 365 q 600 338 600 352 q 582 313 600 324 q 551 301 564 302 q 510 297 538 300 q 437 290 481 295 q 354 282 392 285 q 193 46 327 241 q 189 36 191 43 q 185 27 187 30 q 172 18 181 18 q 151 39 159 18 q 143 91 143 61 q 146 136 143 121 q 165 176 150 151 l 238 271 q 177 270 217 270 l 172 270 q 133 278 151 270 q 115 304 115 286 q 125 320 115 309 q 139 340 135 330 q 173 369 142 350 q 222 389 205 388 q 335 397 303 396 l 392 470 q 261 465 297 465 l 255 465 "},"¥":{"x_min":189.90625,"x_max":920.078125,"ha":704,"o":"m 513 37 q 524 26 524 37 q 520 19 524 23 q 486 -23 516 14 q 443 -77 457 -61 q 417 -112 428 -94 q 398 -137 406 -130 q 379 -145 391 -145 q 324 -116 346 -145 q 301 -65 301 -88 q 375 83 301 -41 q 278 78 318 78 q 226 84 238 78 q 214 103 214 90 q 235 137 231 124 q 265 168 239 149 q 307 188 291 186 q 448 200 370 196 q 666 524 555 366 q 258 219 409 219 q 222 229 240 219 q 197 255 205 240 q 189 302 189 271 q 197 363 189 334 q 212 415 204 392 q 240 473 220 437 q 270 525 261 508 q 307 581 280 542 q 378 679 339 628 q 260 613 307 613 q 232 619 238 613 q 214 638 226 625 q 202 668 202 652 q 208 693 202 684 q 219 707 213 701 q 234 720 225 712 q 245 730 243 728 q 256 732 248 732 q 263 730 263 732 q 258 722 263 727 q 252 715 252 718 q 258 712 252 712 q 273 715 264 712 q 297 726 282 718 q 324 740 312 733 q 431 806 404 786 q 471 832 459 826 q 508 839 490 843 q 524 833 516 835 q 533 830 531 832 q 564 796 564 813 q 546 754 564 778 q 496 683 529 730 q 416 564 464 636 q 303 345 303 392 q 308 337 303 337 q 755 746 395 337 l 790 784 q 786 779 790 784 q 807 798 797 794 q 837 803 817 803 l 868 803 l 888 804 q 909 796 897 804 q 920 780 921 788 q 867 686 918 773 q 718 442 815 600 q 573 202 621 284 l 602 202 q 650 199 643 202 q 666 180 656 196 q 681 160 676 164 q 687 145 687 155 q 673 126 687 134 q 510 97 654 115 q 443 -23 461 13 q 491 21 470 4 q 513 37 512 37 "},"Ĥ":{"x_min":118.015625,"x_max":1360.515625,"ha":1042,"o":"m 1323 967 l 1332 967 q 1337 967 1336 967 q 1339 966 1338 966 q 1342 964 1341 965 q 1352 958 1346 961 q 1360 944 1360 952 q 1344 910 1360 935 q 1262 784 1328 885 q 990 352 1110 551 q 781 5 783 7 q 778 1 779 3 q 773 -2 777 -2 l 763 0 l 745 -5 l 734 -3 l 722 -5 l 718 -5 l 680 -10 q 647 12 647 -10 q 653 35 647 21 q 864 396 674 85 q 617 392 739 392 l 471 393 q 373 229 435 335 q 229 -3 238 0 q 215 -5 220 -5 q 204 1 209 -5 q 198 7 200 7 q 191 4 196 7 q 175 2 185 2 l 160 2 l 153 6 q 152 4 153 6 q 147 2 151 2 q 118 27 118 2 q 129 69 118 43 q 159 127 141 96 q 256 275 178 158 q 333 392 333 391 q 303 393 320 392 q 255 396 269 393 q 202 459 216 402 q 195 496 194 487 q 210 514 195 514 l 228 510 q 293 506 242 509 q 367 503 345 503 l 406 505 q 617 817 494 643 q 418 744 527 744 q 329 769 366 744 q 292 832 292 794 q 320 892 292 870 q 375 914 349 914 q 400 906 400 914 q 393 900 400 903 q 386 893 386 896 q 410 873 386 882 q 463 865 434 865 q 536 882 493 865 q 626 927 579 900 q 729 990 691 965 q 770 1001 751 1001 q 797 996 789 1001 q 810 987 806 992 q 819 976 814 983 q 828 965 824 969 q 832 956 832 961 q 827 942 832 952 q 775 859 822 931 q 655 675 729 787 q 548 510 581 562 q 939 516 729 510 q 1209 940 1195 920 q 1235 965 1223 959 q 1263 971 1246 971 l 1323 967 m 1266 1056 q 1246 1037 1266 1037 q 1212 1043 1226 1037 q 1187 1058 1197 1048 q 1168 1080 1176 1069 q 1154 1109 1160 1091 q 1143 1139 1147 1127 q 1133 1171 1139 1151 q 1124 1202 1127 1192 q 1006 1103 1081 1158 q 898 1048 931 1048 q 883 1063 883 1048 q 889 1091 883 1077 q 912 1120 896 1104 q 939 1146 928 1136 q 975 1176 950 1156 q 1108 1299 1065 1249 q 1145 1313 1116 1313 q 1192 1293 1174 1313 q 1216 1252 1211 1274 q 1226 1203 1221 1230 q 1231 1172 1230 1176 q 1239 1152 1233 1168 q 1249 1128 1245 1136 q 1257 1105 1252 1119 q 1266 1056 1266 1075 "},"U":{"x_min":130.21875,"x_max":1275.734375,"ha":1028,"o":"m 1069 375 q 1087 326 1087 375 q 1081 262 1087 278 q 987 145 1061 210 q 824 35 912 80 q 678 -9 735 -9 q 633 11 651 -9 q 614 66 614 32 q 683 250 614 126 q 851 510 752 375 q 619 253 687 320 q 497 140 551 187 q 401 64 444 92 q 240 -2 299 -2 q 155 30 180 -2 q 130 103 130 63 q 267 433 130 220 q 520 780 404 645 q 385 694 422 694 q 330 717 348 694 q 311 768 311 739 q 339 823 311 797 q 378 848 366 848 q 391 846 391 848 q 381 831 391 844 q 370 814 370 819 q 379 809 370 809 q 495 863 406 809 q 647 967 583 916 q 686 982 663 982 q 728 971 708 982 q 739 969 729 974 q 760 954 750 965 q 770 935 770 944 q 765 919 770 927 q 410 444 482 554 q 263 152 263 219 q 283 128 263 128 q 396 204 303 128 q 1110 937 651 412 q 1145 956 1129 958 l 1151 956 q 1166 959 1154 956 q 1207 961 1179 961 q 1275 936 1275 961 q 1255 898 1275 925 q 1172 781 1235 871 q 1015 554 1109 692 q 853 301 921 417 q 785 155 785 186 q 787 154 785 154 q 809 164 790 154 q 945 261 867 194 q 1044 351 1024 327 q 1069 375 1065 375 "},"Ñ":{"x_min":-24.421875,"x_max":1224.1875,"ha":899,"o":"m 663 963 l 712 974 q 743 966 731 974 q 754 951 754 958 q 751 930 754 944 q 696 666 748 916 q 621 291 644 415 q 890 677 736 448 q 1070 982 1044 906 q 1091 1018 1078 1005 q 1114 1033 1104 1031 q 1145 1036 1124 1036 q 1195 1027 1166 1036 q 1224 996 1224 1018 q 1105 766 1224 956 q 834 361 986 575 q 579 22 682 147 q 535 0 561 0 q 480 9 509 0 q 451 41 451 18 q 582 758 451 115 q 310 354 470 613 q 122 21 143 86 q 94 -23 109 -16 q 71 -27 83 -27 l 17 -33 q -11 -25 2 -33 q -24 -6 -24 -16 q 50 155 -24 20 q 225 448 125 290 q 434 756 325 607 q 603 958 543 906 q 631 969 615 969 l 663 963 m 957 1233 q 985 1205 969 1218 q 1024 1193 1000 1193 q 1070 1204 1047 1193 q 1103 1227 1093 1215 q 1145 1261 1129 1261 q 1169 1245 1161 1261 q 1177 1211 1177 1228 q 1172 1183 1177 1194 q 1105 1111 1149 1138 q 1019 1084 1061 1084 q 953 1097 978 1084 q 914 1124 927 1109 q 856 1165 876 1165 q 820 1157 836 1165 q 792 1136 804 1148 q 768 1111 780 1123 q 716 1082 741 1082 q 706 1090 711 1082 q 701 1109 701 1098 q 735 1189 701 1150 q 807 1251 768 1229 q 873 1272 846 1272 q 922 1260 899 1272 q 957 1233 945 1247 "},"F":{"x_min":244.15625,"x_max":1213,"ha":806,"o":"m 263 370 q 244 394 244 370 q 260 433 244 412 q 279 461 276 454 q 297 482 282 467 q 323 499 311 496 q 368 505 334 501 q 599 516 474 515 q 820 822 735 722 q 509 798 693 798 q 259 910 259 798 q 291 966 259 942 q 372 990 323 990 q 421 978 421 990 q 406 972 421 972 q 378 961 391 972 q 364 940 364 950 q 431 916 364 924 q 636 909 497 909 q 937 934 775 909 q 1038 1001 990 978 q 1133 1023 1085 1023 q 1197 1001 1182 1023 q 1213 969 1212 980 q 1197 940 1213 958 q 1151 904 1180 923 q 971 854 1083 862 q 727 515 853 704 q 824 507 779 513 q 870 472 870 501 q 831 425 870 459 q 821 411 827 420 q 799 394 810 394 q 775 397 789 394 q 696 399 722 399 l 652 398 q 405 12 413 27 q 388 -9 398 -2 q 366 -16 379 -16 q 328 -12 352 -16 q 291 -1 303 -8 q 279 14 279 4 q 285 42 279 24 q 513 393 301 88 q 295 379 375 386 l 263 370 m 1124 983 q 1098 972 1113 980 l 1124 983 "},"ĵ":{"x_min":-339.109375,"x_max":538.515625,"ha":307,"o":"m 358 206 q 377 212 368 215 q 387 197 385 209 q 387 123 396 153 q 336 91 383 118 q 229 30 289 65 q 96 -58 169 -4 q -25 -165 23 -112 q -105 -286 -53 -222 q -274 -408 -206 -408 q -320 -390 -301 -408 q -339 -346 -339 -373 q -325 -297 -339 -320 q -281 -244 -312 -274 q -227 -193 -250 -213 q -157 -134 -205 -174 q -90 -80 -108 -95 q -14 48 -61 -30 q 58 173 31 128 q 180 366 135 303 q 165 366 177 367 q 146 365 153 364 q 129 373 138 365 q 118 397 121 381 q 196 477 114 421 q 307 533 278 533 q 358 482 358 533 q 352 461 358 476 q 236 265 347 445 q 82 21 125 86 q 120 48 88 25 q 186 96 151 71 q 258 147 221 121 q 358 206 344 206 m 538 633 q 518 614 538 614 q 483 619 498 614 q 458 635 469 624 q 440 657 448 646 q 425 686 432 668 q 415 715 419 704 q 405 748 411 727 q 396 778 399 769 q 278 679 353 735 q 170 624 202 624 q 155 639 155 624 q 161 667 155 654 q 184 696 168 680 q 211 722 200 712 q 247 753 222 733 q 380 875 337 826 q 417 889 387 889 q 464 870 446 889 q 488 829 482 851 q 497 780 493 807 q 503 749 501 753 q 511 729 505 745 q 520 704 517 713 q 529 680 524 695 q 538 633 538 651 "},"ā":{"x_min":4.0625,"x_max":695.171875,"ha":566,"o":"m 559 515 q 611 480 611 515 q 602 452 611 461 q 564 393 593 443 q 500 266 535 343 q 455 133 465 188 q 453 114 453 126 q 474 77 453 77 q 522 96 494 77 q 571 138 550 115 q 614 183 593 160 q 638 209 634 206 q 651 212 642 212 q 666 193 663 212 q 669 152 669 173 q 665 123 669 131 q 578 30 645 84 q 457 -23 512 -23 q 377 9 402 -23 q 351 83 351 42 q 364 153 351 123 q 235 29 308 80 q 116 -21 162 -21 q 41 6 70 -21 q 4 102 4 41 q 31 226 4 164 q 103 339 59 288 q 202 432 148 390 q 409 520 314 520 q 469 508 446 520 q 498 478 492 496 q 525 509 514 502 q 559 515 537 515 m 469 440 q 229 311 353 440 q 148 200 185 265 q 111 112 111 136 q 124 88 111 88 q 230 163 143 88 q 345 274 317 238 q 469 440 377 313 m 561 662 l 481 662 q 354 655 405 662 q 342 682 342 655 q 391 775 342 775 l 535 768 q 633 777 595 768 q 680 787 671 787 q 695 761 695 787 q 691 724 695 736 q 682 703 687 712 q 667 687 677 694 q 649 676 656 680 q 627 669 642 672 q 606 665 612 666 q 561 662 592 662 "},"Ĩ":{"x_min":-14.921875,"x_max":1006.28125,"ha":389,"o":"m 692 983 l 724 984 q 741 971 741 984 q 740 965 741 967 q 134 30 416 488 q 108 2 120 6 q 101 0 107 2 q 54 -12 67 -12 q 39 -13 40 -12 q 24 -20 33 -20 q 13 -20 16 -20 q -2 -14 10 -19 q -14 -6 -14 -9 q -12 33 -14 26 q 144 304 2 81 q 434 740 286 528 q 613 978 581 953 q 638 985 622 985 l 692 983 m 786 1215 q 814 1187 798 1200 q 853 1175 829 1175 q 899 1186 876 1175 q 932 1209 922 1197 q 974 1243 958 1243 q 998 1227 990 1243 q 1006 1193 1006 1210 q 1001 1165 1006 1176 q 934 1093 978 1120 q 848 1066 890 1066 q 782 1079 807 1066 q 743 1106 756 1091 q 685 1147 705 1147 q 649 1139 665 1147 q 621 1118 633 1130 q 597 1093 609 1105 q 545 1064 570 1064 q 535 1072 540 1064 q 530 1091 530 1080 q 564 1171 530 1132 q 636 1233 597 1211 q 702 1254 675 1254 q 751 1242 728 1254 q 786 1215 774 1229 "},"ă":{"x_min":4.0625,"x_max":693.140625,"ha":566,"o":"m 559 515 q 611 480 611 515 q 602 452 611 461 q 564 393 593 443 q 500 266 535 343 q 455 133 465 188 q 453 114 453 126 q 474 77 453 77 q 522 96 494 77 q 571 138 550 115 q 614 183 593 160 q 638 209 634 206 q 651 212 642 212 q 666 193 663 212 q 669 152 669 173 q 665 123 669 131 q 578 30 645 84 q 457 -23 512 -23 q 377 9 402 -23 q 351 83 351 42 q 364 153 351 123 q 235 29 308 80 q 116 -21 162 -21 q 41 6 70 -21 q 4 102 4 41 q 31 226 4 164 q 103 339 59 288 q 202 432 148 390 q 409 520 314 520 q 469 508 446 520 q 498 478 492 496 q 525 509 514 502 q 559 515 537 515 m 469 440 q 229 311 353 440 q 148 200 185 265 q 111 112 111 136 q 124 88 111 88 q 230 163 143 88 q 345 274 317 238 q 469 440 377 313 m 277 817 q 285 841 277 829 q 309 852 294 852 q 336 839 324 852 q 362 797 348 827 q 382 756 375 767 q 405 737 388 745 q 447 729 423 729 q 499 742 472 729 q 546 774 526 755 q 583 811 566 792 q 657 856 626 856 q 679 840 665 856 q 693 814 693 824 q 680 783 693 805 q 643 733 667 761 q 591 680 620 706 q 451 619 523 619 q 327 678 378 619 q 277 817 277 737 "},"*":{"x_min":296.390625,"x_max":725.703125,"ha":509,"o":"m 500 682 q 417 567 431 567 q 395 576 408 567 q 380 595 381 585 q 423 689 379 605 q 320 673 344 673 q 296 685 296 673 q 436 784 296 738 l 414 813 q 386 845 398 823 q 374 884 374 868 q 383 913 374 900 q 410 926 392 926 q 463 886 429 926 l 503 830 q 543 919 526 873 q 600 954 559 954 q 626 948 617 954 q 635 931 635 942 q 586 830 635 920 q 693 864 679 851 q 707 874 700 874 q 720 862 714 874 q 725 840 725 849 q 586 729 725 769 q 619 680 610 699 q 629 635 629 661 q 617 588 629 609 q 587 567 606 567 q 557 591 569 567 q 500 682 529 634 "},"†":{"x_min":63.75,"x_max":786.734375,"ha":576,"o":"m 109 -166 l 92 -171 q 76 -167 88 -171 q 64 -159 65 -163 q 63 -142 63 -155 q 64 -127 63 -129 q 192 142 71 -91 q 443 613 313 376 q 336 609 383 609 l 326 609 q 290 618 307 609 q 274 637 274 626 q 284 659 274 649 q 296 674 294 669 q 332 708 301 689 q 381 729 364 727 q 510 735 460 734 q 635 940 618 925 q 653 946 641 946 l 689 945 l 718 946 q 733 934 733 946 q 710 892 733 931 q 626 739 688 853 l 688 739 q 740 735 732 739 q 759 718 748 731 q 778 697 769 704 q 786 677 786 691 q 769 652 786 663 q 732 640 751 641 l 565 623 q 171 -130 319 166 q 153 -151 164 -147 q 109 -166 122 -166 "},"∕":{"x_min":-105.125,"x_max":577.171875,"ha":228,"o":"m 564 847 q 577 825 577 847 q 576 795 577 803 q 574 781 575 788 q 573 772 573 775 q 570 762 572 769 q 565 750 568 754 q 419 574 555 726 q -46 14 158 282 q -54 1 -48 11 q -78 -18 -64 -18 q -105 43 -105 -18 q -99 90 -105 67 q -89 120 -93 113 q -84 128 -86 126 q 12 241 -80 132 q 289 553 105 350 q 507 794 474 756 q 544 835 540 832 q 550 841 548 838 q 564 847 560 847 "},"°":{"x_min":255.6875,"x_max":502.5625,"ha":278,"o":"m 502 746 q 459 629 502 682 q 344 575 415 575 q 277 599 299 575 q 255 659 255 624 q 276 730 255 695 q 314 763 297 765 q 415 822 344 822 q 478 800 455 822 q 502 746 502 778 m 344 730 q 322 660 322 691 q 343 629 322 629 q 380 642 364 629 q 402 675 395 655 q 417 743 417 713 q 402 773 417 773 q 385 761 392 773 q 370 737 377 749 q 358 725 364 725 q 344 730 352 725 "},"å":{"x_min":4.0625,"x_max":669.40625,"ha":566,"o":"m 559 515 q 611 480 611 515 q 602 452 611 461 q 564 393 593 443 q 500 266 535 343 q 455 133 465 188 q 453 114 453 126 q 474 77 453 77 q 522 96 494 77 q 571 138 550 115 q 614 183 593 160 q 638 209 634 206 q 651 212 642 212 q 666 193 663 212 q 669 152 669 173 q 665 123 669 131 q 578 30 645 84 q 457 -23 512 -23 q 377 9 402 -23 q 351 83 351 42 q 364 153 351 123 q 235 29 308 80 q 116 -21 162 -21 q 41 6 70 -21 q 4 102 4 41 q 31 226 4 164 q 103 339 59 288 q 202 432 148 390 q 409 520 314 520 q 469 508 446 520 q 498 478 492 496 q 525 509 514 502 q 559 515 537 515 m 469 440 q 229 311 353 440 q 148 200 185 265 q 111 112 111 136 q 124 88 111 88 q 230 163 143 88 q 345 274 317 238 q 469 440 377 313 m 507 876 q 577 888 507 888 q 634 865 612 888 q 656 806 656 843 q 628 721 656 770 q 537 630 600 672 q 452 605 500 605 q 378 633 403 605 q 353 694 353 660 q 507 876 353 822 m 430 719 q 471 689 430 689 q 542 719 512 689 q 573 777 573 748 q 566 791 573 786 q 556 798 560 795 q 544 804 552 800 q 533 808 537 807 q 512 816 526 811 q 463 793 497 817 q 430 719 430 769 "},"0":{"x_min":39.890625,"x_max":756.9375,"ha":593,"o":"m 756 728 q 749 671 757 716 q 697 559 741 627 q 698 546 697 556 q 695 517 699 537 q 665 446 691 498 q 599 333 639 394 q 505 210 559 272 q 395 96 451 147 q 274 13 338 46 q 157 -18 209 -18 q 73 13 105 -18 q 40 102 42 44 q 68 241 37 160 q 151 403 99 322 q 270 563 202 484 q 408 702 339 642 q 548 800 478 763 q 662 837 618 837 q 731 806 706 837 q 756 728 755 775 m 164 153 q 204 99 165 99 q 301 144 243 99 q 531 396 399 220 q 473 375 495 375 q 439 391 451 375 q 427 436 427 407 q 446 474 426 465 q 585 577 531 507 q 638 709 640 647 q 607 731 636 731 q 509 671 578 731 q 371 526 440 611 q 243 345 302 442 q 166 179 183 247 q 164 153 162 167 "},"ō":{"x_min":14.25,"x_max":692.46875,"ha":509,"o":"m 502 516 q 544 498 522 516 q 565 442 565 480 q 539 344 565 404 q 466 222 512 284 q 365 106 420 160 q 245 16 309 51 q 129 -18 181 -18 q 45 14 77 -18 q 14 106 14 47 q 43 236 14 164 q 117 361 71 307 q 215 459 162 416 q 409 548 326 548 q 465 530 446 548 q 472 519 472 524 l 472 515 q 502 516 482 516 m 434 426 l 429 426 q 405 461 405 426 q 301 404 356 444 q 204 307 247 363 q 116 120 118 196 q 144 82 116 82 q 227 118 172 82 q 336 223 282 155 q 416 340 389 290 q 443 408 443 390 q 434 426 443 426 m 558 686 l 478 686 q 352 679 402 686 q 339 706 339 679 q 388 798 339 798 l 533 792 q 630 801 592 792 q 677 811 668 811 q 692 785 692 811 q 688 748 692 760 q 679 727 684 735 q 664 711 674 718 q 647 700 653 704 q 624 693 640 696 q 603 689 609 690 q 558 686 590 686 "},"”":{"x_min":292.3125,"x_max":692.46875,"ha":402,"o":"m 428 907 q 481 887 464 907 q 497 836 497 868 q 475 773 497 804 q 407 709 452 743 q 340 676 362 676 q 310 684 318 676 q 297 693 301 692 q 292 705 292 695 q 297 720 292 716 q 325 755 303 724 q 351 797 347 787 q 340 830 340 807 q 366 880 340 853 q 428 907 392 907 m 626 904 q 676 884 659 904 q 692 832 692 863 q 671 770 692 801 q 609 706 650 739 q 548 673 568 673 q 519 681 528 673 q 507 691 511 689 q 503 702 503 692 q 507 717 503 713 q 532 753 512 721 q 555 794 552 784 q 544 828 544 805 q 568 878 544 851 q 626 904 592 904 "},"ŵ":{"x_min":25.765625,"x_max":863.375,"ha":769,"o":"m 746 503 l 738 536 q 757 580 738 564 q 806 596 777 596 q 863 523 863 596 q 811 379 863 471 q 690 201 760 287 q 541 52 619 115 q 420 -10 462 -10 q 360 12 377 -10 q 342 56 342 35 q 344 96 342 78 q 381 223 352 163 q 225 53 308 128 q 85 -22 141 -22 q 42 -6 58 -22 q 25 49 25 10 q 72 195 25 88 q 162 368 119 303 q 134 358 146 358 q 108 372 122 358 q 94 392 94 385 q 105 414 94 400 q 183 484 115 428 q 276 540 250 540 q 323 531 301 540 q 346 504 346 521 q 252 311 346 488 q 158 119 158 134 q 159 117 158 117 q 301 262 173 117 q 502 501 429 407 q 533 518 512 518 l 539 517 l 576 524 q 593 518 585 524 q 602 505 602 511 q 578 457 602 500 q 499 292 554 413 q 445 123 445 172 q 454 111 445 111 q 561 204 480 111 q 695 383 643 297 q 746 503 746 468 m 765 624 q 745 606 765 606 q 711 611 725 606 q 686 627 696 616 q 667 649 675 638 q 653 677 659 659 q 642 707 646 695 q 632 740 638 719 q 623 770 626 760 q 505 671 580 727 q 397 616 430 616 q 382 631 382 616 q 388 659 382 646 q 411 688 395 672 q 438 714 427 704 q 474 745 449 725 q 607 867 564 817 q 644 881 615 881 q 691 862 673 881 q 715 820 710 843 q 725 772 720 798 q 730 741 729 745 q 738 721 732 737 q 748 696 744 705 q 756 672 751 687 q 765 624 765 643 "},"Ķ":{"x_min":18.984375,"x_max":1273.03125,"ha":996,"o":"m 1162 982 l 1186 975 q 1273 923 1273 962 q 1264 905 1273 912 q 1021 728 1173 823 q 495 448 789 583 q 756 266 591 394 q 1028 103 977 103 q 1058 112 1045 103 q 1072 122 1070 122 q 1083 111 1083 122 q 1061 57 1083 102 q 1022 -1 1038 12 q 971 -15 1006 -15 q 879 18 937 -15 q 753 103 822 52 q 617 207 685 154 q 386 364 446 339 q 171 23 177 34 q 157 4 166 11 q 145 -2 147 -2 l 115 -6 l 92 -5 q 78 -8 82 -5 q 69 -12 74 -11 q 61 -17 65 -14 q 51 -20 58 -20 q 31 -9 44 -20 q 18 10 18 2 q 28 38 18 18 q 278 416 38 59 l 265 416 q 220 441 220 416 q 243 490 220 465 q 288 515 265 515 q 339 511 311 515 q 537 808 467 700 q 387 734 458 734 q 334 757 354 734 q 314 811 314 781 q 329 859 314 841 q 359 886 345 878 q 379 893 373 893 q 384 888 384 893 l 379 872 q 408 862 379 862 q 489 894 437 862 q 592 959 541 927 q 667 991 642 991 q 700 985 692 991 q 714 978 708 980 q 725 973 720 976 q 731 964 729 969 q 741 953 734 959 q 749 937 749 947 q 744 918 749 927 q 532 590 657 788 q 916 814 700 677 q 1150 975 1133 950 q 1162 982 1155 982 m 532 -162 q 473 -270 532 -213 q 366 -327 413 -327 q 344 -319 353 -327 q 331 -309 336 -311 q 326 -298 326 -308 q 330 -284 326 -287 q 345 -277 333 -282 q 370 -267 358 -273 q 402 -231 402 -252 q 388 -208 402 -224 q 373 -175 373 -191 q 401 -118 373 -140 q 464 -96 429 -96 q 515 -115 499 -96 q 532 -162 532 -135 "},"ö":{"x_min":14.25,"x_max":703.3125,"ha":509,"o":"m 502 516 q 544 498 522 516 q 565 442 565 480 q 539 344 565 404 q 466 222 512 284 q 365 106 420 160 q 245 16 309 51 q 129 -18 181 -18 q 45 14 77 -18 q 14 106 14 47 q 43 236 14 164 q 117 361 71 307 q 215 459 162 416 q 409 548 326 548 q 465 530 446 548 q 472 519 472 524 l 472 515 q 502 516 482 516 m 434 426 l 429 426 q 405 461 405 426 q 301 404 356 444 q 204 307 247 363 q 116 120 118 196 q 144 82 116 82 q 227 118 172 82 q 336 223 282 155 q 416 340 389 290 q 443 408 443 390 q 434 426 443 426 m 648 816 q 688 804 672 816 q 703 757 703 791 q 668 686 703 722 q 588 649 633 649 q 549 664 562 649 q 536 697 536 679 q 543 732 536 714 q 564 769 551 750 q 601 802 577 788 q 648 816 624 816 m 479 759 q 447 688 479 726 q 374 649 415 649 q 333 706 333 649 q 359 781 333 742 q 430 820 385 820 q 464 806 449 820 q 479 759 479 792 "},"ǽ":{"x_min":4.0625,"x_max":832.171875,"ha":764,"o":"m 599 478 q 763 548 682 548 q 809 537 786 548 q 832 507 832 526 q 795 428 832 462 q 713 394 759 394 q 693 401 698 394 q 689 420 689 408 q 691 442 689 432 q 638 418 667 434 q 553 358 609 401 q 498 298 498 314 q 514 293 498 293 q 574 314 530 293 q 632 335 619 335 q 649 333 645 335 q 668 313 658 328 q 678 287 678 297 q 653 257 678 278 q 576 226 628 236 q 479 180 524 216 q 435 116 435 143 q 538 66 435 66 q 654 103 596 66 q 743 166 704 134 q 793 206 783 198 q 809 213 804 213 q 827 174 827 213 q 822 122 827 134 q 795 91 817 109 q 520 -26 650 -26 q 388 33 415 -26 q 313 -8 358 -8 q 269 27 269 -8 q 283 53 269 31 q 112 -21 196 -21 q 33 15 63 -21 q 4 108 4 52 q 31 226 4 164 q 103 339 59 288 q 202 432 148 390 q 409 520 314 520 q 469 508 446 520 q 498 478 492 496 q 525 509 514 502 q 560 515 537 515 q 596 507 583 515 q 599 478 609 499 m 469 440 q 229 311 353 440 q 148 200 185 265 q 111 112 111 136 q 124 88 111 88 q 155 95 137 88 q 204 120 174 102 q 363 287 273 162 q 469 440 447 411 m 749 707 q 647 642 731 689 q 544 596 564 596 q 524 613 524 596 q 527 626 524 619 q 572 698 542 666 q 636 758 601 730 q 698 806 672 787 q 735 834 725 824 q 749 855 745 843 q 767 868 754 868 q 793 844 781 868 q 806 800 806 821 q 749 707 806 744 "},"Ļ":{"x_min":-101.734375,"x_max":1204.53125,"ha":1001,"o":"m 376 84 q 75 -27 250 -27 q -75 16 -30 -27 q -101 103 -101 41 q 42 225 -101 198 q 151 234 88 234 q 326 210 215 234 q 466 404 385 276 q 596 601 548 532 q 704 742 643 670 q 830 873 764 815 q 1094 992 963 992 q 1178 963 1152 992 q 1204 893 1204 933 q 1167 799 1204 853 q 1082 704 1130 746 q 986 634 1033 663 q 912 605 939 605 q 865 628 885 605 q 845 673 845 651 q 851 702 845 694 q 863 711 857 711 q 870 704 869 711 q 940 746 892 710 q 1027 820 988 781 q 1066 869 1066 859 q 1054 878 1066 878 q 1022 870 1043 878 q 968 837 1002 862 q 895 771 934 811 q 683 502 800 676 q 607 387 656 463 q 462 179 505 235 q 959 87 810 87 q 1056 105 1028 87 q 1070 111 1066 111 q 1073 105 1073 111 q 1067 89 1073 100 q 1037 43 1061 78 q 1001 1 1013 8 q 888 -18 968 -18 q 736 -6 809 -18 q 620 15 664 4 q 490 52 576 27 q 376 84 403 77 m 128 126 q 40 105 40 126 q 55 90 40 96 q 91 84 70 84 q 218 119 157 84 q 128 126 166 126 m 514 -162 q 455 -270 514 -213 q 348 -327 396 -327 q 327 -319 335 -327 q 314 -309 318 -311 q 309 -298 309 -308 q 312 -284 309 -287 q 328 -277 316 -282 q 352 -267 340 -273 q 385 -231 385 -252 q 370 -208 385 -224 q 356 -175 356 -191 q 383 -118 356 -140 q 446 -96 411 -96 q 498 -115 481 -96 q 514 -162 514 -135 "},"Õ":{"x_min":115.296875,"x_max":1210.28125,"ha":886,"o":"m 1002 908 q 1071 878 1038 908 q 1105 811 1105 848 q 1087 716 1105 775 q 1035 591 1068 657 q 955 454 1003 525 q 853 317 908 383 q 732 190 798 250 q 598 85 666 130 q 309 -12 450 -12 q 222 13 260 -12 q 163 64 184 39 q 115 224 115 122 q 182 463 115 326 q 367 724 250 601 q 629 924 484 846 q 905 1003 774 1003 q 954 991 931 1003 q 977 964 977 980 q 969 939 977 949 q 955 918 962 929 q 944 902 948 907 q 1002 908 966 908 m 749 594 q 739 581 749 581 q 700 614 730 581 q 670 669 670 647 q 740 788 670 721 q 897 889 811 854 q 676 808 802 883 q 457 627 551 733 q 304 405 362 520 q 246 218 246 290 q 266 142 246 174 q 333 111 286 111 q 446 143 380 111 q 576 229 513 176 q 915 637 793 413 q 965 765 965 729 q 955 779 965 779 q 876 743 927 779 q 786 665 826 708 q 747 603 747 622 l 749 594 m 990 1233 q 1018 1205 1002 1218 q 1057 1193 1033 1193 q 1103 1204 1080 1193 q 1136 1227 1126 1215 q 1178 1261 1162 1261 q 1202 1245 1194 1261 q 1210 1211 1210 1228 q 1205 1183 1210 1194 q 1138 1111 1182 1138 q 1052 1084 1094 1084 q 986 1097 1011 1084 q 947 1124 960 1109 q 889 1165 909 1165 q 853 1157 869 1165 q 825 1136 837 1148 q 801 1111 813 1123 q 749 1082 774 1082 q 739 1090 744 1082 q 734 1109 734 1098 q 768 1189 734 1150 q 840 1251 801 1229 q 906 1272 879 1272 q 955 1260 932 1272 q 990 1233 978 1247 "},"ć":{"x_min":30.515625,"x_max":719.59375,"ha":507,"o":"m 483 150 q 528 181 518 172 q 552 201 538 189 q 574 212 565 212 q 588 182 588 212 q 557 115 588 151 q 482 55 527 80 q 387 12 438 30 q 215 -25 286 -25 q 87 21 144 -25 q 30 142 30 67 q 67 292 30 217 q 163 424 105 367 q 300 516 222 480 q 453 551 377 551 q 519 530 490 551 q 548 472 548 509 q 512 384 548 436 q 438 333 476 333 q 395 375 395 333 q 415 413 395 385 q 436 451 436 441 q 428 461 436 461 q 348 435 391 461 q 270 381 305 409 q 204 317 236 352 q 137 158 137 240 q 158 100 137 124 q 230 76 179 76 q 331 88 280 76 q 415 114 382 100 q 483 150 448 128 m 662 743 q 560 678 644 725 q 457 632 477 632 q 437 649 437 632 q 440 662 437 655 q 485 734 455 701 q 550 794 514 766 q 611 842 585 823 q 648 870 638 860 q 662 891 658 879 q 680 904 667 904 q 707 880 694 904 q 719 836 719 857 q 662 743 719 780 "},"þ":{"x_min":-270.59375,"x_max":600.578125,"ha":543,"o":"m 565 961 l 578 963 q 594 945 588 963 q 600 921 600 927 q 587 898 600 915 l 246 364 q 453 512 348 465 q 526 530 494 530 q 579 509 559 530 q 599 455 599 487 q 582 377 599 423 q 534 277 564 330 q 461 170 504 224 q 371 73 418 117 q 268 3 323 30 q 170 -23 212 -23 q 85 54 85 -23 q -97 -233 6 -67 q -208 -408 -201 -399 q -221 -418 -216 -418 q -236 -412 -226 -418 q -258 -392 -247 -406 q -270 -350 -270 -377 q -254 -295 -270 -323 q 174 403 -157 -133 q 528 954 506 940 q 553 962 540 962 l 565 961 m 478 409 q 464 423 478 423 q 309 311 428 423 q 121 105 191 198 q 173 84 139 84 q 263 121 208 84 q 365 209 318 158 q 445 317 412 261 q 478 409 478 373 "},"]":{"x_min":-113.265625,"x_max":774.53125,"ha":509,"o":"m 659 1039 q 600 1052 659 1052 l 562 1052 q 536 1052 547 1052 q 518 1050 525 1051 q 501 1048 512 1049 q 479 1044 491 1047 q 461 1041 467 1041 q 432 1109 432 1041 q 470 1176 432 1176 l 697 1169 q 751 1138 736 1169 q 769 1075 763 1112 q 774 1018 774 1039 q 750 945 774 997 q 580 569 726 893 q 398 171 434 244 q 310 -14 362 97 q 225 -185 257 -126 q 104 -215 210 -215 q -35 -209 41 -215 q -113 -178 -113 -203 q -90 -116 -113 -153 q -50 -79 -67 -80 q 36 -88 -21 -79 q 143 -96 94 -96 q 650 1011 499 652 q 659 1039 659 1034 "},"ẁ":{"x_min":25.765625,"x_max":863.375,"ha":769,"o":"m 746 503 l 738 536 q 757 580 738 564 q 806 596 777 596 q 863 523 863 596 q 811 379 863 471 q 690 201 760 287 q 541 52 619 115 q 420 -10 462 -10 q 360 12 377 -10 q 342 56 342 35 q 344 96 342 78 q 381 223 352 163 q 225 53 308 128 q 85 -22 141 -22 q 42 -6 58 -22 q 25 49 25 10 q 72 195 25 88 q 162 368 119 303 q 134 358 146 358 q 108 372 122 358 q 94 392 94 385 q 105 414 94 400 q 183 484 115 428 q 276 540 250 540 q 323 531 301 540 q 346 504 346 521 q 252 311 346 488 q 158 119 158 134 q 159 117 158 117 q 301 262 173 117 q 502 501 429 407 q 533 518 512 518 l 539 517 l 576 524 q 593 518 585 524 q 602 505 602 511 q 578 457 602 500 q 499 292 554 413 q 445 123 445 172 q 454 111 445 111 q 561 204 480 111 q 695 383 643 297 q 746 503 746 468 m 559 629 q 540 606 559 606 q 507 611 520 606 q 485 628 494 617 q 472 647 477 639 q 462 670 467 655 q 446 703 456 684 q 414 756 436 723 q 381 804 392 788 q 370 832 370 820 q 402 863 370 845 q 453 881 434 881 q 477 879 472 881 q 486 872 482 877 q 493 862 490 867 q 499 845 495 856 q 505 823 503 833 q 534 727 521 765 q 559 629 559 652 "},"ĭ":{"x_min":6.78125,"x_max":560.890625,"ha":281,"o":"m 373 152 q 369 123 373 132 q 263 13 336 55 q 137 -27 191 -27 q 45 8 84 -27 q 6 81 6 44 q 44 189 6 118 q 118 321 81 261 q 155 386 155 381 q 142 406 155 392 q 128 428 128 421 q 156 466 128 436 q 224 525 184 496 q 286 555 265 555 q 324 536 307 555 q 341 501 341 517 q 180 208 341 486 q 169 190 178 204 q 154 167 160 176 q 143 145 149 158 q 129 99 129 118 q 160 76 129 76 q 225 98 191 76 q 283 145 259 119 q 356 213 347 213 q 373 152 373 213 m 145 849 q 153 872 145 860 q 177 883 162 883 q 204 871 191 883 q 229 828 216 858 q 249 787 243 798 q 273 768 256 776 q 315 760 290 760 q 367 773 339 760 q 414 805 394 786 q 451 842 434 824 q 524 887 494 887 q 546 871 533 887 q 560 845 560 855 q 548 814 560 836 q 511 765 535 792 q 459 711 488 737 q 318 650 391 650 q 195 709 246 650 q 145 849 145 769 "},"8":{"x_min":13.5625,"x_max":869.484375,"ha":556,"o":"m 793 817 l 826 819 q 859 815 850 819 q 869 793 869 811 q 849 756 869 774 q 783 705 828 738 q 700 644 737 672 q 568 540 664 616 q 439 439 472 464 l 437 433 q 464 397 443 425 q 495 356 486 369 q 522 270 522 313 l 522 257 q 482 143 516 196 q 398 54 448 89 q 171 -21 290 -21 q 37 27 82 -21 q 13 94 13 54 q 47 199 16 145 q 122 297 78 252 q 290 438 200 376 q 257 564 257 497 q 258 581 257 569 q 309 710 269 648 q 411 810 350 771 q 536 849 472 849 q 650 793 621 849 q 657 769 657 776 q 638 711 657 761 q 701 757 642 715 q 793 817 785 817 m 355 353 q 338 366 345 365 q 168 198 215 269 q 166 104 125 131 q 219 92 186 92 q 298 110 252 92 q 379 165 344 129 q 414 244 414 202 q 354 353 414 286 l 355 353 m 591 674 q 510 731 560 731 q 414 688 460 731 q 367 584 367 645 q 385 507 367 553 q 591 674 473 581 "},"R":{"x_min":230.59375,"x_max":1208.59375,"ha":1019,"o":"m 434 696 q 444 685 444 696 q 441 677 444 680 q 309 620 384 620 q 270 640 292 620 q 248 698 248 660 q 295 783 248 736 q 423 871 341 829 q 629 945 505 912 q 851 978 752 978 q 1012 962 949 978 q 1111 922 1075 946 q 1169 870 1146 899 q 1208 770 1208 821 q 1176 666 1208 720 q 1091 571 1143 613 q 972 493 1039 529 q 704 396 847 427 q 807 270 728 370 q 951 101 886 169 q 1053 33 1017 33 l 1075 42 q 1083 36 1083 42 q 1058 3 1083 30 q 1015 -38 1033 -24 q 965 -52 996 -52 q 893 -22 933 -52 q 806 63 853 8 q 720 168 758 119 q 634 284 682 217 q 567 375 585 351 q 532 321 560 364 q 491 257 504 278 q 454 198 478 237 q 416 135 430 159 q 364 41 379 72 q 316 10 349 10 l 293 10 l 272 10 q 230 45 230 10 q 253 121 230 71 q 494 487 276 170 q 735 827 712 805 q 768 851 757 848 q 779 857 776 857 l 791 855 l 803 857 q 813 852 809 857 q 820 845 818 847 q 849 810 849 824 q 842 783 849 796 q 803 723 834 769 q 719 603 771 677 q 644 497 667 530 q 777 531 699 499 q 924 605 855 562 q 1040 700 992 649 q 1089 790 1089 752 q 1068 827 1089 810 q 1015 853 1047 843 q 871 872 951 872 q 668 837 791 872 q 489 771 545 803 q 408 717 433 739 q 383 687 383 695 q 397 682 383 682 q 421 689 411 682 q 434 696 432 696 "},"ť":{"x_min":34.25,"x_max":789.453125,"ha":407,"o":"m 508 873 l 536 866 q 547 860 542 866 q 552 849 552 854 q 537 819 552 843 q 504 766 523 796 q 483 733 484 735 q 558 737 536 737 q 588 734 580 737 q 607 717 596 731 q 626 696 617 703 q 635 674 635 689 q 618 650 635 660 q 581 638 600 640 q 407 622 423 623 q 253 360 352 538 q 149 137 155 182 q 146 104 146 117 q 174 78 146 78 q 236 99 202 78 q 298 145 269 120 q 379 213 374 213 q 397 152 397 213 q 366 92 397 119 q 251 4 298 33 q 158 -25 204 -25 q 139 -23 147 -25 q 59 15 84 -13 q 34 95 33 45 q 64 217 34 145 q 138 369 93 288 q 284 616 211 501 l 259 613 q 167 604 180 604 l 161 604 q 123 612 141 604 q 105 631 105 619 q 114 653 105 642 q 126 670 124 664 q 162 704 131 685 q 208 723 193 722 q 239 725 224 724 q 271 726 253 725 q 299 727 289 727 l 360 730 q 438 840 417 815 q 463 867 459 864 q 476 869 466 869 l 508 873 m 720 1005 q 772 986 756 1005 q 789 934 789 966 q 766 872 789 902 q 698 808 744 841 q 632 774 653 774 q 601 782 610 774 q 588 792 593 790 q 583 803 583 793 q 589 818 583 813 q 616 854 594 822 q 642 895 638 885 q 632 928 632 906 q 658 978 632 951 q 720 1005 684 1005 "},"Ľ":{"x_min":-101.734375,"x_max":1440.546875,"ha":1061,"o":"m 376 84 q 75 -27 250 -27 q -75 16 -30 -27 q -101 103 -101 41 q 42 225 -101 198 q 151 234 88 234 q 326 210 215 234 q 466 404 385 276 q 596 601 548 532 q 704 742 643 670 q 830 873 764 815 q 1094 992 963 992 q 1178 963 1152 992 q 1204 893 1204 933 q 1167 799 1204 853 q 1082 704 1130 746 q 986 634 1033 663 q 912 605 939 605 q 865 628 885 605 q 845 673 845 651 q 851 702 845 694 q 863 711 857 711 q 870 704 869 711 q 940 746 892 710 q 1027 820 988 781 q 1066 869 1066 859 q 1054 878 1066 878 q 1022 870 1043 878 q 968 837 1002 862 q 895 771 934 811 q 683 502 800 676 q 607 387 656 463 q 462 179 505 235 q 959 87 810 87 q 1056 105 1028 87 q 1070 111 1066 111 q 1073 105 1073 111 q 1067 89 1073 100 q 1037 43 1061 78 q 1001 1 1013 8 q 888 -18 968 -18 q 736 -6 809 -18 q 620 15 664 4 q 490 52 576 27 q 376 84 403 77 m 128 126 q 40 105 40 126 q 55 90 40 96 q 91 84 70 84 q 218 119 157 84 q 128 126 166 126 m 1371 982 q 1423 962 1407 982 q 1440 910 1440 942 q 1417 848 1440 878 q 1350 784 1395 817 q 1283 750 1304 750 q 1253 758 1261 750 q 1239 768 1244 767 q 1235 780 1235 769 q 1240 794 1235 790 q 1267 830 1245 798 q 1294 872 1289 862 q 1283 905 1283 882 q 1309 954 1283 927 q 1371 982 1335 982 "},"Ż":{"x_min":54.265625,"x_max":1152.296875,"ha":854,"o":"m 421 952 q 591 923 421 923 q 791 931 672 923 q 935 948 910 939 q 977 970 960 956 q 1003 992 995 983 q 1060 1018 1025 1018 q 1123 1004 1095 1018 q 1152 968 1152 991 q 1132 922 1152 946 q 1091 883 1112 898 q 1043 852 1069 868 q 1013 833 1017 836 q 979 804 1009 830 q 575 435 851 697 q 238 112 299 173 q 438 146 313 129 q 669 163 562 163 q 833 140 776 163 q 891 62 891 118 q 879 7 891 35 q 859 -20 867 -20 q 853 -11 856 -20 q 848 -1 851 -3 q 734 19 816 19 q 456 3 651 19 q 213 -17 261 -12 q 151 -23 166 -23 q 81 6 108 -23 q 54 59 54 35 l 59 80 q 218 275 59 113 q 555 601 376 437 q 820 832 735 765 q 672 801 761 815 q 503 788 582 788 q 305 874 305 788 q 321 926 305 903 q 359 961 337 949 q 424 986 404 986 q 444 978 444 986 q 433 965 444 973 q 421 952 421 957 m 788 1241 q 828 1223 811 1241 q 845 1167 845 1205 q 812 1091 845 1129 q 724 1052 780 1052 q 681 1071 698 1052 q 665 1125 665 1089 q 698 1200 665 1160 q 788 1241 731 1241 "},"o":{"x_min":14.25,"x_max":565.640625,"ha":509,"o":"m 502 516 q 544 498 522 516 q 565 442 565 480 q 539 344 565 404 q 466 222 512 284 q 365 106 420 160 q 245 16 309 51 q 129 -18 181 -18 q 45 14 77 -18 q 14 106 14 47 q 43 236 14 164 q 117 361 71 307 q 215 459 162 416 q 409 548 326 548 q 465 530 446 548 q 472 519 472 524 l 472 515 q 502 516 482 516 m 434 426 l 429 426 q 405 461 405 426 q 301 404 356 444 q 204 307 247 363 q 116 120 118 196 q 144 82 116 82 q 227 118 172 82 q 336 223 282 155 q 416 340 389 290 q 443 408 443 390 q 434 426 443 426 "},"5":{"x_min":5.421875,"x_max":744.015625,"ha":539,"o":"m 421 790 q 691 823 478 803 q 725 794 706 823 q 744 753 744 765 q 740 726 744 741 q 731 706 736 710 q 710 697 726 702 q 671 689 695 693 q 626 681 648 685 q 571 675 603 678 q 518 670 538 672 q 419 662 458 664 q 305 472 382 603 q 389 478 339 478 q 486 451 440 478 q 536 362 532 424 q 507 233 536 296 q 432 125 478 171 q 330 44 385 80 q 122 -25 218 -25 q 5 82 5 -25 q 21 146 5 118 q 62 173 37 173 q 77 149 77 173 q 145 94 80 94 q 261 126 194 94 q 379 208 328 158 q 430 307 430 259 q 324 355 427 355 q 227 347 262 355 q 189 339 192 339 q 184 341 186 339 q 171 362 180 344 q 163 390 163 381 q 178 434 163 400 q 280 612 192 469 q 384 772 368 754 q 421 790 399 790 "},"ħ":{"x_min":-34.59375,"x_max":664.65625,"ha":546,"o":"m 302 677 q 215 672 242 676 q 203 699 203 672 q 252 792 203 792 q 365 788 286 792 q 409 865 370 797 q 490 987 448 933 q 590 1026 520 1026 q 607 1017 605 1026 q 609 998 609 1008 q 606 981 609 988 q 588 950 603 973 q 541 877 573 926 q 482 785 510 829 q 605 795 570 786 q 649 804 640 804 q 664 768 664 804 q 501 679 664 679 l 417 679 q 208 307 284 461 q 413 505 314 436 q 506 550 475 550 q 562 540 537 550 q 587 493 587 530 q 543 392 587 479 q 411 103 411 132 q 434 74 411 74 q 541 141 469 74 q 609 206 595 192 q 624 212 617 212 q 638 200 637 212 q 643 150 643 168 q 637 119 643 132 q 608 82 630 106 q 556 33 586 58 q 403 -25 481 -25 q 291 73 291 -25 q 441 417 291 160 q 448 430 446 426 q 249 230 396 394 q 52 0 101 67 q 32 -13 48 -6 q 7 -21 16 -21 q -12 -15 -2 -21 q -25 -9 -23 -9 q -34 -3 -34 -9 q -31 9 -34 2 q 302 677 97 311 "},"õ":{"x_min":14.25,"x_max":728.40625,"ha":509,"o":"m 502 516 q 544 498 522 516 q 565 442 565 480 q 539 344 565 404 q 466 222 512 284 q 365 106 420 160 q 245 16 309 51 q 129 -18 181 -18 q 45 14 77 -18 q 14 106 14 47 q 43 236 14 164 q 117 361 71 307 q 215 459 162 416 q 409 548 326 548 q 465 530 446 548 q 472 519 472 524 l 472 515 q 502 516 482 516 m 434 426 l 429 426 q 405 461 405 426 q 301 404 356 444 q 204 307 247 363 q 116 120 118 196 q 144 82 116 82 q 227 118 172 82 q 336 223 282 155 q 416 340 389 290 q 443 408 443 390 q 434 426 443 426 m 508 792 q 536 765 520 777 q 575 752 552 752 q 621 763 598 752 q 653 786 644 774 q 696 821 680 821 q 720 804 712 821 q 728 771 728 788 q 723 743 728 754 q 656 670 700 697 q 574 643 612 643 q 514 652 535 643 q 479 672 493 660 q 453 695 465 684 q 405 725 424 725 q 371 716 387 725 q 343 695 355 708 q 320 670 331 682 q 267 641 292 641 q 257 649 262 641 q 252 669 252 657 q 286 749 252 710 q 358 810 319 788 q 424 832 398 832 q 473 819 450 832 q 508 792 496 807 "},",":{"x_min":56.96875,"x_max":262.46875,"ha":330,"o":"m 193 100 q 245 80 229 100 q 262 29 262 61 q 239 -33 262 -2 q 171 -97 217 -63 q 105 -130 126 -130 q 74 -122 83 -130 q 61 -113 66 -114 q 56 -101 56 -111 q 62 -86 56 -90 q 89 -51 67 -82 q 115 -9 111 -19 q 105 23 105 0 q 131 73 105 46 q 193 100 157 100 "},"d":{"x_min":7.453125,"x_max":921.703125,"ha":572,"o":"m 893 1016 q 914 1008 906 1016 q 921 991 921 1000 q 908 960 921 983 q 847 861 895 937 q 773 741 800 785 q 532 318 619 491 q 444 109 444 145 l 444 104 q 465 76 444 76 q 514 95 485 76 q 564 136 543 114 q 608 181 586 158 q 635 208 630 204 q 647 212 640 212 q 662 198 659 212 q 666 157 666 183 q 661 123 666 131 q 575 30 642 85 q 448 -23 508 -23 q 347 62 347 -23 q 387 202 347 115 q 276 81 333 131 q 92 -10 170 -10 q 28 19 48 -10 q 7 107 7 50 q 52 244 7 164 q 163 388 96 324 q 311 496 230 453 q 461 539 393 539 q 512 512 483 539 q 585 637 532 543 q 805 979 751 917 q 893 1016 833 1016 m 471 448 q 289 358 373 427 q 163 213 205 288 q 121 115 121 137 q 130 92 121 92 q 332 274 171 92 q 471 448 412 364 "},"\"":{"x_min":323.515625,"x_max":733.84375,"ha":469,"o":"m 359 616 q 337 630 352 616 q 323 658 323 644 q 365 767 323 671 q 442 931 408 863 q 489 963 458 963 q 534 954 519 963 q 550 928 550 944 q 511 833 550 911 q 426 686 473 756 q 359 616 379 616 m 555 617 q 503 656 503 617 q 562 791 503 674 q 625 929 621 908 q 681 961 630 961 q 733 933 733 961 q 693 819 733 897 q 609 679 652 741 q 555 617 565 617 "},"˙":{"x_min":413.03125,"x_max":593.4375,"ha":555,"o":"m 536 805 q 576 787 559 805 q 593 731 593 769 q 560 655 593 693 q 472 616 528 616 q 429 635 446 616 q 413 689 413 653 q 446 764 413 724 q 536 805 479 805 "},"ê":{"x_min":10.859375,"x_max":651.765625,"ha":441,"o":"m 508 507 q 472 428 508 462 q 389 394 436 394 q 370 401 375 394 q 365 420 365 408 q 368 442 365 432 q 314 417 343 434 q 240 367 284 400 q 197 318 197 334 q 213 312 197 312 q 262 323 229 312 q 308 335 295 335 q 326 333 322 335 q 345 313 335 328 q 355 287 355 297 q 337 263 355 278 q 297 241 320 248 q 267 229 275 233 q 124 119 124 149 q 215 66 124 66 q 330 103 272 66 q 420 166 380 134 q 470 206 459 198 q 486 213 480 213 q 503 174 503 213 q 499 122 503 134 q 472 91 494 109 q 197 -26 326 -26 q 86 -7 128 -26 q 10 98 10 27 q 140 240 10 191 q 107 269 114 251 q 99 327 99 287 q 136 411 99 366 q 227 484 173 455 q 440 548 346 548 q 485 537 462 548 q 508 507 508 526 m 651 649 q 631 630 651 630 q 597 635 611 630 q 572 651 582 640 q 553 673 561 662 q 539 702 545 684 q 528 732 532 720 q 518 764 524 744 q 510 794 512 785 q 391 696 466 751 q 283 640 316 640 q 268 655 268 640 q 275 683 268 670 q 297 713 281 697 q 324 739 313 729 q 360 769 335 749 q 493 891 451 842 q 530 906 501 906 q 577 886 559 906 q 601 845 596 867 q 611 796 607 823 q 616 765 615 769 q 624 745 618 761 q 634 720 630 729 q 642 697 637 712 q 651 649 651 668 "},"„":{"x_min":-112.578125,"x_max":287.5625,"ha":370,"o":"m 23 100 q 76 80 59 100 q 92 29 92 61 q 70 -33 92 -2 q 2 -97 47 -63 q -64 -130 -42 -130 q -94 -122 -86 -130 q -107 -113 -103 -114 q -112 -101 -112 -111 q -107 -86 -112 -90 q -79 -51 -101 -82 q -53 -9 -57 -19 q -64 23 -64 0 q -38 73 -64 46 q 23 100 -12 100 m 221 97 q 271 76 255 97 q 287 25 287 56 q 266 -36 287 -5 q 204 -100 245 -67 q 143 -133 163 -133 q 114 -125 123 -133 q 102 -115 106 -117 q 98 -104 98 -114 q 103 -89 98 -93 q 127 -53 107 -85 q 150 -12 147 -22 q 139 21 139 -1 q 163 71 139 44 q 221 97 187 97 "},"ľ":{"x_min":67.828125,"x_max":896.609375,"ha":530,"o":"m 604 1018 q 661 998 636 1018 q 686 941 686 979 q 644 822 686 903 q 543 656 602 741 q 409 477 484 572 q 183 206 291 326 q 177 176 182 198 q 172 132 172 154 q 192 91 172 109 q 244 73 213 73 q 309 95 274 73 q 370 143 344 117 q 454 213 438 213 q 470 164 470 213 l 470 150 q 461 111 470 124 q 333 7 404 42 q 198 -26 261 -26 q 101 12 134 -26 q 67 119 67 51 q 138 430 67 251 q 298 734 209 609 q 604 1018 498 1018 m 573 905 q 567 915 573 915 q 442 779 543 915 q 296 563 341 644 q 210 360 250 482 q 432 656 290 455 q 573 905 573 857 m 827 1003 q 879 984 863 1003 q 896 932 896 964 q 873 870 896 900 q 806 806 851 839 q 739 772 760 772 q 709 780 717 772 q 695 790 700 788 q 691 802 691 791 q 696 816 691 812 q 724 852 701 820 q 750 893 746 883 q 739 926 739 904 q 765 976 739 949 q 827 1003 791 1003 "},"Â":{"x_min":40.6875,"x_max":1239.71875,"ha":816,"o":"m 947 951 q 977 998 968 998 l 980 998 q 1022 976 990 998 q 1053 935 1053 954 q 879 526 1053 909 q 680 96 706 143 q 645 34 655 50 q 619 0 636 18 q 547 -35 590 -35 q 516 -40 529 -35 q 499 -44 502 -44 q 478 -34 478 -44 q 483 -17 478 -32 q 638 311 489 -3 q 358 320 479 317 q 148 15 242 174 q 126 -15 137 -6 q 99 -25 116 -25 q 61 -7 81 -25 q 40 34 40 10 q 215 324 40 102 q 111 320 133 324 q 83 316 89 316 q 65 347 65 316 q 101 401 65 378 q 198 425 137 425 q 215 425 203 425 q 301 429 257 427 q 611 751 449 602 q 890 959 772 900 q 920 968 909 969 q 947 951 931 968 m 900 855 q 447 429 652 668 q 690 419 567 426 q 900 855 813 678 m 1239 1085 q 1219 1066 1239 1066 q 1185 1072 1199 1066 q 1160 1087 1170 1077 q 1141 1109 1149 1098 q 1127 1138 1133 1120 q 1116 1168 1120 1156 q 1106 1200 1112 1180 q 1097 1231 1100 1221 q 979 1132 1054 1187 q 871 1077 904 1077 q 856 1092 856 1077 q 862 1120 856 1106 q 885 1149 869 1133 q 912 1175 901 1165 q 948 1205 923 1185 q 1081 1328 1038 1278 q 1118 1342 1089 1342 q 1165 1322 1147 1342 q 1189 1281 1184 1303 q 1199 1232 1194 1259 q 1204 1201 1203 1205 q 1212 1181 1206 1197 q 1222 1157 1218 1165 q 1230 1134 1225 1148 q 1239 1085 1239 1104 "},"Į":{"x_min":-89.53125,"x_max":741.96875,"ha":389,"o":"m 692 983 l 724 984 q 741 971 741 984 q 740 965 741 967 q 134 30 416 488 q 108 2 120 6 q 105 1 107 2 q 96 -1 102 0 q 84 -4 90 -2 q 60 -35 80 -10 q 28 -76 40 -61 q -6 -139 -6 -121 q 2 -164 -6 -158 q 95 -140 37 -164 q 167 -116 153 -116 q 177 -139 177 -116 q 172 -174 177 -161 q 100 -243 150 -217 q -14 -269 50 -269 q -65 -239 -40 -269 q -89 -178 -89 -208 q -62 -98 -89 -147 q -3 -14 -35 -48 q -14 -6 -14 -8 q -12 33 -14 26 q 144 304 2 81 q 434 740 286 528 q 613 978 581 953 q 638 985 622 985 l 692 983 "},"ė":{"x_min":10.859375,"x_max":548.6875,"ha":441,"o":"m 508 507 q 472 428 508 462 q 389 394 436 394 q 370 401 375 394 q 365 420 365 408 q 368 442 365 432 q 314 417 343 434 q 240 367 284 400 q 197 318 197 334 q 213 312 197 312 q 262 323 229 312 q 308 335 295 335 q 326 333 322 335 q 345 313 335 328 q 355 287 355 297 q 337 263 355 278 q 297 241 320 248 q 267 229 275 233 q 124 119 124 149 q 215 66 124 66 q 330 103 272 66 q 420 166 380 134 q 470 206 459 198 q 486 213 480 213 q 503 174 503 213 q 499 122 503 134 q 472 91 494 109 q 197 -26 326 -26 q 86 -7 128 -26 q 10 98 10 27 q 140 240 10 191 q 107 269 114 251 q 99 327 99 287 q 136 411 99 366 q 227 484 173 455 q 440 548 346 548 q 485 537 462 548 q 508 507 508 526 m 491 832 q 531 814 514 832 q 548 759 548 796 q 516 682 548 721 q 427 644 483 644 q 384 662 401 644 q 368 716 368 681 q 401 792 368 752 q 491 832 434 832 "},"Ţ":{"x_min":141.75,"x_max":1194.34375,"ha":787,"o":"m 361 215 l 358 201 q 361 193 358 197 q 370 190 365 190 q 379 196 376 190 q 547 432 480 330 q 644 582 613 534 q 693 659 675 630 q 790 792 742 733 q 503 746 607 746 q 354 759 400 746 q 295 789 309 773 q 280 823 280 806 q 282 857 280 841 q 323 912 284 891 q 386 934 361 934 q 411 927 411 934 q 400 907 411 919 q 389 889 389 894 q 545 868 389 868 q 906 909 702 868 q 1107 1004 1022 1004 q 1182 972 1163 1004 q 1194 934 1194 953 q 1172 896 1194 915 q 1112 864 1150 877 q 952 825 1045 839 q 843 671 914 775 q 746 530 772 567 q 663 400 720 493 q 564 238 606 306 q 474 103 522 170 q 301 -33 377 -33 q 246 -16 269 -33 q 223 38 223 0 q 266 134 223 77 q 328 208 308 191 q 354 224 347 224 q 361 215 361 224 m 347 -183 q 287 -290 347 -233 q 181 -347 228 -347 q 159 -339 168 -347 q 146 -330 151 -331 q 141 -318 141 -328 q 145 -305 141 -307 q 160 -298 148 -302 q 184 -288 172 -293 q 217 -252 217 -273 q 203 -228 217 -244 q 188 -196 188 -212 q 216 -138 188 -160 q 279 -116 244 -116 q 330 -136 314 -116 q 347 -183 347 -155 "},"Í":{"x_min":-14.921875,"x_max":986.796875,"ha":389,"o":"m 692 983 l 724 984 q 741 971 741 984 q 740 965 741 967 q 134 30 416 488 q 108 2 120 6 q 101 0 107 2 q 54 -12 67 -12 q 39 -13 40 -12 q 24 -20 33 -20 q 13 -20 16 -20 q -2 -14 10 -19 q -14 -6 -14 -9 q -12 33 -14 26 q 144 304 2 81 q 434 740 286 528 q 613 978 581 953 q 638 985 622 985 l 692 983 m 929 1163 q 828 1098 911 1145 q 724 1051 744 1051 q 704 1069 704 1051 q 708 1082 704 1075 q 752 1154 722 1121 q 817 1214 781 1186 q 878 1261 852 1243 q 915 1289 905 1280 q 929 1311 925 1299 q 948 1323 934 1323 q 974 1300 961 1323 q 986 1256 986 1277 q 929 1163 986 1200 "},"´":{"x_min":390.65625,"x_max":672.796875,"ha":555,"o":"m 615 714 q 514 649 597 696 q 410 602 430 602 q 390 620 390 602 q 394 633 390 626 q 438 705 408 672 q 503 765 467 737 q 564 812 538 794 q 601 840 591 831 q 615 862 611 850 q 634 874 620 874 q 660 851 647 874 q 672 807 672 828 q 615 714 672 751 "},"Ú":{"x_min":130.21875,"x_max":1275.734375,"ha":1028,"o":"m 1069 375 q 1087 326 1087 375 q 1081 262 1087 278 q 987 145 1061 210 q 824 35 912 80 q 678 -9 735 -9 q 633 11 651 -9 q 614 66 614 32 q 683 250 614 126 q 851 510 752 375 q 619 253 687 320 q 497 140 551 187 q 401 64 444 92 q 240 -2 299 -2 q 155 30 180 -2 q 130 103 130 63 q 267 433 130 220 q 520 780 404 645 q 385 694 422 694 q 330 717 348 694 q 311 768 311 739 q 339 823 311 797 q 378 848 366 848 q 391 846 391 848 q 381 831 391 844 q 370 814 370 819 q 379 809 370 809 q 495 863 406 809 q 647 967 583 916 q 686 982 663 982 q 728 971 708 982 q 739 969 729 974 q 760 954 750 965 q 770 935 770 944 q 765 919 770 927 q 410 444 482 554 q 263 152 263 219 q 283 128 263 128 q 396 204 303 128 q 1110 937 651 412 q 1145 956 1129 958 l 1151 956 q 1166 959 1154 956 q 1207 961 1179 961 q 1275 936 1275 961 q 1255 898 1275 925 q 1172 781 1235 871 q 1015 554 1109 692 q 853 301 921 417 q 785 155 785 186 q 787 154 785 154 q 809 164 790 154 q 945 261 867 194 q 1044 351 1024 327 q 1069 375 1065 375 m 1172 1147 q 1071 1082 1154 1129 q 967 1035 987 1035 q 947 1053 947 1035 q 951 1066 947 1059 q 995 1138 965 1105 q 1060 1198 1024 1170 q 1121 1245 1095 1227 q 1158 1273 1148 1264 q 1172 1295 1168 1283 q 1191 1307 1177 1307 q 1217 1284 1204 1307 q 1229 1240 1229 1261 q 1172 1147 1229 1184 "},"Ŷ":{"x_min":115.96875,"x_max":1207.921875,"ha":924,"o":"m 1141 942 l 1167 943 q 1193 933 1178 943 q 1207 915 1207 923 q 1047 642 1204 900 q 509 -263 558 -160 q 564 -211 534 -237 q 598 -186 594 -186 q 606 -190 602 -186 q 610 -199 610 -195 q 604 -210 610 -204 q 561 -264 598 -217 q 507 -331 525 -311 q 476 -374 490 -352 q 452 -406 462 -397 q 428 -416 442 -416 q 359 -380 387 -416 q 330 -320 330 -345 q 532 49 330 -273 q 888 591 734 372 q 321 39 532 170 q 202 -6 248 -6 q 157 6 179 -6 q 125 38 135 18 q 115 108 115 58 q 159 253 115 159 q 271 456 202 348 q 495 786 392 649 q 346 704 404 704 q 311 711 320 704 q 288 736 303 719 q 274 772 274 752 q 281 804 274 792 q 294 822 288 815 q 324 849 317 845 q 340 853 330 853 q 350 850 350 853 q 343 840 350 847 q 336 831 336 834 q 343 828 336 828 q 362 831 351 828 q 393 845 374 835 q 426 863 411 855 q 472 890 442 872 q 519 916 503 908 q 565 948 535 925 q 611 979 596 971 q 652 988 636 994 q 677 980 668 982 q 694 974 687 978 q 707 965 701 970 q 728 930 728 950 q 709 884 728 910 q 622 759 689 857 q 471 532 555 660 q 322 292 386 404 q 258 151 258 181 q 263 141 258 141 q 303 168 269 141 q 767 608 485 308 q 1039 912 998 854 q 1065 936 1052 930 q 1103 942 1077 942 l 1141 942 m 1158 1057 q 1138 1038 1158 1038 q 1104 1044 1118 1038 q 1079 1059 1089 1049 q 1060 1081 1068 1070 q 1046 1110 1052 1092 q 1035 1140 1039 1128 q 1025 1172 1031 1152 q 1016 1203 1019 1193 q 898 1104 973 1159 q 790 1049 823 1049 q 775 1064 775 1049 q 781 1092 775 1078 q 804 1121 788 1105 q 831 1147 820 1137 q 867 1177 842 1157 q 1000 1300 957 1250 q 1037 1314 1008 1314 q 1084 1294 1066 1314 q 1108 1253 1103 1275 q 1118 1204 1113 1231 q 1123 1173 1122 1177 q 1131 1153 1125 1169 q 1141 1129 1137 1137 q 1149 1106 1144 1120 q 1158 1057 1158 1076 "},"ŝ":{"x_min":27.8125,"x_max":651.09375,"ha":511,"o":"m 116 135 l 115 124 q 128 95 115 107 q 152 83 141 83 q 296 107 233 83 q 359 156 359 132 q 336 176 359 168 q 260 197 314 185 q 181 217 206 210 q 143 230 157 224 q 113 247 128 236 q 82 314 82 269 q 114 402 82 358 q 197 477 147 446 q 303 532 246 508 q 493 579 416 579 q 585 546 568 579 q 591 520 591 535 l 591 516 q 576 459 591 480 q 528 423 560 439 q 475 406 495 406 q 451 409 456 406 q 442 416 446 412 q 434 423 439 421 q 429 433 429 425 q 436 450 429 441 q 445 467 442 458 q 352 447 400 465 q 268 405 303 428 q 210 361 233 382 q 187 330 187 340 q 218 314 187 320 q 402 266 358 286 q 463 220 446 246 q 480 173 480 194 q 446 91 480 130 q 360 28 411 52 q 170 -25 251 -25 q 58 0 89 -25 q 27 58 27 24 q 45 121 27 92 q 89 149 62 149 q 116 135 116 149 m 651 669 q 631 651 651 651 q 596 656 611 651 q 571 672 581 661 q 553 693 560 682 q 538 722 545 704 q 527 752 531 740 q 517 785 523 764 q 509 815 512 805 q 390 716 465 771 q 282 661 315 661 q 267 676 267 661 q 274 704 267 691 q 296 733 280 717 q 323 759 312 749 q 360 790 335 769 q 493 912 450 862 q 529 926 500 926 q 577 907 558 926 q 600 865 595 887 q 610 816 606 843 q 616 786 614 790 q 623 766 617 781 q 633 741 630 750 q 641 717 636 732 q 651 669 651 688 "},"Ý":{"x_min":115.96875,"x_max":1207.921875,"ha":924,"o":"m 1141 942 l 1167 943 q 1193 933 1178 943 q 1207 915 1207 923 q 1047 642 1204 900 q 509 -263 558 -160 q 564 -211 534 -237 q 598 -186 594 -186 q 606 -190 602 -186 q 610 -199 610 -195 q 604 -210 610 -204 q 561 -264 598 -217 q 507 -331 525 -311 q 476 -374 490 -352 q 452 -406 462 -397 q 428 -416 442 -416 q 359 -380 387 -416 q 330 -320 330 -345 q 532 49 330 -273 q 888 591 734 372 q 321 39 532 170 q 202 -6 248 -6 q 157 6 179 -6 q 125 38 135 18 q 115 108 115 58 q 159 253 115 159 q 271 456 202 348 q 495 786 392 649 q 346 704 404 704 q 311 711 320 704 q 288 736 303 719 q 274 772 274 752 q 281 804 274 792 q 294 822 288 815 q 324 849 317 845 q 340 853 330 853 q 350 850 350 853 q 343 840 350 847 q 336 831 336 834 q 343 828 336 828 q 362 831 351 828 q 393 845 374 835 q 426 863 411 855 q 472 890 442 872 q 519 916 503 908 q 565 948 535 925 q 611 979 596 971 q 652 988 636 994 q 677 980 668 982 q 694 974 687 978 q 707 965 701 970 q 728 930 728 950 q 709 884 728 910 q 622 759 689 857 q 471 532 555 660 q 322 292 386 404 q 258 151 258 181 q 263 141 258 141 q 303 168 269 141 q 767 608 485 308 q 1039 912 998 854 q 1065 936 1052 930 q 1103 942 1077 942 l 1141 942 m 1139 1150 q 1038 1085 1121 1132 q 934 1038 954 1038 q 914 1056 914 1038 q 918 1069 914 1062 q 962 1141 932 1108 q 1027 1201 991 1173 q 1088 1248 1062 1230 q 1125 1276 1115 1267 q 1139 1298 1135 1286 q 1158 1310 1144 1310 q 1184 1287 1171 1310 q 1196 1243 1196 1264 q 1139 1150 1196 1187 "},"Ĉ":{"x_min":111.234375,"x_max":1126.71875,"ha":789,"o":"m 785 395 q 801 369 801 395 q 790 279 801 343 q 692 157 781 236 q 457 21 585 62 q 306 -2 379 -2 q 171 59 232 -2 q 111 206 111 121 q 145 382 111 291 q 237 557 179 474 q 374 716 295 640 q 539 849 453 793 q 718 939 624 906 q 895 972 811 972 q 1009 924 962 972 q 1033 859 1033 898 q 995 761 1033 820 q 905 653 957 701 q 798 570 853 604 q 710 536 743 536 q 653 557 676 536 q 629 594 629 577 q 636 630 629 610 q 654 649 643 649 q 651 642 651 646 q 675 634 651 634 q 753 676 698 634 q 852 769 808 717 q 897 846 897 820 q 873 864 897 864 q 697 804 809 864 q 482 651 585 745 q 304 429 380 558 q 229 198 229 301 q 251 130 229 155 q 321 104 274 104 q 433 131 368 104 q 555 198 497 158 q 665 278 613 237 q 747 351 716 320 q 779 388 778 382 q 785 395 779 395 m 1126 1058 q 1106 1039 1126 1039 q 1072 1045 1086 1039 q 1047 1060 1057 1050 q 1028 1082 1036 1071 q 1014 1111 1020 1093 q 1003 1141 1007 1129 q 993 1173 999 1153 q 984 1204 987 1194 q 866 1105 941 1160 q 758 1050 791 1050 q 743 1065 743 1050 q 749 1093 743 1079 q 772 1122 756 1106 q 799 1148 788 1138 q 835 1178 810 1158 q 968 1301 925 1251 q 1005 1315 976 1315 q 1052 1295 1034 1315 q 1076 1254 1071 1276 q 1086 1205 1081 1232 q 1091 1174 1090 1178 q 1099 1154 1093 1170 q 1109 1130 1105 1138 q 1117 1107 1112 1121 q 1126 1058 1126 1077 "},"ą":{"x_min":4.0625,"x_max":669.40625,"ha":566,"o":"m 559 515 q 611 480 611 515 q 602 452 611 461 q 564 393 593 443 q 500 266 535 343 q 455 133 465 188 q 453 114 453 126 q 474 77 453 77 q 522 96 494 77 q 571 138 550 115 q 614 183 593 160 q 638 209 634 206 q 651 212 642 212 q 666 193 663 212 q 669 152 669 173 q 661 115 669 131 q 604 55 653 99 q 514 -13 556 12 q 438 -82 472 -40 q 404 -141 404 -124 q 413 -164 404 -158 q 506 -140 448 -164 q 578 -116 564 -116 q 588 -139 588 -116 q 583 -174 588 -161 q 511 -243 561 -217 q 396 -269 461 -269 q 345 -239 370 -269 q 321 -175 321 -208 q 345 -100 321 -142 q 422 -19 369 -59 q 351 89 351 2 q 364 153 351 123 q 235 29 308 80 q 116 -21 162 -21 q 41 6 70 -21 q 4 102 4 41 q 31 226 4 164 q 103 339 59 288 q 202 432 148 390 q 409 520 314 520 q 469 508 446 520 q 498 478 492 496 q 525 509 514 502 q 559 515 537 515 m 469 440 q 229 311 353 440 q 148 200 185 265 q 111 112 111 136 q 124 88 111 88 q 230 163 143 88 q 345 274 317 238 q 469 440 377 313 "},"Ö":{"x_min":115.296875,"x_max":1185.453125,"ha":886,"o":"m 1002 908 q 1071 878 1038 908 q 1105 811 1105 848 q 1087 716 1105 775 q 1035 591 1068 657 q 955 454 1003 525 q 853 317 908 383 q 732 190 798 250 q 598 85 666 130 q 309 -12 450 -12 q 222 13 260 -12 q 163 64 184 39 q 115 224 115 122 q 182 463 115 326 q 367 724 250 601 q 629 924 484 846 q 905 1003 774 1003 q 954 991 931 1003 q 977 964 977 980 q 969 939 977 949 q 955 918 962 929 q 944 902 948 907 q 1002 908 966 908 m 749 594 q 739 581 749 581 q 700 614 730 581 q 670 669 670 647 q 740 788 670 721 q 897 889 811 854 q 676 808 802 883 q 457 627 551 733 q 304 405 362 520 q 246 218 246 290 q 266 142 246 174 q 333 111 286 111 q 446 143 380 111 q 576 229 513 176 q 915 637 793 413 q 965 765 965 729 q 955 779 965 779 q 876 743 927 779 q 786 665 826 708 q 747 603 747 622 l 749 594 m 1130 1257 q 1170 1244 1154 1257 q 1185 1197 1185 1232 q 1150 1126 1185 1163 q 1070 1090 1115 1090 q 1031 1105 1045 1090 q 1018 1137 1018 1120 q 1026 1173 1018 1155 q 1046 1209 1033 1190 q 1083 1243 1059 1229 q 1130 1257 1106 1257 m 961 1199 q 929 1128 961 1166 q 856 1090 897 1090 q 815 1147 815 1090 q 841 1222 815 1183 q 912 1261 867 1261 q 946 1246 931 1261 q 961 1199 961 1232 "},"z":{"x_min":-2.71875,"x_max":575.8125,"ha":499,"o":"m 354 433 q 97 412 134 419 l 95 412 q 82 429 82 412 q 103 478 82 447 q 155 518 124 508 q 224 528 186 527 q 487 547 379 531 q 506 554 489 547 q 538 560 524 560 q 563 545 552 560 q 575 507 575 531 q 563 472 575 484 q 519 451 551 460 q 150 95 222 219 q 264 119 172 102 q 525 187 503 163 q 540 193 532 193 q 559 187 549 193 q 569 128 569 181 q 555 91 569 113 q 523 61 541 69 q 327 23 505 53 q 70 -18 90 -18 q 44 -17 50 -18 q 35 -16 39 -16 q 27 -14 31 -15 q 21 -12 23 -12 q 16 -9 19 -11 q 13 -6 14 -7 q 4 1 12 -6 q -2 36 -2 8 q 0 70 -2 65 q 83 192 32 132 q 174 286 134 251 q 274 368 215 320 q 354 433 334 415 "},"™":{"x_min":326.21875,"x_max":1330.671875,"ha":1042,"o":"m 440 934 l 496 935 q 545 936 533 935 q 574 938 558 937 q 602 941 591 939 q 655 950 638 946 q 781 1003 725 1003 q 820 991 803 1003 q 838 954 838 978 q 800 913 838 931 q 710 887 762 896 q 572 683 623 766 q 504 573 521 600 q 463 516 486 547 q 378 457 417 457 q 343 474 360 457 q 326 510 326 491 q 345 560 326 529 q 378 602 365 592 q 401 613 390 613 q 417 608 412 613 q 514 749 457 661 q 588 862 571 836 q 466 847 516 847 q 354 905 354 847 q 375 950 354 931 q 421 969 396 969 q 446 950 446 969 q 440 934 446 942 m 1174 619 l 1177 600 q 1089 502 1177 567 q 1008 462 1036 462 q 964 480 981 462 q 947 514 947 498 q 952 543 947 529 q 970 578 958 557 q 992 617 982 599 q 1022 664 1003 635 q 1051 709 1041 693 q 1082 755 1062 725 q 1108 794 1103 786 q 1003 679 1070 753 q 829 490 842 501 q 800 478 816 478 q 767 492 784 478 q 750 517 750 506 q 760 549 750 529 q 788 602 769 569 q 822 668 805 637 q 862 744 839 700 q 897 809 885 787 q 755 612 834 729 q 638 418 676 495 q 615 399 629 399 q 588 403 602 399 q 548 444 548 413 q 628 581 548 462 q 811 828 709 700 q 961 986 913 955 q 986 995 978 995 q 1001 992 995 995 q 1025 997 1011 997 q 1056 988 1039 997 q 1072 967 1072 979 q 1047 918 1072 955 q 907 682 950 776 q 1028 803 957 729 q 1226 999 1197 978 q 1243 1004 1234 1004 q 1269 999 1252 1004 q 1306 994 1286 994 q 1323 985 1316 992 q 1330 969 1330 978 q 1326 955 1330 961 q 1258 862 1322 949 q 1051 564 1096 642 q 1137 651 1104 603 q 1162 659 1150 670 q 1174 619 1169 652 "},"Ř":{"x_min":230.59375,"x_max":1208.59375,"ha":1019,"o":"m 434 696 q 444 685 444 696 q 441 677 444 680 q 309 620 384 620 q 270 640 292 620 q 248 698 248 660 q 295 783 248 736 q 423 871 341 829 q 629 945 505 912 q 851 978 752 978 q 1012 962 949 978 q 1111 922 1075 946 q 1169 870 1146 899 q 1208 770 1208 821 q 1176 666 1208 720 q 1091 571 1143 613 q 972 493 1039 529 q 704 396 847 427 q 807 270 728 370 q 951 101 886 169 q 1053 33 1017 33 l 1075 42 q 1083 36 1083 42 q 1058 3 1083 30 q 1015 -38 1033 -24 q 965 -52 996 -52 q 893 -22 933 -52 q 806 63 853 8 q 720 168 758 119 q 634 284 682 217 q 567 375 585 351 q 532 321 560 364 q 491 257 504 278 q 454 198 478 237 q 416 135 430 159 q 364 41 379 72 q 316 10 349 10 l 293 10 l 272 10 q 230 45 230 10 q 253 121 230 71 q 494 487 276 170 q 735 827 712 805 q 768 851 757 848 q 779 857 776 857 l 791 855 l 803 857 q 813 852 809 857 q 820 845 818 847 q 849 810 849 824 q 842 783 849 796 q 803 723 834 769 q 719 603 771 677 q 644 497 667 530 q 777 531 699 499 q 924 605 855 562 q 1040 700 992 649 q 1089 790 1089 752 q 1068 827 1089 810 q 1015 853 1047 843 q 871 872 951 872 q 668 837 791 872 q 489 771 545 803 q 408 717 433 739 q 383 687 383 695 q 397 682 383 682 q 421 689 411 682 q 434 696 432 696 m 781 1300 q 803 1319 781 1319 q 846 1303 833 1319 q 865 1277 859 1286 q 879 1248 872 1268 q 890 1219 887 1227 q 909 1156 894 1209 q 1119 1310 1065 1310 q 1141 1293 1127 1310 q 1155 1268 1155 1277 q 1149 1250 1155 1259 q 1130 1229 1143 1240 q 1104 1207 1117 1217 q 1071 1180 1092 1196 q 1035 1150 1051 1164 q 989 1105 1019 1137 q 940 1059 959 1074 q 902 1044 921 1044 q 841 1078 857 1044 l 843 1094 q 842 1104 843 1100 q 781 1300 781 1261 "},"ã":{"x_min":4.0625,"x_max":731.125,"ha":566,"o":"m 559 515 q 611 480 611 515 q 602 452 611 461 q 564 393 593 443 q 500 266 535 343 q 455 133 465 188 q 453 114 453 126 q 474 77 453 77 q 522 96 494 77 q 571 138 550 115 q 614 183 593 160 q 638 209 634 206 q 651 212 642 212 q 666 193 663 212 q 669 152 669 173 q 665 123 669 131 q 578 30 645 84 q 457 -23 512 -23 q 377 9 402 -23 q 351 83 351 42 q 364 153 351 123 q 235 29 308 80 q 116 -21 162 -21 q 41 6 70 -21 q 4 102 4 41 q 31 226 4 164 q 103 339 59 288 q 202 432 148 390 q 409 520 314 520 q 469 508 446 520 q 498 478 492 496 q 525 509 514 502 q 559 515 537 515 m 469 440 q 229 311 353 440 q 148 200 185 265 q 111 112 111 136 q 124 88 111 88 q 230 163 143 88 q 345 274 317 238 q 469 440 377 313 m 511 768 q 539 741 523 754 q 578 729 554 729 q 624 739 601 729 q 656 763 647 750 q 699 797 683 797 q 722 780 714 797 q 731 747 731 764 q 726 719 731 730 q 659 647 703 674 q 573 619 615 619 q 506 632 532 619 q 467 660 481 645 q 410 701 430 701 q 374 692 390 701 q 346 671 358 684 q 322 647 334 659 q 270 617 295 617 q 260 626 265 617 q 255 645 255 634 q 288 725 255 686 q 361 786 322 765 q 426 808 400 808 q 476 795 453 808 q 511 768 499 783 "},"Ň":{"x_min":-24.421875,"x_max":1224.1875,"ha":899,"o":"m 663 963 l 712 974 q 743 966 731 974 q 754 951 754 958 q 751 930 754 944 q 696 666 748 916 q 621 291 644 415 q 890 677 736 448 q 1070 982 1044 906 q 1091 1018 1078 1005 q 1114 1033 1104 1031 q 1145 1036 1124 1036 q 1195 1027 1166 1036 q 1224 996 1224 1018 q 1105 766 1224 956 q 834 361 986 575 q 579 22 682 147 q 535 0 561 0 q 480 9 509 0 q 451 41 451 18 q 582 758 451 115 q 310 354 470 613 q 122 21 143 86 q 94 -23 109 -16 q 71 -27 83 -27 l 17 -33 q -11 -25 2 -33 q -24 -6 -24 -16 q 50 155 -24 20 q 225 448 125 290 q 434 756 325 607 q 603 958 543 906 q 631 969 615 969 l 663 963 m 796 1325 q 818 1344 796 1344 q 861 1328 848 1344 q 880 1302 874 1311 q 894 1273 887 1293 q 905 1244 902 1252 q 924 1181 909 1234 q 1134 1335 1080 1335 q 1156 1318 1142 1335 q 1170 1293 1170 1302 q 1164 1275 1170 1284 q 1145 1254 1158 1265 q 1119 1232 1132 1242 q 1086 1205 1107 1221 q 1050 1175 1066 1189 q 1004 1130 1034 1162 q 955 1084 974 1099 q 917 1069 936 1069 q 856 1103 872 1069 l 858 1119 q 857 1129 858 1125 q 796 1325 796 1286 "},"æ":{"x_min":4.0625,"x_max":832.171875,"ha":764,"o":"m 599 478 q 763 548 682 548 q 809 537 786 548 q 832 507 832 526 q 795 428 832 462 q 713 394 759 394 q 693 401 698 394 q 689 420 689 408 q 691 442 689 432 q 638 418 667 434 q 553 358 609 401 q 498 298 498 314 q 514 293 498 293 q 574 314 530 293 q 632 335 619 335 q 649 333 645 335 q 668 313 658 328 q 678 287 678 297 q 653 257 678 278 q 576 226 628 236 q 479 180 524 216 q 435 116 435 143 q 538 66 435 66 q 654 103 596 66 q 743 166 704 134 q 793 206 783 198 q 809 213 804 213 q 827 174 827 213 q 822 122 827 134 q 795 91 817 109 q 520 -26 650 -26 q 388 33 415 -26 q 313 -8 358 -8 q 269 27 269 -8 q 283 53 269 31 q 112 -21 196 -21 q 33 15 63 -21 q 4 108 4 52 q 31 226 4 164 q 103 339 59 288 q 202 432 148 390 q 409 520 314 520 q 469 508 446 520 q 498 478 492 496 q 525 509 514 502 q 560 515 537 515 q 596 507 583 515 q 599 478 609 499 m 469 440 q 229 311 353 440 q 148 200 185 265 q 111 112 111 136 q 124 88 111 88 q 155 95 137 88 q 204 120 174 102 q 363 287 273 162 q 469 440 447 411 "},"ĩ":{"x_min":6.78125,"x_max":598.875,"ha":281,"o":"m 373 152 q 369 123 373 132 q 263 13 336 55 q 137 -27 191 -27 q 45 8 84 -27 q 6 81 6 44 q 44 189 6 118 q 118 321 81 261 q 155 386 155 381 q 142 406 155 392 q 128 428 128 421 q 156 466 128 436 q 224 525 184 496 q 286 555 265 555 q 324 536 307 555 q 341 501 341 517 q 180 208 341 486 q 169 190 178 204 q 154 167 160 176 q 143 145 149 158 q 129 99 129 118 q 160 76 129 76 q 225 98 191 76 q 283 145 259 119 q 356 213 347 213 q 373 152 373 213 m 379 799 q 406 772 391 785 q 445 760 422 760 q 492 771 469 760 q 524 794 514 781 q 566 828 551 828 q 590 812 582 828 q 598 778 598 795 q 594 750 598 761 q 526 678 571 705 q 441 651 482 651 q 374 663 400 651 q 335 691 349 676 q 278 732 298 732 q 241 724 257 732 q 213 702 225 715 q 190 678 202 690 q 138 649 162 649 q 128 657 132 649 q 123 676 123 665 q 156 756 123 717 q 229 817 189 796 q 294 839 268 839 q 343 827 320 839 q 379 799 366 814 "},"É":{"x_min":126.15625,"x_max":1001.796875,"ha":836,"o":"m 391 663 q 545 619 391 619 q 601 627 583 619 q 719 650 649 650 q 790 614 790 650 q 778 572 790 600 q 760 539 766 545 q 716 522 754 533 q 667 511 678 512 q 652 509 656 510 q 643 507 649 508 q 621 504 638 507 q 595 504 603 501 q 286 261 370 394 q 248 159 248 202 q 341 92 248 92 q 526 149 414 92 q 724 287 638 206 q 811 427 811 368 q 839 446 811 446 q 905 368 905 446 q 873 281 905 332 q 784 179 841 231 q 657 82 727 127 q 502 9 588 37 q 358 -18 417 -18 q 263 -7 299 -18 q 195 25 227 3 q 126 171 126 73 q 154 279 126 224 q 229 378 183 333 q 411 518 314 462 q 271 661 271 550 q 465 892 271 788 q 699 975 573 950 q 798 987 758 987 q 921 974 880 987 q 962 940 946 962 q 978 902 978 918 q 973 873 978 886 q 960 853 969 860 q 929 837 946 843 q 910 830 912 832 q 819 808 857 808 q 745 826 751 808 q 760 866 746 843 q 626 840 695 864 q 506 785 557 817 q 423 720 456 754 q 391 663 391 686 m 944 1161 q 843 1096 926 1143 q 739 1049 759 1049 q 719 1067 719 1049 q 723 1080 719 1073 q 767 1152 737 1119 q 832 1212 796 1184 q 893 1259 867 1241 q 930 1287 920 1278 q 944 1309 940 1297 q 963 1321 949 1321 q 989 1298 976 1321 q 1001 1254 1001 1275 q 944 1161 1001 1198 "},"ŀ":{"x_min":67.828125,"x_max":686.359375,"ha":546,"o":"m 604 1018 q 661 998 636 1018 q 686 941 686 979 q 644 822 686 903 q 543 656 602 741 q 409 477 484 572 q 183 206 291 326 q 177 176 182 198 q 172 132 172 154 q 192 91 172 109 q 244 73 213 73 q 309 95 274 73 q 370 143 344 117 q 454 213 438 213 q 470 164 470 213 l 470 150 q 461 111 470 124 q 333 7 404 42 q 198 -26 261 -26 q 101 12 134 -26 q 67 119 67 51 q 138 430 67 251 q 298 734 209 609 q 604 1018 498 1018 m 573 905 q 567 915 573 915 q 442 779 543 915 q 296 563 341 644 q 210 360 250 482 q 432 656 290 455 q 573 905 573 857 m 467 269 q 423 321 423 269 q 459 428 423 373 q 542 484 495 484 q 590 429 590 484 q 554 321 590 373 q 467 269 518 269 "},"~":{"x_min":101.734375,"x_max":638.890625,"ha":538,"o":"m 391 488 q 422 457 404 472 q 463 443 440 443 q 508 451 486 443 q 542 470 530 459 q 564 493 555 481 q 603 520 585 520 q 629 501 620 520 q 638 463 638 483 q 633 432 638 443 q 558 349 609 380 q 464 318 507 318 q 397 328 421 318 q 358 351 373 337 q 328 378 342 364 q 275 411 297 411 q 235 401 253 411 q 203 378 217 392 q 177 351 190 364 q 120 317 147 317 q 107 326 113 317 q 101 359 101 335 q 124 419 101 383 q 178 478 147 454 q 286 533 248 533 q 351 519 325 533 q 391 488 377 505 "},"Ċ":{"x_min":111.234375,"x_max":1033.609375,"ha":789,"o":"m 785 395 q 801 369 801 395 q 790 279 801 343 q 692 157 781 236 q 457 21 585 62 q 306 -2 379 -2 q 171 59 232 -2 q 111 206 111 121 q 145 382 111 291 q 237 557 179 474 q 374 716 295 640 q 539 849 453 793 q 718 939 624 906 q 895 972 811 972 q 1009 924 962 972 q 1033 859 1033 898 q 995 761 1033 820 q 905 653 957 701 q 798 570 853 604 q 710 536 743 536 q 653 557 676 536 q 629 594 629 577 q 636 630 629 610 q 654 649 643 649 q 651 642 651 646 q 675 634 651 634 q 753 676 698 634 q 852 769 808 717 q 897 846 897 820 q 873 864 897 864 q 697 804 809 864 q 482 651 585 745 q 304 429 380 558 q 229 198 229 301 q 251 130 229 155 q 321 104 274 104 q 433 131 368 104 q 555 198 497 158 q 665 278 613 237 q 747 351 716 320 q 779 388 778 382 q 785 395 779 395 m 966 1242 q 1006 1224 989 1242 q 1023 1168 1023 1206 q 990 1092 1023 1130 q 902 1053 958 1053 q 859 1072 876 1053 q 843 1126 843 1090 q 876 1201 843 1161 q 966 1242 909 1242 "},"³":{"x_min":141.078125,"x_max":576.484375,"ha":371,"o":"m 412 487 q 307 522 409 522 q 288 533 295 522 q 281 557 281 544 q 288 580 281 570 q 320 606 296 592 q 352 626 345 620 l 368 636 q 501 754 501 724 q 492 758 501 758 q 390 714 461 758 q 284 619 314 668 q 266 608 279 608 q 242 619 252 608 q 230 645 231 630 l 230 651 q 257 698 231 669 q 319 756 282 727 q 408 805 356 784 q 501 826 460 826 q 559 809 542 826 q 576 763 576 792 q 536 686 576 734 q 409 583 497 638 q 469 559 443 579 q 495 510 495 538 q 494 505 494 506 q 445 415 490 461 q 334 340 400 369 q 221 311 268 311 q 157 329 173 311 q 141 369 141 348 q 159 410 141 390 q 195 430 177 430 q 206 413 206 430 q 225 392 211 392 q 303 408 259 392 q 380 447 347 424 q 412 487 412 470 "},"¡":{"x_min":-48.15625,"x_max":687.046875,"ha":454,"o":"m 21 -71 l -31 -64 q -48 -53 -48 -64 q -45 -44 -48 -51 q 422 681 164 263 q 450 709 436 705 q 451 710 451 709 q 454 711 452 710 q 458 713 455 712 q 482 717 468 717 q 501 721 495 717 q 522 725 506 725 q 547 699 547 725 q 431 467 547 654 q 202 120 314 280 q 59 -64 90 -40 q 21 -71 50 -71 m 687 952 q 651 874 687 909 q 575 839 615 839 q 535 878 535 839 q 572 956 535 918 q 647 995 608 995 q 687 952 687 995 "},"ẅ":{"x_min":25.765625,"x_max":863.375,"ha":769,"o":"m 746 503 l 738 536 q 757 580 738 564 q 806 596 777 596 q 863 523 863 596 q 811 379 863 471 q 690 201 760 287 q 541 52 619 115 q 420 -10 462 -10 q 360 12 377 -10 q 342 56 342 35 q 344 96 342 78 q 381 223 352 163 q 225 53 308 128 q 85 -22 141 -22 q 42 -6 58 -22 q 25 49 25 10 q 72 195 25 88 q 162 368 119 303 q 134 358 146 358 q 108 372 122 358 q 94 392 94 385 q 105 414 94 400 q 183 484 115 428 q 276 540 250 540 q 323 531 301 540 q 346 504 346 521 q 252 311 346 488 q 158 119 158 134 q 159 117 158 117 q 301 262 173 117 q 502 501 429 407 q 533 518 512 518 l 539 517 l 576 524 q 593 518 585 524 q 602 505 602 511 q 578 457 602 500 q 499 292 554 413 q 445 123 445 172 q 454 111 445 111 q 561 204 480 111 q 695 383 643 297 q 746 503 746 468 m 742 793 q 782 780 767 793 q 797 734 797 768 q 762 663 797 699 q 682 626 727 626 q 643 641 657 626 q 630 674 630 656 q 638 709 630 691 q 658 746 645 727 q 695 779 672 765 q 742 793 718 793 m 573 736 q 541 664 573 703 q 468 626 510 626 q 427 683 427 626 q 453 758 427 719 q 524 797 479 797 q 558 783 543 797 q 573 736 573 769 "},"[":{"x_min":0,"x_max":899.328125,"ha":509,"o":"m 760 1021 l 663 1024 q 139 -51 385 407 q 125 -80 125 -73 q 132 -84 126 -84 l 139 -83 q 211 -85 182 -85 q 263 -82 241 -85 q 305 -76 286 -80 q 333 -72 324 -72 q 350 -86 350 -72 q 308 -142 350 -113 q 219 -189 266 -171 q 84 -215 149 -215 q 37 -193 57 -215 q 0 -96 0 -155 q 31 -3 0 -64 q 219 378 62 57 q 416 775 376 698 q 473 887 456 853 q 506 955 491 921 q 528 1004 521 988 q 553 1062 535 1020 q 578 1120 571 1104 q 606 1145 585 1136 q 644 1158 627 1155 l 841 1147 l 875 1150 q 899 1105 899 1150 q 862 1028 899 1032 q 760 1021 808 1021 "},"%":{"x_min":164.125,"x_max":926.453125,"ha":926,"o":"m 583 734 q 546 614 577 685 q 484 498 514 543 q 419 415 453 453 q 252 327 343 330 q 189 354 215 326 q 164 435 164 382 q 198 561 164 488 q 282 698 231 635 q 394 804 332 760 q 507 848 456 848 q 559 811 535 848 q 583 734 583 773 m 259 447 q 272 422 259 422 q 348 459 307 422 q 421 548 389 497 q 473 655 452 600 q 494 735 494 710 q 485 760 494 760 q 404 705 459 760 q 304 574 349 650 q 259 447 259 497 m 926 411 q 916 372 926 399 q 913 330 907 345 q 909 287 918 316 q 880 220 899 258 q 830 139 860 181 q 766 62 800 97 q 689 4 732 27 q 607 -18 647 -18 q 541 9 567 -18 q 516 89 516 37 q 549 216 516 142 q 631 352 582 289 q 741 458 680 415 q 853 502 802 502 q 904 475 883 502 q 926 411 926 448 m 611 101 q 625 76 611 76 q 718 138 666 76 q 805 277 770 200 q 840 400 840 354 q 831 414 840 414 q 752 359 805 414 q 655 228 699 304 q 611 101 611 151 m 893 847 q 906 825 906 847 q 905 795 906 803 q 903 781 904 788 q 902 772 902 775 q 899 762 901 769 q 895 750 897 754 q 748 574 884 726 q 282 14 487 282 q 274 1 280 11 q 250 -18 264 -18 q 223 43 223 -18 q 229 90 223 67 q 239 120 235 113 q 245 128 242 126 q 341 241 248 132 q 618 553 434 350 q 836 794 803 756 q 873 835 869 832 q 880 841 876 838 q 893 847 889 847 "},"P":{"x_min":216.359375,"x_max":1253.359375,"ha":1002,"o":"m 418 727 q 396 691 396 711 q 425 671 396 671 q 459 678 438 671 l 459 678 q 463 665 463 678 q 460 648 463 651 q 342 598 390 598 q 272 626 294 598 q 250 696 250 653 q 299 789 250 740 q 428 880 347 838 q 630 949 510 922 q 901 976 750 976 q 1152 917 1051 976 q 1253 784 1253 859 q 1200 632 1253 709 q 1069 497 1148 554 q 893 403 990 440 q 721 366 797 366 q 603 427 645 366 q 463 206 500 265 q 401 106 427 147 q 362 43 376 66 q 347 19 348 20 q 317 4 333 4 l 284 -2 l 267 0 l 256 0 q 216 24 216 0 q 349 264 216 56 q 601 642 483 472 q 739 832 720 811 q 774 857 759 853 q 824 861 790 861 l 857 861 q 866 847 866 861 q 863 828 866 833 q 647 498 803 744 q 665 484 653 487 q 692 482 678 482 l 712 482 q 847 512 774 482 q 974 584 919 542 q 1066 672 1029 626 q 1103 750 1103 718 q 1083 809 1103 783 q 1027 849 1062 834 q 859 878 958 878 q 621 827 760 878 q 418 727 482 776 "},"_":{"x_min":-117.328125,"x_max":506.625,"ha":534,"o":"m -54 -189 l -64 -189 q -100 -181 -82 -189 q -117 -162 -117 -172 q -107 -143 -117 -151 q -94 -128 -96 -134 q -58 -98 -90 -115 q -3 -79 -27 -80 q 76 -74 20 -77 q 248 -67 133 -71 q 408 -63 364 -63 q 460 -66 452 -63 q 479 -82 468 -69 q 498 -101 489 -95 q 506 -120 506 -107 q 489 -142 506 -133 q 427 -156 472 -151 q 319 -164 382 -160 q 181 -174 257 -168 q -54 -189 32 -187 "},"Ŕ":{"x_min":230.59375,"x_max":1208.59375,"ha":1019,"o":"m 434 696 q 444 685 444 696 q 441 677 444 680 q 309 620 384 620 q 270 640 292 620 q 248 698 248 660 q 295 783 248 736 q 423 871 341 829 q 629 945 505 912 q 851 978 752 978 q 1012 962 949 978 q 1111 922 1075 946 q 1169 870 1146 899 q 1208 770 1208 821 q 1176 666 1208 720 q 1091 571 1143 613 q 972 493 1039 529 q 704 396 847 427 q 807 270 728 370 q 951 101 886 169 q 1053 33 1017 33 l 1075 42 q 1083 36 1083 42 q 1058 3 1083 30 q 1015 -38 1033 -24 q 965 -52 996 -52 q 893 -22 933 -52 q 806 63 853 8 q 720 168 758 119 q 634 284 682 217 q 567 375 585 351 q 532 321 560 364 q 491 257 504 278 q 454 198 478 237 q 416 135 430 159 q 364 41 379 72 q 316 10 349 10 l 293 10 l 272 10 q 230 45 230 10 q 253 121 230 71 q 494 487 276 170 q 735 827 712 805 q 768 851 757 848 q 779 857 776 857 l 791 855 l 803 857 q 813 852 809 857 q 820 845 818 847 q 849 810 849 824 q 842 783 849 796 q 803 723 834 769 q 719 603 771 677 q 644 497 667 530 q 777 531 699 499 q 924 605 855 562 q 1040 700 992 649 q 1089 790 1089 752 q 1068 827 1089 810 q 1015 853 1047 843 q 871 872 951 872 q 668 837 791 872 q 489 771 545 803 q 408 717 433 739 q 383 687 383 695 q 397 682 383 682 q 421 689 411 682 q 434 696 432 696 m 1086 1156 q 985 1091 1068 1138 q 881 1044 901 1044 q 861 1062 861 1044 q 865 1075 861 1068 q 909 1147 879 1114 q 974 1207 938 1179 q 1035 1254 1009 1236 q 1072 1282 1062 1273 q 1086 1304 1082 1292 q 1105 1316 1091 1316 q 1131 1293 1118 1316 q 1143 1249 1143 1270 q 1086 1156 1143 1193 "},"ñ":{"x_min":-44.765625,"x_max":731.125,"ha":543,"o":"m 396 104 q 436 74 396 74 q 491 96 458 74 q 550 143 524 118 q 630 213 621 213 q 648 162 648 213 q 616 92 648 111 q 466 -13 519 5 q 400 -23 436 -23 q 329 8 364 -22 q 294 82 294 38 q 317 181 294 126 q 364 277 340 237 q 423 369 388 316 q 461 434 459 421 l 459 436 q 348 347 437 434 q 202 198 260 261 q 65 27 145 134 q 28 -1 42 -1 q -9 7 14 -1 q -39 21 -33 16 q -44 33 -44 25 q -40 53 -44 41 q -30 72 -35 65 q -16 96 -26 80 q 24 165 -6 113 q 116 322 54 218 q 191 448 179 427 q 233 514 217 493 q 336 552 263 552 q 352 532 352 552 q 293 412 352 500 l 265 369 q 463 534 382 499 q 534 551 502 551 q 584 534 565 551 q 602 496 602 517 q 588 447 602 476 q 559 395 574 418 q 521 338 545 373 q 495 300 497 303 q 485 284 493 297 q 472 265 476 271 q 459 243 468 259 q 443 218 449 228 q 429 193 438 208 q 416 167 421 178 q 405 143 411 156 q 396 104 396 120 m 511 794 q 539 767 523 779 q 578 754 554 754 q 624 765 601 754 q 656 789 647 776 q 699 823 683 823 q 722 806 714 823 q 731 773 731 790 q 726 745 731 756 q 659 672 703 699 q 573 645 615 645 q 506 658 532 645 q 467 686 481 671 q 410 727 430 727 q 374 718 389 727 q 346 697 358 710 q 322 672 334 685 q 270 643 295 643 q 260 651 265 643 q 255 671 255 659 q 288 751 255 712 q 361 812 322 790 q 426 834 400 834 q 476 821 453 834 q 511 794 499 809 "},"‚":{"x_min":-112.578125,"x_max":92.921875,"ha":175,"o":"m 23 100 q 76 80 59 100 q 92 29 92 61 q 70 -33 92 -2 q 2 -97 47 -63 q -64 -130 -42 -130 q -94 -122 -86 -130 q -107 -113 -103 -114 q -112 -101 -112 -111 q -107 -86 -112 -90 q -79 -51 -101 -82 q -53 -9 -57 -19 q -64 23 -64 0 q -38 73 -64 46 q 23 100 -12 100 "},"Æ":{"x_min":40.6875,"x_max":1539.5625,"ha":1399,"o":"m 947 951 q 977 998 968 998 l 980 998 q 1022 976 990 998 q 1053 935 1053 954 q 1042 900 1053 929 q 1209 964 1121 940 q 1348 987 1298 987 q 1483 974 1441 987 q 1523 940 1508 962 q 1539 902 1539 918 q 1535 873 1539 886 q 1521 853 1531 860 q 1491 837 1508 843 q 1471 830 1474 832 q 1380 808 1418 808 q 1306 826 1313 808 q 1321 866 1308 843 q 1188 840 1257 864 q 1068 785 1119 817 q 985 720 1018 754 q 952 663 952 686 q 1106 619 952 619 q 1163 627 1144 619 q 1281 650 1211 650 q 1351 614 1351 650 q 1339 572 1351 600 q 1322 539 1327 545 q 1278 522 1316 533 q 1229 511 1240 512 q 1214 509 1218 510 q 1205 507 1210 508 q 1182 504 1200 507 q 1157 504 1165 501 q 848 261 932 394 q 810 159 810 202 q 903 92 810 92 q 1087 149 975 92 q 1286 287 1199 206 q 1372 427 1372 368 q 1401 446 1372 446 q 1467 368 1467 446 q 1435 281 1467 332 q 1346 179 1403 231 q 1219 82 1289 127 q 1064 9 1149 37 q 904 -18 979 -18 q 769 16 828 -18 q 693 122 710 52 q 628 8 651 37 q 586 -27 604 -19 q 549 -35 569 -35 q 516 -40 529 -35 q 499 -44 502 -44 q 478 -34 478 -44 q 483 -17 478 -32 q 638 311 489 -3 q 358 320 479 317 q 148 15 242 174 q 126 -15 137 -6 q 99 -25 116 -25 q 61 -7 81 -25 q 40 34 40 10 q 215 324 40 102 q 111 320 133 324 q 83 316 89 316 q 65 347 65 316 q 101 401 65 378 q 198 425 137 425 q 215 425 203 425 q 301 429 257 427 q 611 751 449 602 q 890 959 772 900 q 920 968 909 969 q 947 951 931 968 m 900 855 q 447 429 652 668 q 690 419 567 426 q 900 855 813 678 m 890 550 q 829 416 859 482 q 972 518 890 470 q 890 550 921 529 "},"ğ":{"x_min":-6.109375,"x_max":772.5,"ha":581,"o":"m 253 450 q 381 520 318 495 q 491 544 444 544 q 550 518 537 544 q 615 550 576 548 q 644 551 627 551 q 665 546 661 551 q 672 530 669 542 q 676 516 676 518 q 677 512 677 515 q 674 504 677 509 q 666 496 670 500 q 661 491 661 492 q 354 1 511 276 q 643 206 516 144 q 659 210 651 210 q 673 197 670 210 q 676 157 676 183 q 673 125 676 131 q 642 101 670 119 q 568 53 613 82 q 472 -10 522 24 q 271 -189 349 -95 q 125 -387 169 -311 q 70 -416 109 -416 q -6 -343 -6 -416 q 66 -192 -6 -269 q 166 -98 120 -134 q 215 -56 211 -61 q 352 156 265 18 q 209 34 278 80 q 107 -10 141 -10 q 3 78 3 -10 q 39 220 3 148 q 131 348 75 292 q 253 450 187 405 m 511 467 q 363 412 432 451 q 249 328 294 373 q 172 237 204 284 q 111 101 111 149 q 117 90 111 90 q 142 102 122 90 q 199 144 162 114 q 280 214 236 173 q 511 467 384 309 m 356 838 q 365 861 356 849 q 388 872 373 872 q 415 860 403 872 q 441 817 427 847 q 461 776 455 788 q 485 757 467 765 q 526 749 502 749 q 578 762 551 749 q 626 794 606 775 q 663 831 645 813 q 736 876 706 876 q 758 860 744 876 q 772 834 772 844 q 759 803 772 825 q 723 754 746 781 q 671 700 699 726 q 530 639 602 639 q 407 698 457 639 q 356 838 356 758 "},"Ū":{"x_min":130.21875,"x_max":1275.734375,"ha":1028,"o":"m 1069 375 q 1087 326 1087 375 q 1081 262 1087 278 q 987 145 1061 210 q 824 35 912 80 q 678 -9 735 -9 q 633 11 651 -9 q 614 66 614 32 q 683 250 614 126 q 851 510 752 375 q 619 253 687 320 q 497 140 551 187 q 401 64 444 92 q 240 -2 299 -2 q 155 30 180 -2 q 130 103 130 63 q 267 433 130 220 q 520 780 404 645 q 385 694 422 694 q 330 717 348 694 q 311 768 311 739 q 339 823 311 797 q 378 848 366 848 q 391 846 391 848 q 381 831 391 844 q 370 814 370 819 q 379 809 370 809 q 495 863 406 809 q 647 967 583 916 q 686 982 663 982 q 728 971 708 982 q 739 969 729 974 q 760 954 750 965 q 770 935 770 944 q 765 919 770 927 q 410 444 482 554 q 263 152 263 219 q 283 128 263 128 q 396 204 303 128 q 1110 937 651 412 q 1145 956 1129 958 l 1151 956 q 1166 959 1154 956 q 1207 961 1179 961 q 1275 936 1275 961 q 1255 898 1275 925 q 1172 781 1235 871 q 1015 554 1109 692 q 853 301 921 417 q 785 155 785 186 q 787 154 785 154 q 809 164 790 154 q 945 261 867 194 q 1044 351 1024 327 q 1069 375 1065 375 m 1079 1092 l 999 1092 q 872 1086 923 1092 q 860 1113 860 1086 q 908 1205 860 1205 l 1053 1198 q 1150 1208 1112 1198 q 1197 1217 1188 1217 q 1212 1192 1212 1217 q 1208 1154 1212 1166 q 1199 1133 1204 1142 q 1184 1118 1195 1124 q 1167 1107 1174 1111 q 1145 1100 1160 1103 q 1123 1095 1129 1096 q 1079 1092 1110 1092 "},"ª":{"x_min":126.828125,"x_max":600.90625,"ha":392,"o":"m 478 545 q 582 608 564 608 q 600 593 600 608 q 595 569 600 583 q 523 483 575 531 q 428 436 470 436 q 394 456 413 436 q 374 493 374 476 q 389 544 374 510 q 252 429 290 429 q 205 456 228 429 q 182 500 182 484 q 191 536 182 517 q 480 832 261 699 q 511 837 489 837 q 559 823 533 837 q 588 783 585 809 q 595 762 595 772 q 576 726 595 752 q 555 697 557 700 q 540 676 552 694 q 526 656 528 659 l 514 637 q 500 616 503 622 q 489 597 497 611 q 477 576 481 584 q 468 555 474 567 q 459 532 463 543 l 478 545 m 209 381 l 281 379 l 390 381 q 417 373 410 379 q 424 344 424 366 q 390 297 424 304 q 364 296 383 296 l 288 300 l 146 290 q 130 302 132 291 q 126 333 126 316 q 154 379 126 379 q 209 381 172 381 m 513 781 q 368 668 434 735 q 263 525 303 602 q 514 781 408 632 q 513 781 514 783 "},"Œ":{"x_min":115.296875,"x_max":1637.234375,"ha":1496,"o":"m 971 908 q 1068 859 1032 908 q 1265 952 1154 916 q 1467 987 1377 987 q 1580 974 1539 987 q 1621 940 1606 962 q 1637 902 1637 918 q 1633 873 1637 886 q 1619 853 1629 860 q 1589 837 1606 843 q 1569 830 1572 832 q 1478 808 1516 808 q 1404 826 1410 808 q 1419 866 1405 843 q 1285 840 1355 864 q 1166 785 1216 817 q 1083 720 1115 754 q 1050 663 1050 686 q 1204 619 1050 619 q 1260 627 1242 619 q 1379 650 1308 650 q 1449 614 1449 650 q 1437 572 1449 600 q 1419 539 1425 545 q 1376 522 1414 533 q 1321 510 1338 512 q 1283 504 1303 507 q 1254 504 1262 501 q 946 261 1030 394 q 908 159 908 202 q 1001 92 908 92 q 1185 149 1073 92 q 1383 287 1297 206 q 1470 427 1470 368 q 1498 446 1470 446 q 1564 368 1564 446 q 1532 281 1564 332 q 1443 179 1500 231 q 1317 82 1386 127 q 1162 9 1247 37 q 1018 -18 1077 -18 q 922 -7 959 -18 q 854 25 886 3 q 785 171 785 73 q 813 279 785 224 q 888 378 842 333 q 1070 518 973 462 q 990 549 1020 529 q 694 173 875 343 q 503 39 605 90 q 309 -12 402 -12 q 222 13 260 -12 q 163 64 184 39 q 115 224 115 122 q 182 463 115 326 q 368 725 250 601 q 621 926 487 849 q 885 1003 756 1003 q 933 991 910 1003 q 956 964 956 980 q 949 939 956 949 q 935 918 942 929 q 923 902 928 907 q 971 908 946 908 m 729 594 q 719 581 729 581 q 680 614 710 581 q 650 669 650 647 q 720 788 650 721 q 876 889 790 854 q 664 809 783 883 q 452 629 546 735 q 302 407 357 522 q 246 218 246 292 q 266 142 246 174 q 333 111 286 111 q 444 143 380 111 q 569 229 508 175 q 765 435 680 327 q 897 635 849 543 q 944 765 944 728 q 935 779 944 779 q 856 743 907 779 q 766 665 805 708 q 727 603 727 622 l 729 594 "},"Ą":{"x_min":40.6875,"x_max":1053.28125,"ha":816,"o":"m 947 951 q 977 998 968 998 l 980 998 q 1022 976 990 998 q 1053 935 1053 954 q 879 526 1053 909 q 680 96 706 143 q 644 32 655 49 q 581 -29 615 -15 q 524 -87 548 -52 q 499 -140 499 -122 q 507 -164 499 -158 q 601 -140 543 -164 q 673 -116 659 -116 q 682 -139 682 -116 q 678 -174 682 -161 q 606 -243 656 -217 q 491 -269 556 -269 q 440 -239 465 -269 q 416 -177 416 -208 q 438 -107 416 -146 q 499 -44 461 -68 q 475 -33 480 -46 q 474 -29 474 -30 l 474 -26 q 482 -1 474 -16 q 498 29 491 13 q 517 65 506 44 q 542 114 529 86 q 571 172 556 141 q 638 311 602 233 q 358 320 479 317 q 148 15 242 174 q 126 -15 137 -6 q 99 -25 116 -25 q 61 -7 81 -25 q 40 34 40 10 q 215 324 40 102 q 111 320 133 324 q 83 316 89 316 q 65 347 65 316 q 101 401 65 378 q 198 425 137 425 q 215 425 203 425 q 301 429 257 427 q 611 751 449 602 q 890 959 772 900 q 920 968 909 969 q 947 951 931 968 m 900 855 q 447 429 652 668 q 690 419 567 426 q 900 855 813 678 "},"T":{"x_min":223.8125,"x_max":1194.34375,"ha":787,"o":"m 361 215 l 358 201 q 361 193 358 197 q 370 190 365 190 q 379 196 376 190 q 547 432 480 330 q 644 582 613 534 q 693 659 675 630 q 790 792 742 733 q 503 746 607 746 q 354 759 400 746 q 295 789 309 773 q 280 823 280 806 q 282 857 280 841 q 323 912 284 891 q 386 934 361 934 q 411 927 411 934 q 400 907 411 919 q 389 889 389 894 q 545 868 389 868 q 906 909 702 868 q 1107 1004 1022 1004 q 1182 972 1163 1004 q 1194 934 1194 953 q 1172 896 1194 915 q 1112 864 1150 877 q 952 825 1045 839 q 843 671 914 775 q 746 530 772 567 q 663 400 720 493 q 564 238 606 306 q 474 103 522 170 q 301 -33 377 -33 q 246 -16 269 -33 q 223 38 223 0 q 266 134 223 77 q 328 208 308 191 q 354 224 347 224 q 361 215 361 224 "},"š":{"x_min":27.8125,"x_max":700.609375,"ha":511,"o":"m 116 135 l 115 124 q 128 95 115 107 q 152 83 141 83 q 296 107 233 83 q 359 156 359 132 q 336 176 359 168 q 260 197 314 185 q 181 217 206 210 q 143 230 157 224 q 113 247 128 236 q 82 314 82 269 q 114 402 82 358 q 197 477 147 446 q 303 532 246 508 q 493 579 416 579 q 585 546 568 579 q 591 520 591 535 l 591 516 q 576 459 591 480 q 528 423 560 439 q 475 406 495 406 q 451 409 456 406 q 442 416 446 412 q 434 423 439 421 q 429 433 429 425 q 436 450 429 441 q 445 467 442 458 q 352 447 400 465 q 268 405 303 428 q 210 361 233 382 q 187 330 187 340 q 218 314 187 320 q 402 266 358 286 q 463 220 446 246 q 480 173 480 194 q 446 91 480 130 q 360 28 411 52 q 170 -25 251 -25 q 58 0 89 -25 q 27 58 27 24 q 45 121 27 92 q 89 149 62 149 q 116 135 116 149 m 326 906 q 349 925 326 925 q 391 909 378 925 q 411 883 404 892 q 425 854 417 874 q 435 824 432 833 q 454 762 439 815 q 664 916 611 916 q 686 900 672 916 q 700 874 700 883 q 694 856 700 865 q 675 835 688 847 q 650 813 662 823 q 617 786 637 803 q 580 756 596 770 q 535 712 564 743 q 485 666 505 680 q 447 651 466 651 q 386 684 402 651 l 389 700 q 387 710 389 706 q 326 906 326 867 "},"Þ":{"x_min":189.90625,"x_max":1193,"ha":1051,"o":"m 335 522 q 358 501 335 501 q 398 508 380 501 l 398 508 q 402 494 402 508 q 399 478 402 480 q 286 427 337 427 q 189 524 189 427 q 232 613 189 567 q 349 699 276 659 q 531 769 422 739 q 760 804 640 798 q 888 979 871 959 q 921 1002 906 998 q 971 1005 937 1005 l 1005 1005 q 1013 991 1013 1005 q 1010 972 1013 976 q 895 801 946 878 q 1112 733 1032 788 q 1193 608 1193 678 q 1140 461 1193 538 q 1008 326 1087 383 q 833 232 929 269 q 660 196 737 196 q 542 257 584 196 l 392 19 q 362 4 378 4 l 328 -2 l 312 0 l 301 0 q 261 24 261 0 q 684 693 261 81 q 497 632 593 672 q 335 522 335 562 m 587 327 q 604 314 592 316 q 633 311 617 311 l 651 311 q 786 341 713 311 q 913 413 858 371 q 1005 501 968 455 q 1042 583 1042 547 q 1012 647 1042 619 q 834 706 958 699 q 587 327 659 442 "},"j":{"x_min":-339.109375,"x_max":539.1875,"ha":307,"o":"m 539 754 q 490 666 539 709 q 397 623 442 623 q 365 662 365 623 q 410 744 365 701 q 497 787 455 787 q 539 754 539 787 m 358 206 q 377 212 368 215 q 387 197 385 209 q 387 123 396 153 q 336 91 383 118 q 229 30 289 65 q 96 -58 169 -4 q -25 -165 23 -112 q -105 -286 -53 -222 q -274 -408 -206 -408 q -320 -390 -301 -408 q -339 -346 -339 -373 q -325 -297 -339 -320 q -281 -244 -312 -274 q -227 -193 -250 -213 q -157 -134 -205 -174 q -90 -80 -108 -95 q -14 48 -61 -30 q 58 173 31 128 q 180 366 135 303 q 165 366 177 367 q 146 365 153 364 q 129 373 138 365 q 118 397 121 381 q 196 477 114 421 q 307 533 278 533 q 358 482 358 533 q 352 461 358 476 q 236 265 347 445 q 82 21 125 86 q 120 48 88 25 q 186 96 151 71 q 258 147 221 121 q 358 206 344 206 "},"1":{"x_min":-6.109375,"x_max":554.109375,"ha":317,"o":"m 324 404 q 92 -2 113 56 q 72 -11 92 -5 q 47 -16 52 -16 q 38 -10 42 -16 q 15 26 23 17 q 1 39 8 35 q -6 44 -6 43 q 134 294 -6 61 q 358 647 274 528 q 314 613 334 630 q 289 597 294 597 q 282 603 285 597 q 278 617 280 609 q 271 632 276 625 q 267 644 266 639 q 272 661 267 649 q 323 716 277 674 q 423 797 370 759 q 495 836 476 836 q 533 814 513 836 q 554 774 554 793 q 462 623 553 766 q 324 404 370 480 "},"›":{"x_min":29.84375,"x_max":314.015625,"ha":347,"o":"m 305 278 q 314 252 314 266 q 279 201 314 221 q 173 146 205 166 q 89 84 141 126 q 52 51 65 51 q 29 122 29 51 q 67 191 29 169 q 107 212 86 203 q 222 269 183 244 q 196 336 210 303 q 164 419 164 404 q 181 496 164 455 q 221 536 198 536 q 244 527 240 536 q 254 498 251 514 q 305 278 265 377 "},"<":{"x_min":204.828125,"x_max":590.046875,"ha":475,"o":"m 566 725 q 590 654 590 725 q 585 617 590 629 q 557 586 581 604 q 442 518 534 567 q 305 438 350 469 q 335 326 314 389 q 361 253 356 262 q 366 225 366 244 q 347 152 366 206 q 314 99 327 99 q 295 112 300 99 q 281 172 289 125 q 261 268 274 219 q 209 437 246 328 q 204 451 204 442 q 240 497 204 474 q 266 514 244 499 q 294 532 288 528 q 321 549 301 536 q 351 569 342 562 q 380 588 360 575 q 411 610 399 601 q 441 631 422 618 q 474 655 459 644 q 505 680 488 666 q 532 701 522 694 q 546 714 541 709 q 566 725 556 725 "},"t":{"x_min":34.25,"x_max":635.5,"ha":298,"o":"m 508 873 l 536 866 q 547 860 542 866 q 552 849 552 854 q 537 819 552 843 q 504 766 523 796 q 483 733 484 735 q 558 737 536 737 q 588 734 580 737 q 607 717 596 731 q 626 696 617 703 q 635 674 635 689 q 618 650 635 660 q 581 638 600 640 q 407 622 423 623 q 253 360 352 538 q 149 137 155 182 q 146 104 146 117 q 174 78 146 78 q 236 99 202 78 q 298 145 269 120 q 379 213 374 213 q 397 152 397 213 q 366 92 397 119 q 251 4 298 33 q 158 -25 204 -25 q 139 -23 147 -25 q 59 15 84 -13 q 34 95 33 45 q 64 217 34 145 q 138 369 93 288 q 284 616 211 501 l 259 613 q 167 604 180 604 l 161 604 q 123 612 141 604 q 105 631 105 619 q 114 653 105 642 q 126 670 124 664 q 162 704 131 685 q 208 723 193 722 q 239 725 224 724 q 271 726 253 725 q 299 727 289 727 l 360 730 q 438 840 417 815 q 463 867 459 864 q 476 869 466 869 l 508 873 "},"¬":{"x_min":177.015625,"x_max":642.578125,"ha":576,"o":"m 487 554 q 575 550 541 553 q 624 538 609 546 q 641 507 638 529 q 633 455 644 484 q 607 397 621 425 q 574 333 593 368 q 551 285 556 298 q 541 260 545 272 q 535 242 537 248 q 528 227 532 236 q 510 211 520 211 q 449 231 470 211 q 446 289 427 251 q 482 352 453 304 q 535 468 554 466 q 321 465 438 474 q 196 455 204 455 q 177 474 177 455 q 183 506 177 489 q 191 527 190 524 q 194 534 191 529 q 198 541 196 539 q 207 550 204 550 q 214 553 210 551 q 227 555 219 555 q 295 555 236 555 q 393 555 354 556 q 487 554 432 555 "},"ù":{"x_min":0,"x_max":634.8125,"ha":549,"o":"m 616 212 q 632 193 629 212 q 634 152 634 173 q 630 123 634 131 q 544 30 611 85 q 418 -23 478 -23 q 350 -1 381 -23 q 319 75 319 20 q 348 183 319 130 q 84 -27 180 -27 q 23 0 46 -27 q 0 55 0 26 q 8 114 0 84 q 25 170 16 145 q 52 230 34 194 q 79 282 70 266 q 107 331 88 299 q 158 420 126 364 q 210 502 189 476 q 250 530 231 529 q 285 514 270 530 q 300 487 300 497 q 255 396 300 477 q 120 113 120 153 q 128 103 120 103 q 290 244 160 103 q 440 424 419 385 q 479 491 460 464 q 508 524 499 518 q 583 545 537 543 q 595 544 591 545 q 604 533 599 543 q 610 516 610 522 q 556 415 604 497 q 503 322 508 333 q 423 106 423 156 q 444 78 423 78 q 539 141 484 83 q 580 183 560 162 q 604 209 600 205 q 616 212 609 212 m 444 643 q 424 620 444 620 q 392 626 405 620 q 370 642 379 631 q 357 661 362 653 q 346 684 352 670 q 331 718 341 698 q 299 770 321 737 q 266 818 277 803 q 255 847 255 834 q 287 877 255 859 q 338 895 319 895 q 361 893 356 895 q 370 886 366 891 q 377 876 375 881 q 384 859 380 870 q 390 837 387 847 q 419 741 406 779 q 444 643 444 666 "},"ĉ":{"x_min":30.515625,"x_max":681.609375,"ha":507,"o":"m 483 150 q 528 181 518 172 q 552 201 538 189 q 574 212 565 212 q 588 182 588 212 q 557 115 588 151 q 482 55 527 80 q 387 12 438 30 q 215 -25 286 -25 q 87 21 144 -25 q 30 142 30 67 q 67 292 30 217 q 163 424 105 367 q 300 516 222 480 q 453 551 377 551 q 519 530 490 551 q 548 472 548 509 q 512 384 548 436 q 438 333 476 333 q 395 375 395 333 q 415 413 395 385 q 436 451 436 441 q 428 461 436 461 q 348 435 391 461 q 270 381 305 409 q 204 317 236 352 q 137 158 137 240 q 158 100 137 124 q 230 76 179 76 q 331 88 280 76 q 415 114 382 100 q 483 150 448 128 m 681 650 q 661 632 681 632 q 627 637 641 632 q 601 653 612 642 q 583 674 591 663 q 569 703 575 685 q 558 733 562 721 q 548 766 554 745 q 539 796 542 786 q 421 697 496 752 q 313 642 345 642 q 298 657 298 642 q 304 685 298 672 q 327 714 311 698 q 354 740 343 730 q 390 771 365 750 q 523 893 480 843 q 560 907 531 907 q 607 888 589 907 q 631 846 626 868 q 640 797 636 824 q 646 767 644 771 q 654 747 648 763 q 663 722 660 731 q 672 698 667 713 q 681 650 681 669 "},"ï":{"x_min":6.78125,"x_max":573.78125,"ha":281,"o":"m 373 152 q 369 123 373 132 q 263 13 336 55 q 137 -27 191 -27 q 45 8 84 -27 q 6 81 6 44 q 44 189 6 118 q 118 321 81 261 q 155 386 155 381 q 142 406 155 392 q 128 428 128 421 q 156 466 128 436 q 224 525 184 496 q 286 555 265 555 q 324 536 307 555 q 341 501 341 517 q 180 208 341 486 q 169 190 178 204 q 154 167 160 176 q 143 145 149 158 q 129 99 129 118 q 160 76 129 76 q 225 98 191 76 q 283 145 259 119 q 356 213 347 213 q 373 152 373 213 m 519 824 q 558 811 543 824 q 573 764 573 798 q 538 693 573 730 q 458 657 503 657 q 420 672 433 657 q 406 704 406 687 q 414 739 406 722 q 435 776 421 757 q 471 810 448 796 q 519 824 495 824 m 349 766 q 318 695 349 733 q 245 657 286 657 q 204 714 204 657 q 229 789 204 750 q 301 828 255 828 q 335 813 320 828 q 349 766 349 799 "},"ī":{"x_min":6.78125,"x_max":562.921875,"ha":281,"o":"m 373 152 q 369 123 373 132 q 263 13 336 55 q 137 -27 191 -27 q 45 8 84 -27 q 6 81 6 44 q 44 189 6 118 q 118 321 81 261 q 155 386 155 381 q 142 406 155 392 q 128 428 128 421 q 156 466 128 436 q 224 525 184 496 q 286 555 265 555 q 324 536 307 555 q 341 501 341 517 q 180 208 341 486 q 169 190 178 204 q 154 167 160 176 q 143 145 149 158 q 129 99 129 118 q 160 76 129 76 q 225 98 191 76 q 283 145 259 119 q 356 213 347 213 q 373 152 373 213 m 429 693 l 349 693 q 222 687 273 693 q 210 714 210 687 q 259 806 210 806 l 403 799 q 501 809 463 799 q 548 818 539 818 q 562 793 562 818 q 558 755 562 767 q 550 734 554 743 q 534 718 545 725 q 517 708 524 712 q 495 700 510 704 q 473 696 480 697 q 429 693 460 693 "},"Ò":{"x_min":115.296875,"x_max":1105.5,"ha":886,"o":"m 1002 908 q 1071 878 1038 908 q 1105 811 1105 848 q 1087 716 1105 775 q 1035 591 1068 657 q 955 454 1003 525 q 853 317 908 383 q 732 190 798 250 q 598 85 666 130 q 309 -12 450 -12 q 222 13 260 -12 q 163 64 184 39 q 115 224 115 122 q 182 463 115 326 q 367 724 250 601 q 629 924 484 846 q 905 1003 774 1003 q 954 991 931 1003 q 977 964 977 980 q 969 939 977 949 q 955 918 962 929 q 944 902 948 907 q 1002 908 966 908 m 749 594 q 739 581 749 581 q 700 614 730 581 q 670 669 670 647 q 740 788 670 721 q 897 889 811 854 q 676 808 802 883 q 457 627 551 733 q 304 405 362 520 q 246 218 246 290 q 266 142 246 174 q 333 111 286 111 q 446 143 380 111 q 576 229 513 176 q 915 637 793 413 q 965 765 965 729 q 955 779 965 779 q 876 743 927 779 q 786 665 826 708 q 747 603 747 622 l 749 594 m 947 1093 q 927 1069 947 1069 q 895 1075 908 1069 q 873 1091 882 1080 q 860 1111 865 1103 q 849 1133 855 1119 q 834 1167 844 1147 q 802 1219 824 1187 q 769 1268 780 1252 q 757 1296 757 1284 q 790 1326 757 1308 q 840 1344 822 1344 q 864 1342 859 1344 q 873 1336 869 1341 q 880 1325 877 1331 q 887 1308 883 1320 q 893 1286 890 1297 q 922 1190 909 1228 q 947 1093 947 1116 "},"Ď":{"x_min":203.46875,"x_max":1221.484375,"ha":1090,"o":"m 326 664 l 311 666 l 309 666 q 274 680 292 666 q 256 728 256 693 q 294 807 256 763 q 396 888 331 851 q 556 948 460 925 q 758 972 652 972 q 1099 886 976 972 q 1221 663 1221 800 q 1183 493 1221 578 q 1081 335 1145 407 q 931 200 1018 263 q 751 93 845 137 q 362 0 548 0 q 246 14 270 0 q 229 29 238 19 q 216 42 221 39 q 203 77 203 50 q 208 126 203 104 q 391 441 229 198 q 663 832 554 683 q 739 847 670 842 q 779 843 768 847 q 790 828 790 838 q 754 768 790 817 q 528 424 719 719 q 337 122 337 130 q 397 113 337 113 q 544 139 457 113 q 710 206 632 164 q 857 302 787 247 q 978 413 928 356 q 1088 635 1088 538 q 1000 800 1088 732 q 757 868 911 868 q 561 833 653 868 q 434 771 469 798 q 400 735 400 744 q 408 729 400 729 l 437 735 q 443 732 443 735 q 432 722 443 729 q 413 708 420 716 q 377 683 406 700 q 326 664 349 666 m 754 1294 q 776 1313 754 1313 q 819 1297 806 1313 q 838 1271 832 1280 q 852 1242 845 1262 q 863 1213 860 1221 q 882 1150 867 1203 q 1092 1304 1038 1304 q 1114 1287 1100 1304 q 1128 1262 1128 1271 q 1122 1244 1128 1253 q 1103 1223 1116 1234 q 1077 1201 1090 1211 q 1044 1174 1065 1190 q 1008 1144 1024 1158 q 962 1099 992 1131 q 913 1053 932 1068 q 875 1038 894 1038 q 814 1072 830 1038 l 816 1088 q 815 1098 816 1094 q 754 1294 754 1255 "},"&":{"x_min":148.53125,"x_max":775.203125,"ha":627,"o":"m 148 286 q 293 479 148 404 q 238 566 238 510 q 289 672 238 623 q 571 801 389 771 q 656 966 653 961 q 704 1000 668 987 q 752 1012 741 1012 q 775 994 775 1012 q 763 969 775 989 q 678 805 720 887 q 736 788 715 803 q 757 746 757 772 q 739 696 757 720 q 695 659 722 672 q 594 632 644 632 l 588 632 l 561 579 l 569 579 q 608 554 596 579 q 619 521 619 529 q 615 507 619 513 q 601 495 610 501 q 589 486 592 489 q 577 478 585 482 q 563 472 570 474 q 549 467 557 470 q 535 465 540 465 q 513 461 516 461 l 500 457 q 476 409 489 435 q 446 349 463 383 q 419 295 430 315 q 563 364 491 321 q 649 428 636 407 q 672 450 662 450 q 698 430 686 450 q 710 392 710 410 q 659 299 710 349 q 526 210 609 248 q 360 164 444 172 q 285 2 293 14 q 258 -12 278 -10 q 231 -14 239 -14 q 212 -9 223 -14 q 201 0 202 -4 q 197 10 200 4 q 194 27 194 17 q 257 166 194 37 q 178 209 207 177 q 148 286 148 241 m 507 673 q 400 614 449 649 q 350 568 350 580 q 375 556 350 556 q 386 557 377 556 q 414 559 395 558 q 451 563 432 561 q 482 623 463 585 q 507 673 501 661 m 375 411 q 280 307 280 363 q 307 273 280 276 q 342 343 319 296 q 375 411 364 389 "},"˝":{"x_min":305.203125,"x_max":726.375,"ha":555,"o":"m 392 771 q 410 790 400 779 q 426 807 421 802 q 438 820 431 813 q 447 833 444 828 q 454 843 451 837 q 461 864 459 852 q 482 876 463 876 q 516 850 502 876 q 530 807 530 824 q 491 731 530 769 q 406 656 473 709 q 320 602 340 602 q 309 609 313 602 q 305 620 305 615 q 392 771 305 670 m 669 699 q 580 642 649 681 q 491 602 511 602 q 472 620 472 602 q 480 649 472 625 q 600 777 498 696 q 635 815 619 793 q 662 849 652 837 q 686 861 672 861 q 713 837 700 861 q 726 792 726 813 q 669 699 726 738 "},"I":{"x_min":-14.921875,"x_max":741.96875,"ha":389,"o":"m 692 983 l 724 984 q 741 971 741 984 q 740 965 741 967 q 134 30 416 488 q 108 2 120 6 q 101 0 107 2 q 54 -12 67 -12 q 39 -13 40 -12 q 24 -20 33 -20 q 13 -20 16 -20 q -2 -14 10 -19 q -14 -6 -14 -9 q -12 33 -14 26 q 144 304 2 81 q 434 740 286 528 q 613 978 581 953 q 638 985 622 985 l 692 983 "},"G":{"x_min":74.609375,"x_max":1156.375,"ha":878,"o":"m 1156 843 q 1112 759 1156 808 q 1003 666 1068 710 q 874 596 938 622 q 904 601 889 601 q 970 583 954 601 q 974 573 974 579 q 956 547 974 568 q 606 109 765 326 q 721 206 671 160 q 789 231 749 231 q 825 224 818 231 q 832 211 832 217 q 823 200 832 206 q 453 -88 710 101 q 231 -324 409 -138 q 160 -357 199 -357 q 85 -315 85 -357 q 114 -257 85 -297 q 320 -70 156 -195 q 444 65 356 -30 q 645 298 611 246 q 505 174 553 210 q 418 112 458 139 q 343 69 377 86 q 109 69 179 -8 q 74 182 74 107 q 115 347 74 257 q 226 525 157 438 q 390 697 295 613 q 588 843 485 780 q 803 945 690 906 q 1017 983 916 983 q 1082 971 1051 983 q 1125 947 1112 960 q 1156 843 1156 916 m 764 701 l 760 687 q 776 676 760 676 q 889 716 817 676 q 1005 798 961 756 q 1049 868 1049 840 q 1007 891 1049 891 q 839 855 933 891 q 657 760 746 818 q 482 626 569 701 q 332 475 396 550 q 229 326 268 399 q 189 202 189 254 q 201 166 189 182 q 236 151 213 151 q 466 260 307 151 q 830 558 624 369 q 839 568 832 560 q 870 594 854 586 q 779 572 814 572 q 720 588 744 572 q 697 630 697 603 q 721 680 697 657 q 754 704 745 704 q 764 701 764 704 "},"`":{"x_min":364.890625,"x_max":554.109375,"ha":555,"o":"m 554 626 q 534 602 554 602 q 502 608 515 602 q 480 624 489 613 q 467 644 472 636 q 456 666 462 652 q 441 700 451 680 q 409 752 431 720 q 376 801 387 785 q 364 829 364 817 q 397 859 364 841 q 447 877 429 877 q 471 875 466 877 q 480 869 476 874 q 487 858 484 864 q 494 841 490 853 q 500 819 497 830 q 529 723 516 761 q 554 626 554 649 "},"·":{"x_min":160.734375,"x_max":326.90625,"ha":346,"o":"m 204 269 q 160 321 160 269 q 196 428 160 373 q 279 484 231 484 q 326 429 326 484 q 290 321 326 373 q 204 269 255 269 "},"ŏ":{"x_min":14.25,"x_max":717.5625,"ha":509,"o":"m 502 516 q 544 498 522 516 q 565 442 565 480 q 539 344 565 404 q 466 222 512 284 q 365 106 420 160 q 245 16 309 51 q 129 -18 181 -18 q 45 14 77 -18 q 14 106 14 47 q 43 236 14 164 q 117 361 71 307 q 215 459 162 416 q 409 548 326 548 q 465 530 446 548 q 472 519 472 524 l 472 515 q 502 516 482 516 m 434 426 l 429 426 q 405 461 405 426 q 301 404 356 444 q 204 307 247 363 q 116 120 118 196 q 144 82 116 82 q 227 118 172 82 q 336 223 282 155 q 416 340 389 290 q 443 408 443 390 q 434 426 443 426 m 301 828 q 310 851 301 839 q 333 862 318 862 q 360 850 348 862 q 386 807 373 837 q 406 766 400 777 q 430 747 413 755 q 472 739 447 739 q 523 752 496 739 q 571 784 551 765 q 608 822 590 803 q 681 866 651 866 q 703 850 689 866 q 717 824 717 834 q 704 793 717 815 q 668 744 691 771 q 615 690 644 716 q 475 629 548 629 q 352 688 402 629 q 301 828 301 748 "},"¿":{"x_min":74.609375,"x_max":853.203125,"ha":745,"o":"m 596 242 q 585 255 585 242 q 613 302 585 286 q 680 318 641 318 q 751 292 718 318 q 783 235 783 265 q 741 127 783 179 q 636 40 699 75 q 354 -37 495 -37 q 113 54 191 -37 q 74 162 74 102 q 94 268 74 221 q 150 350 115 315 q 229 415 185 385 q 323 472 272 445 q 420 523 373 499 q 588 638 533 583 q 604 697 611 661 q 611 716 602 708 q 638 724 621 724 q 665 722 655 724 q 690 716 675 720 q 723 672 723 706 q 668 556 723 607 q 503 444 623 514 q 324 333 383 373 q 193 162 193 244 q 345 73 193 73 q 478 99 406 73 q 600 166 550 125 q 650 247 650 208 q 643 253 650 250 q 629 257 636 257 q 610 249 622 257 q 596 242 598 242 m 703 874 q 738 952 703 912 q 813 991 774 991 q 853 950 853 991 q 818 872 853 909 q 741 835 783 835 q 713 845 724 835 q 703 874 703 855 "},"ý":{"x_min":-4.75,"x_max":674.15625,"ha":542,"o":"m 247 -225 q 226 -259 244 -228 q 189 -321 209 -290 q 141 -381 170 -353 q 93 -412 112 -410 q 68 -415 73 -415 q 6 -352 6 -415 q 82 -179 6 -278 q 155 -98 111 -141 q 204 -49 200 -55 q 305 140 208 -44 q 185 24 240 69 q 78 -25 129 -19 l 73 -25 q 21 -7 46 -25 q -4 52 -4 9 q 29 177 -4 117 q 72 248 42 198 q 128 345 102 299 q 178 432 152 383 q 217 503 204 482 q 243 524 231 524 q 275 509 255 524 q 294 473 294 494 q 205 290 294 452 q 116 107 116 129 q 122 101 116 101 q 203 153 140 101 q 341 286 265 205 q 474 451 426 377 q 484 466 480 461 q 494 479 488 471 q 503 493 499 488 q 512 504 507 497 q 521 514 517 510 q 530 520 525 517 q 546 527 537 527 q 574 523 556 527 q 597 514 593 519 q 604 505 600 510 q 611 492 611 498 q 606 475 611 485 q 543 367 600 464 q 309 -50 373 81 q 600 206 413 36 q 615 212 607 212 q 636 148 636 212 q 629 123 636 129 q 247 -225 426 -32 m 617 718 q 515 654 598 701 q 412 607 432 607 q 392 625 392 607 q 395 638 392 631 q 439 709 410 677 q 504 770 469 741 q 566 817 539 798 q 602 845 592 836 q 617 867 613 855 q 635 879 621 879 q 661 856 649 879 q 674 811 674 832 q 617 718 674 756 "},"º":{"x_min":95.625,"x_max":544.609375,"ha":309,"o":"m 537 710 q 437 518 505 602 q 269 398 369 433 q 248 394 255 394 q 202 426 219 394 q 184 486 184 457 q 205 559 184 514 q 257 649 225 603 q 411 825 360 797 q 466 837 432 837 q 522 814 499 837 q 544 760 544 791 q 537 710 544 729 m 234 352 l 316 356 q 344 348 337 356 q 351 318 351 340 q 319 272 351 274 q 293 271 309 271 l 244 272 l 116 259 q 95 302 95 259 q 122 348 95 345 q 196 352 164 352 l 234 352 m 457 769 q 440 760 449 769 q 328 634 381 711 q 250 483 275 556 q 248 463 248 474 l 257 468 q 388 603 330 528 q 458 747 446 678 q 460 762 460 755 q 457 769 460 769 "},"ź":{"x_min":-2.71875,"x_max":628.71875,"ha":499,"o":"m 354 433 q 97 412 134 419 l 95 412 q 82 429 82 412 q 103 478 82 447 q 155 518 124 508 q 224 528 186 527 q 487 547 379 531 q 506 554 489 547 q 538 560 524 560 q 563 545 552 560 q 575 507 575 531 q 563 472 575 484 q 519 451 551 460 q 150 95 222 219 q 264 119 172 102 q 525 187 503 163 q 540 193 532 193 q 559 187 549 193 q 569 128 569 181 q 555 91 569 113 q 523 61 541 69 q 327 23 505 53 q 70 -18 90 -18 q 44 -17 50 -18 q 35 -16 39 -16 q 27 -14 31 -15 q 21 -12 23 -12 q 16 -9 19 -11 q 13 -6 14 -7 q 4 1 12 -6 q -2 36 -2 8 q 0 70 -2 65 q 83 192 32 132 q 174 286 134 251 q 274 368 215 320 q 354 433 334 415 m 571 724 q 470 659 553 706 q 366 613 386 613 q 346 630 346 613 q 349 643 346 636 q 394 715 364 682 q 459 775 423 747 q 520 823 494 804 q 557 851 547 841 q 571 872 567 860 q 590 885 576 885 q 616 861 603 885 q 628 817 628 838 q 571 724 628 761 "},"ű":{"x_min":0,"x_max":737.90625,"ha":549,"o":"m 616 212 q 632 193 629 212 q 634 152 634 173 q 630 123 634 131 q 544 30 611 85 q 418 -23 478 -23 q 350 -1 381 -23 q 319 75 319 20 q 348 183 319 130 q 84 -27 180 -27 q 23 0 46 -27 q 0 55 0 26 q 8 114 0 84 q 25 170 16 145 q 52 230 34 194 q 79 282 70 266 q 107 331 88 299 q 158 420 126 364 q 210 502 189 476 q 250 530 231 529 q 285 514 270 530 q 300 487 300 497 q 255 396 300 477 q 120 113 120 153 q 128 103 120 103 q 290 244 160 103 q 440 424 419 385 q 479 491 460 464 q 508 524 499 518 q 583 545 537 543 q 595 544 591 545 q 604 533 599 543 q 610 516 610 522 q 556 415 604 497 q 503 322 508 333 q 423 106 423 156 q 444 78 423 78 q 539 141 484 83 q 580 183 560 162 q 604 209 600 205 q 616 212 609 212 m 404 788 q 422 808 411 796 q 437 825 432 819 q 449 838 442 830 q 459 850 456 846 q 465 861 462 855 q 473 882 471 870 q 494 893 474 893 q 528 868 514 893 q 541 824 541 842 q 503 749 541 786 q 418 673 484 727 q 332 620 352 620 q 320 626 324 620 q 316 638 316 632 q 404 788 316 688 m 680 717 q 592 659 661 699 q 503 620 522 620 q 483 638 483 620 q 492 666 483 642 q 611 795 510 714 q 647 833 630 811 q 673 867 663 855 q 697 878 683 878 q 725 855 712 878 q 737 810 737 831 q 680 717 737 756 "},"Ǽ":{"x_min":40.6875,"x_max":1539.5625,"ha":1399,"o":"m 947 951 q 977 998 968 998 l 980 998 q 1022 976 990 998 q 1053 935 1053 954 q 1042 900 1053 929 q 1209 964 1121 940 q 1348 987 1298 987 q 1483 974 1441 987 q 1523 940 1508 962 q 1539 902 1539 918 q 1535 873 1539 886 q 1521 853 1531 860 q 1491 837 1508 843 q 1471 830 1474 832 q 1380 808 1418 808 q 1306 826 1313 808 q 1321 866 1308 843 q 1188 840 1257 864 q 1068 785 1119 817 q 985 720 1018 754 q 952 663 952 686 q 1106 619 952 619 q 1163 627 1144 619 q 1281 650 1211 650 q 1351 614 1351 650 q 1339 572 1351 600 q 1322 539 1327 545 q 1278 522 1316 533 q 1229 511 1240 512 q 1214 509 1218 510 q 1205 507 1210 508 q 1182 504 1200 507 q 1157 504 1165 501 q 848 261 932 394 q 810 159 810 202 q 903 92 810 92 q 1087 149 975 92 q 1286 287 1199 206 q 1372 427 1372 368 q 1401 446 1372 446 q 1467 368 1467 446 q 1435 281 1467 332 q 1346 179 1403 231 q 1219 82 1289 127 q 1064 9 1149 37 q 904 -18 979 -18 q 769 16 828 -18 q 693 122 710 52 q 628 8 651 37 q 586 -27 604 -19 q 549 -35 569 -35 q 516 -40 529 -35 q 499 -44 502 -44 q 478 -34 478 -44 q 483 -17 478 -32 q 638 311 489 -3 q 358 320 479 317 q 148 15 242 174 q 126 -15 137 -6 q 99 -25 116 -25 q 61 -7 81 -25 q 40 34 40 10 q 215 324 40 102 q 111 320 133 324 q 83 316 89 316 q 65 347 65 316 q 101 401 65 378 q 198 425 137 425 q 215 425 203 425 q 301 429 257 427 q 611 751 449 602 q 890 959 772 900 q 920 968 909 969 q 947 951 931 968 m 900 855 q 447 429 652 668 q 690 419 567 426 q 900 855 813 678 m 890 550 q 829 416 859 482 q 972 518 890 470 q 890 550 921 529 m 1355 1178 q 1254 1113 1337 1160 q 1150 1066 1170 1066 q 1130 1084 1130 1066 q 1134 1097 1130 1090 q 1178 1169 1148 1136 q 1243 1229 1207 1201 q 1304 1276 1278 1258 q 1341 1304 1331 1295 q 1355 1326 1351 1314 q 1374 1338 1360 1338 q 1400 1315 1387 1338 q 1412 1271 1412 1292 q 1355 1178 1412 1215 "},"ń":{"x_min":-44.765625,"x_max":712.140625,"ha":543,"o":"m 396 104 q 436 74 396 74 q 491 96 458 74 q 550 143 524 118 q 630 213 621 213 q 648 162 648 213 q 616 92 648 111 q 466 -13 519 5 q 400 -23 436 -23 q 329 8 364 -22 q 294 82 294 38 q 317 181 294 126 q 364 277 340 237 q 423 369 388 316 q 461 434 459 421 l 459 436 q 348 347 437 434 q 202 198 260 261 q 65 27 145 134 q 28 -1 42 -1 q -9 7 14 -1 q -39 21 -33 16 q -44 33 -44 25 q -40 53 -44 41 q -30 72 -35 65 q -16 96 -26 80 q 24 165 -6 113 q 116 322 54 218 q 191 448 179 427 q 233 514 217 493 q 336 552 263 552 q 352 532 352 552 q 293 412 352 500 l 265 369 q 463 534 382 499 q 534 551 502 551 q 584 534 565 551 q 602 496 602 517 q 588 447 602 476 q 559 395 574 418 q 521 338 545 373 q 495 300 497 303 q 485 284 493 297 q 472 265 476 271 q 459 243 468 259 q 443 218 449 228 q 429 193 438 208 q 416 167 421 178 q 405 143 411 156 q 396 104 396 120 m 655 742 q 553 678 636 725 q 450 631 470 631 q 430 649 430 631 q 433 661 430 655 q 477 733 448 701 q 542 794 507 765 q 604 841 577 822 q 640 869 630 859 q 655 891 651 878 q 673 903 659 903 q 699 879 687 903 q 712 835 712 856 q 655 742 712 779 "},";":{"x_min":67.828125,"x_max":476.796875,"ha":477,"o":"m 427 487 q 476 440 476 487 q 444 367 476 402 q 372 331 411 331 q 323 380 323 331 q 355 454 323 421 q 427 487 387 487 m 201 100 q 254 81 235 100 q 273 29 273 62 q 250 -33 273 -2 q 182 -97 227 -63 q 115 -130 137 -130 q 85 -122 94 -130 q 72 -113 77 -114 q 67 -101 67 -111 q 73 -86 67 -90 q 100 -51 78 -82 q 126 -9 122 -19 q 115 23 115 0 q 142 73 115 46 q 201 100 168 100 "},"Ġ":{"x_min":74.609375,"x_max":1156.375,"ha":878,"o":"m 1156 843 q 1112 759 1156 808 q 1003 666 1068 710 q 874 596 938 622 q 904 601 889 601 q 970 583 954 601 q 974 573 974 579 q 956 547 974 568 q 606 109 765 326 q 721 206 671 160 q 789 231 749 231 q 825 224 818 231 q 832 211 832 217 q 823 200 832 206 q 453 -88 710 101 q 231 -324 409 -138 q 160 -357 199 -357 q 85 -315 85 -357 q 114 -257 85 -297 q 320 -70 156 -195 q 444 65 356 -30 q 645 298 611 246 q 505 174 553 210 q 418 112 458 139 q 343 69 377 86 q 109 69 179 -8 q 74 182 74 107 q 115 347 74 257 q 226 525 157 438 q 390 697 295 613 q 588 843 485 780 q 803 945 690 906 q 1017 983 916 983 q 1082 971 1051 983 q 1125 947 1112 960 q 1156 843 1156 916 m 764 701 l 760 687 q 776 676 760 676 q 889 716 817 676 q 1005 798 961 756 q 1049 868 1049 840 q 1007 891 1049 891 q 839 855 933 891 q 657 760 746 818 q 482 626 569 701 q 332 475 396 550 q 229 326 268 399 q 189 202 189 254 q 201 166 189 182 q 236 151 213 151 q 466 260 307 151 q 830 558 624 369 q 839 568 832 560 q 870 594 854 586 q 779 572 814 572 q 720 588 744 572 q 697 630 697 603 q 721 680 697 657 q 754 704 745 704 q 764 701 764 704 m 1047 1252 q 1087 1234 1070 1252 q 1104 1178 1104 1216 q 1071 1102 1104 1140 q 983 1063 1039 1063 q 940 1082 957 1063 q 924 1136 924 1100 q 957 1211 924 1171 q 1047 1252 990 1252 "},"6":{"x_min":50.859375,"x_max":783.34375,"ha":570,"o":"m 295 423 q 499 512 423 512 q 560 489 532 512 q 590 417 589 465 q 566 309 591 370 q 498 189 542 248 q 399 83 454 131 q 278 4 345 34 q 147 -25 210 -25 q 79 6 108 -25 q 50 88 50 37 q 51 100 50 96 q 267 545 69 295 q 403 685 327 621 q 543 784 478 748 q 727 858 677 858 q 783 794 783 858 q 771 760 783 765 q 516 635 630 714 q 295 423 402 556 m 430 413 q 326 379 390 413 q 225 312 261 345 q 153 111 153 180 q 176 76 153 76 q 245 103 198 76 q 346 180 292 130 q 436 285 400 231 q 471 367 472 340 q 458 403 470 394 q 430 413 445 413 "},"n":{"x_min":-44.765625,"x_max":648.375,"ha":543,"o":"m 396 104 q 436 74 396 74 q 491 96 458 74 q 550 143 524 118 q 630 213 621 213 q 648 162 648 213 q 616 92 648 111 q 466 -13 519 5 q 400 -23 436 -23 q 329 8 364 -22 q 294 82 294 38 q 317 181 294 126 q 364 277 340 237 q 423 369 388 316 q 461 434 459 421 l 459 436 q 348 347 437 434 q 202 198 260 261 q 65 27 145 134 q 28 -1 42 -1 q -9 7 14 -1 q -39 21 -33 16 q -44 33 -44 25 q -40 53 -44 41 q -30 72 -35 65 q -16 96 -26 80 q 24 165 -6 113 q 116 322 54 218 q 191 448 179 427 q 233 514 217 493 q 336 552 263 552 q 352 532 352 552 q 293 412 352 500 l 265 369 q 463 534 382 499 q 534 551 502 551 q 584 534 565 551 q 602 496 602 517 q 588 447 602 476 q 559 395 574 418 q 521 338 545 373 q 495 300 497 303 q 485 284 493 297 q 472 265 476 271 q 459 243 468 259 q 443 218 449 228 q 429 193 438 208 q 416 167 421 178 q 405 143 411 156 q 396 104 396 120 "},"ģ":{"x_min":-6.109375,"x_max":680.59375,"ha":581,"o":"m 253 450 q 381 520 318 495 q 491 544 444 544 q 550 518 537 544 q 615 550 576 548 q 644 551 627 551 q 665 546 661 551 q 672 530 669 542 q 676 516 676 518 q 677 512 677 515 q 674 504 677 509 q 666 496 670 500 q 661 491 661 492 q 354 1 511 276 q 643 206 516 144 q 659 210 651 210 q 673 197 670 210 q 676 157 676 183 q 673 125 676 131 q 642 101 670 119 q 568 53 613 82 q 472 -10 522 24 q 271 -189 349 -95 q 125 -387 169 -311 q 70 -416 109 -416 q -6 -343 -6 -416 q 66 -192 -6 -269 q 166 -98 120 -134 q 215 -56 211 -61 q 352 156 265 18 q 209 34 278 80 q 107 -10 141 -10 q 3 78 3 -10 q 39 220 3 148 q 131 348 75 292 q 253 450 187 405 m 511 467 q 363 412 432 451 q 249 328 294 373 q 172 237 204 284 q 111 101 111 149 q 117 90 111 90 q 142 102 122 90 q 199 144 162 114 q 280 214 236 173 q 511 467 384 309 m 543 615 q 491 635 508 615 q 474 687 474 655 q 497 749 474 718 q 565 813 520 780 q 641 847 610 847 q 662 839 656 847 q 674 830 669 832 q 680 818 680 828 q 675 804 680 808 q 647 768 669 799 q 621 726 625 736 q 632 692 632 715 q 605 642 632 670 q 543 615 579 615 "},"¤":{"x_min":126.09375,"x_max":773.046875,"ha":695,"o":"m 212 347 q 314 569 212 478 q 291 604 304 583 q 253 652 278 626 q 225 687 228 678 q 237 700 222 695 q 295 694 251 706 q 354 661 339 682 q 386 619 377 632 q 535 655 457 655 q 611 623 570 655 q 675 670 630 638 q 736 715 719 702 q 764 726 754 727 q 766 669 780 724 q 762 652 766 661 l 755 635 q 726 599 749 621 q 664 543 702 577 q 666 526 666 532 q 581 278 666 381 q 592 250 585 267 q 601 124 621 178 q 566 65 581 71 q 545 78 553 59 q 537 101 543 83 l 520 152 q 501 208 509 185 q 376 166 433 166 q 278 195 318 166 q 174 87 184 101 q 146 67 160 66 q 127 132 120 70 q 138 177 129 153 q 151 206 146 201 q 169 225 160 217 q 185 239 179 233 q 204 257 191 245 q 223 275 217 269 q 212 347 212 309 m 302 356 q 385 269 302 269 q 470 305 425 269 q 541 392 516 341 q 567 481 567 442 q 550 540 567 520 q 518 560 534 560 q 434 539 476 560 q 364 485 393 517 q 302 356 302 415 "},"∂":{"x_min":9.5,"x_max":624.640625,"ha":528,"o":"m 549 968 q 605 854 587 923 q 624 690 624 784 q 598 489 624 596 q 524 292 572 383 q 414 132 476 202 q 276 21 352 61 q 120 -18 199 -18 q 41 14 72 -18 q 9 100 9 47 q 36 216 9 152 q 109 336 63 280 q 212 436 155 392 q 458 535 337 535 q 505 518 492 535 q 524 709 524 606 q 499 861 524 811 q 444 911 473 911 q 393 895 415 911 q 360 859 372 878 q 303 808 329 808 q 259 824 276 808 q 242 853 242 840 q 262 892 242 866 q 311 945 282 918 q 381 992 341 972 q 466 1012 422 1012 q 549 968 510 1012 m 465 404 q 451 435 487 435 q 343 399 404 435 q 232 314 282 363 q 146 209 181 264 q 111 118 111 155 q 139 82 111 82 q 296 161 208 82 q 465 404 383 240 "},"Ĝ":{"x_min":74.609375,"x_max":1207.71875,"ha":878,"o":"m 1156 843 q 1112 759 1156 808 q 1003 666 1068 710 q 874 596 938 622 q 904 601 889 601 q 970 583 954 601 q 974 573 974 579 q 956 547 974 568 q 606 109 765 326 q 721 206 671 160 q 789 231 749 231 q 825 224 818 231 q 832 211 832 217 q 823 200 832 206 q 453 -88 710 101 q 231 -324 409 -138 q 160 -357 199 -357 q 85 -315 85 -357 q 114 -257 85 -297 q 320 -70 156 -195 q 444 65 356 -30 q 645 298 611 246 q 505 174 553 210 q 418 112 458 139 q 343 69 377 86 q 109 69 179 -8 q 74 182 74 107 q 115 347 74 257 q 226 525 157 438 q 390 697 295 613 q 588 843 485 780 q 803 945 690 906 q 1017 983 916 983 q 1082 971 1051 983 q 1125 947 1112 960 q 1156 843 1156 916 m 764 701 l 760 687 q 776 676 760 676 q 889 716 817 676 q 1005 798 961 756 q 1049 868 1049 840 q 1007 891 1049 891 q 839 855 933 891 q 657 760 746 818 q 482 626 569 701 q 332 475 396 550 q 229 326 268 399 q 189 202 189 254 q 201 166 189 182 q 236 151 213 151 q 466 260 307 151 q 830 558 624 369 q 839 568 832 560 q 870 594 854 586 q 779 572 814 572 q 720 588 744 572 q 697 630 697 603 q 721 680 697 657 q 754 704 745 704 q 764 701 764 704 m 1207 1068 q 1187 1049 1207 1049 q 1153 1055 1167 1049 q 1128 1070 1138 1060 q 1109 1092 1117 1081 q 1095 1121 1101 1103 q 1084 1151 1088 1139 q 1074 1183 1080 1163 q 1065 1214 1068 1204 q 947 1115 1022 1170 q 839 1060 872 1060 q 824 1075 824 1060 q 830 1103 824 1089 q 853 1132 837 1116 q 880 1158 869 1148 q 916 1188 891 1168 q 1049 1311 1006 1261 q 1086 1325 1057 1325 q 1133 1305 1115 1325 q 1157 1264 1152 1286 q 1167 1215 1162 1242 q 1172 1184 1171 1188 q 1180 1164 1174 1180 q 1190 1140 1186 1148 q 1198 1117 1193 1131 q 1207 1068 1207 1087 "},"p":{"x_min":-270.59375,"x_max":599.90625,"ha":543,"o":"m 418 721 l 431 722 q 447 705 441 722 q 453 681 453 687 q 439 658 453 675 l 246 364 q 453 512 348 465 q 526 530 494 530 q 579 509 559 530 q 599 455 599 487 q 582 377 599 423 q 534 277 564 330 q 461 170 504 224 q 371 73 418 117 q 268 3 323 30 q 170 -23 212 -23 q 85 54 85 -23 q -97 -233 6 -67 q -208 -408 -201 -399 q -221 -418 -216 -418 q -236 -412 -226 -418 q -258 -392 -247 -406 q -270 -350 -270 -377 q -254 -295 -270 -323 q 98 278 -163 -143 q 381 714 359 699 q 405 722 393 722 l 418 721 m 478 409 q 464 423 478 423 q 309 311 428 423 q 121 105 191 198 q 173 84 139 84 q 263 121 208 84 q 365 209 318 158 q 445 317 412 261 q 478 409 478 373 "},"‡":{"x_min":40.015625,"x_max":786.0625,"ha":576,"o":"m 76 -167 q 64 -159 65 -163 q 63 -131 63 -155 q 181 122 63 -107 q 102 119 123 119 l 92 119 q 56 127 73 119 q 40 147 40 136 q 50 168 40 158 q 62 184 60 179 q 98 218 67 199 q 147 238 129 237 q 244 244 204 242 q 442 613 364 474 q 335 609 383 609 l 326 609 q 290 618 307 609 q 273 637 273 626 q 283 659 273 649 q 295 674 293 669 q 331 708 300 689 q 380 729 363 727 q 509 735 459 734 q 634 940 615 924 q 653 946 640 946 l 689 945 l 717 946 q 732 934 732 946 q 710 892 732 931 q 626 739 687 853 l 687 739 q 739 735 731 739 q 758 718 748 731 q 777 697 768 704 q 786 676 786 690 q 768 652 786 663 q 731 640 750 641 l 564 623 l 364 248 l 425 248 q 478 245 470 248 q 497 227 486 241 q 516 207 507 214 q 524 186 524 200 q 507 162 524 172 q 470 149 489 151 l 305 132 q 170 -130 270 66 q 152 -151 162 -147 q 108 -166 122 -166 l 91 -171 q 76 -167 87 -171 "},"ň":{"x_min":-44.765625,"x_max":723.65625,"ha":543,"o":"m 396 104 q 436 74 396 74 q 491 96 458 74 q 550 143 524 118 q 630 213 621 213 q 648 162 648 213 q 616 92 648 111 q 466 -13 519 5 q 400 -23 436 -23 q 329 8 364 -22 q 294 82 294 38 q 317 181 294 126 q 364 277 340 237 q 423 369 388 316 q 461 434 459 421 l 459 436 q 348 347 437 434 q 202 198 260 261 q 65 27 145 134 q 28 -1 42 -1 q -9 7 14 -1 q -39 21 -33 16 q -44 33 -44 25 q -40 53 -44 41 q -30 72 -35 65 q -16 96 -26 80 q 24 165 -6 113 q 116 322 54 218 q 191 448 179 427 q 233 514 217 493 q 336 552 263 552 q 352 532 352 552 q 293 412 352 500 l 265 369 q 463 534 382 499 q 534 551 502 551 q 584 534 565 551 q 602 496 602 517 q 588 447 602 476 q 559 395 574 418 q 521 338 545 373 q 495 300 497 303 q 485 284 493 297 q 472 265 476 271 q 459 243 468 259 q 443 218 449 228 q 429 193 438 208 q 416 167 421 178 q 405 143 411 156 q 396 104 396 120 m 349 887 q 372 906 349 906 q 414 889 401 906 q 434 864 427 872 q 448 834 440 855 q 458 805 455 813 q 477 742 462 795 q 687 896 634 896 q 709 880 695 896 q 723 854 723 864 q 717 836 723 845 q 698 815 711 827 q 673 793 685 803 q 640 767 660 783 q 603 737 619 750 q 558 692 588 723 q 509 646 528 661 q 470 631 489 631 q 409 664 425 631 l 412 680 q 411 691 412 687 q 349 887 349 847 "},"ę":{"x_min":10.859375,"x_max":508.671875,"ha":441,"o":"m 221 -262 q 171 -232 196 -262 q 147 -167 147 -202 q 171 -92 147 -132 q 237 -23 196 -53 q 192 -26 221 -26 q 133 -20 164 -26 q 74 -1 103 -14 q 10 98 10 27 q 140 240 10 191 q 107 269 114 251 q 99 327 99 287 q 136 411 99 366 q 227 484 173 455 q 440 548 346 548 q 485 537 462 548 q 508 507 508 526 q 472 428 508 462 q 389 394 436 394 q 370 401 375 394 q 365 420 365 408 q 368 442 365 432 q 314 417 343 434 q 240 367 284 400 q 197 318 197 334 q 213 312 197 312 q 262 323 229 312 q 308 335 295 335 q 326 333 322 335 q 345 313 335 328 q 355 287 355 297 q 337 263 355 278 q 297 241 320 248 q 267 229 275 233 q 124 119 124 149 q 215 66 124 66 q 330 103 272 66 q 420 166 380 134 q 470 206 459 198 q 486 213 480 213 q 503 174 503 213 q 499 122 503 134 q 472 91 494 109 q 395 37 451 73 q 313 -19 340 0 q 258 -77 286 -40 q 230 -133 230 -115 q 238 -157 230 -151 q 332 -133 274 -157 q 404 -109 390 -109 q 413 -132 413 -109 q 409 -168 413 -154 q 337 -236 387 -210 q 221 -262 286 -262 "},"S":{"x_min":95.625,"x_max":1138.734375,"ha":928,"o":"m 185 186 l 176 168 q 231 130 176 148 q 353 112 286 112 q 498 132 419 112 q 636 180 577 151 q 733 240 695 208 q 771 294 771 271 q 703 348 771 323 q 506 403 636 373 q 317 480 377 434 q 257 592 257 526 q 305 718 257 658 q 428 826 352 779 q 595 909 505 872 q 941 984 781 984 q 1049 973 1002 984 q 1138 918 1138 952 q 1132 871 1138 883 q 1122 854 1126 858 q 1113 846 1119 850 q 1104 840 1107 842 q 941 809 1074 815 q 891 804 895 807 q 884 801 887 801 q 876 807 881 801 q 872 824 872 812 q 899 869 872 836 q 722 831 816 864 q 559 756 628 798 q 444 674 490 714 q 398 617 398 634 q 408 590 398 600 q 566 526 436 559 q 745 470 700 491 q 819 430 790 449 q 866 392 849 411 q 908 295 908 344 q 882 204 908 246 q 803 121 855 161 q 679 50 750 81 q 307 -19 523 -19 q 107 63 150 -19 q 95 107 95 84 q 106 148 95 130 q 131 176 116 166 q 172 194 160 194 q 185 186 185 194 "},"/":{"x_min":-107.84375,"x_max":923.734375,"ha":526,"o":"m 923 1052 q 923 1044 923 1051 q 923 1034 923 1038 q 906 984 920 1007 q 554 576 826 868 q 333 336 444 459 q -42 -136 67 45 q -48 -150 -44 -139 q -71 -169 -56 -169 q -96 -141 -86 -169 q -107 -76 -107 -113 q -103 -21 -107 -39 q -54 59 -98 -2 q 79 231 -11 121 q 281 462 170 342 q 481 677 392 583 q 697 901 571 771 q 853 1062 822 1030 q 887 1098 883 1094 q 892 1103 890 1101 q 906 1109 900 1109 q 923 1052 923 1109 "},"į":{"x_min":-12.890625,"x_max":483.578125,"ha":281,"o":"m 61 -269 q 11 -239 35 -269 q -12 -178 -12 -208 q 14 -97 -12 -147 q 74 -12 42 -47 q 25 30 44 3 q 6 88 6 58 q 44 189 6 118 q 118 321 81 261 q 155 386 155 381 q 142 406 155 392 q 128 428 128 421 q 156 466 128 436 q 224 525 184 496 q 286 555 265 555 q 324 536 307 555 q 341 501 341 517 q 180 208 341 486 q 169 190 178 204 q 154 167 160 176 q 143 145 149 158 q 129 99 129 118 q 160 76 129 76 q 225 98 191 76 q 283 145 259 119 q 356 213 347 213 q 373 152 373 213 q 307 46 373 101 q 143 -27 230 -19 q 70 -147 70 -116 q 78 -164 70 -158 q 172 -140 113 -164 q 244 -116 230 -116 q 253 -139 253 -116 q 249 -174 253 -161 q 177 -243 227 -217 q 61 -269 126 -269 m 483 744 q 447 667 483 706 q 372 628 411 628 q 333 668 333 628 q 367 746 333 709 q 443 783 402 783 q 472 773 461 783 q 483 744 483 763 "},"Ŧ":{"x_min":223.8125,"x_max":1194.34375,"ha":787,"o":"m 554 444 q 345 438 364 441 q 333 465 333 438 q 381 558 333 558 q 624 552 386 558 q 651 593 630 562 q 679 637 671 624 q 704 675 687 649 q 733 717 722 701 q 790 792 763 760 q 503 746 607 746 q 354 759 400 746 q 295 789 309 773 q 280 823 280 806 q 282 857 280 841 q 323 912 284 891 q 386 934 361 934 q 411 927 411 934 q 400 907 411 919 q 389 889 389 894 q 545 868 389 868 q 906 909 702 868 q 1107 1004 1022 1004 q 1182 972 1163 1004 q 1194 934 1194 953 q 1172 896 1194 915 q 1112 864 1150 877 q 952 825 1045 839 q 843 671 914 775 q 764 555 772 567 q 959 576 933 569 q 994 583 986 583 q 1009 553 1009 583 q 991 502 1009 522 q 949 472 973 482 q 891 455 924 461 q 787 445 841 445 q 691 444 733 445 q 631 347 668 407 q 571 249 594 287 q 515 161 547 210 q 458 82 483 112 q 406 23 434 51 q 301 -33 352 -33 q 246 -16 269 -33 q 223 38 223 0 q 266 134 223 77 q 328 208 308 191 q 354 224 347 224 q 361 215 361 224 l 358 201 q 361 193 358 197 q 370 190 365 190 q 378 193 376 190 q 390 210 380 196 q 416 245 400 224 q 451 295 431 266 q 554 444 487 345 "},"y":{"x_min":-4.75,"x_max":636.171875,"ha":542,"o":"m 247 -225 q 226 -259 244 -228 q 189 -321 209 -290 q 141 -381 170 -353 q 93 -412 112 -410 q 68 -415 73 -415 q 6 -352 6 -415 q 82 -179 6 -278 q 155 -98 111 -141 q 204 -49 200 -55 q 305 140 208 -44 q 185 24 240 69 q 78 -25 129 -19 l 73 -25 q 21 -7 46 -25 q -4 52 -4 9 q 29 177 -4 117 q 72 248 42 198 q 128 345 102 299 q 178 432 152 383 q 217 503 204 482 q 243 524 231 524 q 275 509 255 524 q 294 473 294 494 q 205 290 294 452 q 116 107 116 129 q 122 101 116 101 q 203 153 140 101 q 341 286 265 205 q 474 451 426 377 q 484 466 480 461 q 494 479 488 471 q 503 493 499 488 q 512 504 507 497 q 521 514 517 510 q 530 520 525 517 q 546 527 537 527 q 574 523 556 527 q 597 514 593 519 q 604 505 600 510 q 611 492 611 498 q 606 475 611 485 q 543 367 600 464 q 309 -50 373 81 q 600 206 413 36 q 615 212 607 212 q 636 148 636 212 q 629 123 636 129 q 247 -225 426 -32 "},"≈":{"x_min":135.640625,"x_max":728.40625,"ha":644,"o":"m 480 616 q 512 585 494 599 q 552 571 529 571 q 597 578 575 571 q 632 597 619 586 q 653 620 644 609 q 692 647 675 647 q 718 629 709 647 q 728 591 728 611 q 722 560 728 571 q 647 477 697 508 q 554 446 597 446 q 487 455 511 446 q 447 478 463 465 q 418 505 432 492 q 364 539 386 539 q 324 529 343 539 q 293 505 306 519 q 267 478 280 492 q 209 444 237 444 q 197 454 202 444 q 191 487 191 463 q 213 546 191 511 q 267 606 236 581 q 376 661 337 661 q 440 647 415 661 q 480 616 466 632 m 424 409 q 456 378 438 392 q 497 364 474 364 q 542 372 520 364 q 576 391 564 379 q 598 413 589 402 q 637 440 619 440 q 663 422 654 440 q 672 384 672 404 q 667 353 672 364 q 592 270 642 301 q 498 239 541 239 q 431 248 455 239 q 392 271 407 258 q 362 299 376 285 q 309 332 330 332 q 269 322 287 332 q 237 298 250 312 q 211 271 224 284 q 153 238 181 238 q 141 247 147 238 q 135 280 135 256 q 158 339 135 304 q 212 399 181 375 q 320 454 282 454 q 385 440 359 454 q 424 409 411 425 "},"ǿ":{"x_min":-43.40625,"x_max":675.515625,"ha":509,"o":"m 675 689 q 645 635 675 678 q 533 505 615 592 q 565 445 565 486 q 539 344 565 404 q 466 222 512 284 q 365 106 420 160 q 245 16 309 51 q 125 -18 181 -18 q 82 -10 105 -18 q -3 -145 3 -126 q -13 -166 -10 -163 q -22 -169 -16 -169 q -43 -128 -43 -169 q -40 -73 -43 -86 q -20 -39 -37 -61 q 33 29 -4 -18 q 14 110 14 56 q 43 236 14 164 q 117 361 71 307 q 215 459 162 416 q 409 548 326 548 q 467 527 449 548 q 647 717 550 616 q 663 729 658 729 q 675 689 675 729 m 337 225 q 416 340 389 290 q 443 413 443 390 q 150 82 257 223 q 232 122 181 86 q 337 225 284 159 m 202 305 q 117 130 126 206 q 405 460 248 289 l 405 461 q 301 404 356 444 q 202 305 247 363 m 592 741 q 490 676 573 723 q 386 630 406 630 q 366 647 366 630 q 370 660 366 653 q 414 732 385 699 q 479 792 444 764 q 541 839 514 821 q 577 868 567 858 q 592 889 588 877 q 610 902 596 902 q 636 878 623 902 q 649 834 649 855 q 592 741 649 778 "},"g":{"x_min":-6.109375,"x_max":677.546875,"ha":581,"o":"m 253 450 q 381 520 318 495 q 491 544 444 544 q 550 518 537 544 q 615 550 576 548 q 644 551 627 551 q 665 546 661 551 q 672 530 669 542 q 676 516 676 518 q 677 512 677 515 q 674 504 677 509 q 666 496 670 500 q 661 491 661 492 q 354 1 511 276 q 643 206 516 144 q 659 210 651 210 q 673 197 670 210 q 676 157 676 183 q 673 125 676 131 q 642 101 670 119 q 568 53 613 82 q 472 -10 522 24 q 271 -189 349 -95 q 125 -387 169 -311 q 70 -416 109 -416 q -6 -343 -6 -416 q 66 -192 -6 -269 q 166 -98 120 -134 q 215 -56 211 -61 q 352 156 265 18 q 209 34 278 80 q 107 -10 141 -10 q 3 78 3 -10 q 39 220 3 148 q 131 348 75 292 q 253 450 187 405 m 511 467 q 363 412 432 451 q 249 328 294 373 q 172 237 204 284 q 111 101 111 149 q 117 90 111 90 q 142 102 122 90 q 199 144 162 114 q 280 214 236 173 q 511 467 384 309 "},"ĸ":{"x_min":-28.484375,"x_max":612.4375,"ha":511,"o":"m 52 -16 l 9 -6 q -23 18 -10 -4 q -27 25 -26 24 q -28 29 -28 27 q -27 34 -28 31 q -23 45 -25 38 q -18 58 -20 51 q 117 347 -4 107 q 252 602 239 588 q 291 614 267 625 q 315 615 300 610 q 339 622 330 621 q 353 622 347 623 q 363 620 358 620 q 374 614 368 620 q 380 598 380 608 l 380 594 q 306 459 377 580 q 220 307 236 338 q 376 411 273 328 q 480 520 479 493 q 499 560 481 548 q 537 572 516 572 q 572 558 558 572 q 586 513 587 544 q 551 433 585 481 q 468 343 516 384 q 295 226 364 255 q 421 78 350 78 q 516 141 460 83 q 557 183 537 162 q 581 208 577 204 q 594 212 585 212 q 609 193 607 212 q 612 152 612 173 q 608 123 612 131 q 522 30 588 85 q 396 -23 455 -23 q 328 -7 353 -23 q 288 19 303 8 q 259 49 274 30 q 235 80 244 67 q 212 113 225 92 q 194 144 200 135 q 178 174 189 153 q 166 197 168 195 q 139 143 154 172 q 112 88 124 113 q 90 43 100 63 q 73 8 80 22 q 66 -5 67 -4 q 52 -16 61 -16 "},"²":{"x_min":97.671875,"x_max":569.03125,"ha":339,"o":"m 275 442 q 250 421 266 434 q 231 404 234 407 q 360 422 329 422 q 396 410 392 422 q 398 407 396 408 l 397 407 q 407 388 402 404 q 412 363 412 372 l 412 360 q 397 339 412 341 q 259 323 345 328 q 145 315 172 318 q 111 326 134 315 q 97 352 97 340 q 143 421 97 379 q 153 432 148 427 q 225 495 167 447 q 301 560 284 542 q 366 625 318 579 q 424 682 413 671 q 457 714 436 693 q 491 763 491 749 q 474 765 491 765 q 404 732 456 765 q 302 635 353 699 q 303 631 303 636 q 285 614 298 621 q 264 608 271 608 q 226 623 242 608 q 220 643 220 627 q 245 692 220 659 q 309 756 270 724 q 401 813 347 789 q 494 837 455 837 q 551 814 534 837 q 569 769 569 790 q 275 442 569 698 "},"–":{"x_min":114.625,"x_max":726.375,"ha":695,"o":"m 631 410 q 726 359 726 410 q 631 307 726 322 q 302 286 490 287 q 114 360 114 285 q 126 383 114 370 q 177 396 138 396 q 251 393 216 396 q 344 390 286 389 q 493 400 401 391 q 631 410 585 410 "},"ë":{"x_min":10.859375,"x_max":683.65625,"ha":441,"o":"m 508 507 q 472 428 508 462 q 389 394 436 394 q 370 401 375 394 q 365 420 365 408 q 368 442 365 432 q 314 417 343 434 q 240 367 284 400 q 197 318 197 334 q 213 312 197 312 q 262 323 229 312 q 308 335 295 335 q 326 333 322 335 q 345 313 335 328 q 355 287 355 297 q 337 263 355 278 q 297 241 320 248 q 267 229 275 233 q 124 119 124 149 q 215 66 124 66 q 330 103 272 66 q 420 166 380 134 q 470 206 459 198 q 486 213 480 213 q 503 174 503 213 q 499 122 503 134 q 472 91 494 109 q 197 -26 326 -26 q 86 -7 128 -26 q 10 98 10 27 q 140 240 10 191 q 107 269 114 251 q 99 327 99 287 q 136 411 99 366 q 227 484 173 455 q 440 548 346 548 q 485 537 462 548 q 508 507 508 526 m 629 817 q 668 805 653 817 q 683 758 683 792 q 648 687 683 724 q 568 651 613 651 q 530 666 543 651 q 516 698 516 680 q 524 733 516 716 q 544 770 531 751 q 581 804 558 790 q 629 817 604 817 m 459 760 q 427 689 459 727 q 355 651 396 651 q 314 708 314 651 q 339 783 314 744 q 411 822 365 822 q 444 807 430 822 q 459 760 459 793 "},"ƒ":{"x_min":-238.0625,"x_max":828.109375,"ha":553,"o":"m 284 383 q 193 379 228 379 q 135 404 135 379 q 156 437 152 425 q 186 468 160 450 q 228 489 212 486 q 333 498 288 495 q 596 811 447 748 q 708 837 657 837 q 778 832 758 837 q 807 820 798 827 q 822 804 817 814 q 828 779 828 793 q 790 696 828 728 q 703 665 753 665 q 681 672 687 665 q 671 681 676 679 q 666 691 666 683 q 672 708 666 699 q 682 726 679 716 q 551 668 607 726 q 446 502 495 610 q 518 503 472 503 q 571 499 564 503 q 588 480 577 496 q 603 460 598 464 q 608 445 608 456 q 594 427 608 435 q 565 417 581 419 q 401 394 446 399 q 351 259 383 348 q 298 117 319 170 q 260 26 277 64 q 218 -56 242 -11 q 169 -132 193 -101 q 115 -194 146 -164 q 52 -244 85 -225 q -100 -286 -18 -286 q -221 -238 -181 -286 q -238 -203 -238 -217 q -193 -141 -238 -168 q -113 -114 -149 -114 q -91 -121 -96 -114 q -81 -130 -86 -128 q -75 -140 -75 -132 q -89 -161 -75 -147 q -92 -175 -103 -175 q 85 -69 10 -175 q 163 72 133 1 q 208 181 193 143 q 246 282 223 219 q 284 383 270 345 "},"J":{"x_min":0,"x_max":1218.09375,"ha":891,"o":"m 718 222 q 788 252 743 234 q 845 270 833 270 q 854 261 854 270 q 849 241 854 251 q 839 223 845 231 q 826 205 834 216 l 816 191 q 722 115 784 145 q 662 86 701 104 q 607 61 622 69 l 571 6 q 379 -247 456 -162 q 237 -370 302 -332 q 84 -408 171 -408 q 21 -372 42 -408 q 0 -290 0 -335 q 28 -197 0 -245 q 105 -105 56 -149 q 209 -22 155 -61 q 329 52 263 16 q 536 156 436 110 q 1037 861 783 520 q 1043 869 1043 866 q 1022 872 1043 872 q 931 858 1002 872 q 626 745 777 827 q 365 558 474 663 q 257 387 257 453 q 285 332 257 354 q 346 311 314 311 q 414 327 379 311 q 472 361 449 344 q 499 377 495 377 q 502 368 502 377 q 476 283 502 318 q 404 229 450 247 q 315 212 358 212 q 229 229 273 212 q 154 284 185 247 q 123 369 123 322 q 132 417 123 389 q 571 838 199 636 q 856 950 698 908 q 1154 992 1013 992 q 1199 976 1180 992 q 1218 942 1218 960 q 1215 916 1218 923 q 1190 877 1212 908 q 1146 817 1169 846 q 1041 679 1085 737 q 718 222 998 621 m 430 -4 q 96 -280 96 -210 q 120 -295 96 -295 q 181 -271 143 -295 q 253 -216 219 -248 q 324 -139 286 -184 q 430 -4 379 -74 "},"Ã":{"x_min":40.6875,"x_max":1296.28125,"ha":816,"o":"m 947 951 q 977 998 968 998 l 980 998 q 1022 976 990 998 q 1053 935 1053 954 q 879 526 1053 909 q 680 96 706 143 q 645 34 655 50 q 619 0 636 18 q 547 -35 590 -35 q 516 -40 529 -35 q 499 -44 502 -44 q 478 -34 478 -44 q 483 -17 478 -32 q 638 311 489 -3 q 358 320 479 317 q 148 15 242 174 q 126 -15 137 -6 q 99 -25 116 -25 q 61 -7 81 -25 q 40 34 40 10 q 215 324 40 102 q 111 320 133 324 q 83 316 89 316 q 65 347 65 316 q 101 401 65 378 q 198 425 137 425 q 215 425 203 425 q 301 429 257 427 q 611 751 449 602 q 890 959 772 900 q 920 968 909 969 q 947 951 931 968 m 900 855 q 447 429 652 668 q 690 419 567 426 q 900 855 813 678 m 1076 1230 q 1104 1202 1088 1215 q 1143 1190 1119 1190 q 1189 1201 1166 1190 q 1222 1224 1212 1212 q 1264 1258 1248 1258 q 1288 1242 1280 1258 q 1296 1208 1296 1225 q 1291 1180 1296 1191 q 1224 1108 1268 1135 q 1138 1081 1180 1081 q 1072 1094 1097 1081 q 1033 1121 1046 1106 q 975 1162 995 1162 q 939 1154 955 1162 q 911 1133 923 1145 q 887 1108 899 1120 q 835 1079 860 1079 q 825 1087 830 1079 q 820 1106 820 1095 q 854 1186 820 1147 q 926 1248 887 1226 q 992 1269 965 1269 q 1041 1257 1018 1269 q 1076 1230 1064 1244 "},"ŷ":{"x_min":-4.75,"x_max":636.171875,"ha":542,"o":"m 247 -225 q 226 -259 244 -228 q 189 -321 209 -290 q 141 -381 170 -353 q 93 -412 112 -410 q 68 -415 73 -415 q 6 -352 6 -415 q 82 -179 6 -278 q 155 -98 111 -141 q 204 -49 200 -55 q 305 140 208 -44 q 185 24 240 69 q 78 -25 129 -19 l 73 -25 q 21 -7 46 -25 q -4 52 -4 9 q 29 177 -4 117 q 72 248 42 198 q 128 345 102 299 q 178 432 152 383 q 217 503 204 482 q 243 524 231 524 q 275 509 255 524 q 294 473 294 494 q 205 290 294 452 q 116 107 116 129 q 122 101 116 101 q 203 153 140 101 q 341 286 265 205 q 474 451 426 377 q 484 466 480 461 q 494 479 488 471 q 503 493 499 488 q 512 504 507 497 q 521 514 517 510 q 530 520 525 517 q 546 527 537 527 q 574 523 556 527 q 597 514 593 519 q 604 505 600 510 q 611 492 611 498 q 606 475 611 485 q 543 367 600 464 q 309 -50 373 81 q 600 206 413 36 q 615 212 607 212 q 636 148 636 212 q 629 123 636 129 q 247 -225 426 -32 m 636 626 q 616 607 636 607 q 581 612 596 607 q 556 628 567 617 q 538 650 545 639 q 523 679 530 661 q 512 709 516 697 q 502 741 508 720 q 494 771 497 762 q 375 673 451 728 q 267 617 300 617 q 252 632 252 617 q 259 660 252 647 q 281 690 265 674 q 308 716 297 706 q 345 746 320 726 q 478 868 435 819 q 514 883 485 883 q 562 863 543 883 q 585 822 580 844 q 595 773 591 800 q 601 742 599 746 q 609 722 602 738 q 618 697 615 706 q 626 674 621 689 q 636 626 636 644 "},"ŕ":{"x_min":-46.125,"x_max":695.171875,"ha":485,"o":"m 263 369 q 536 551 423 551 q 582 534 564 551 q 600 491 600 518 q 562 403 600 465 q 493 298 524 341 q 454 276 476 276 q 421 292 433 276 q 409 328 409 307 q 459 434 409 375 l 458 436 q 347 347 436 434 q 197 193 259 261 q 62 27 134 125 q 26 -1 41 -1 q -11 7 12 -1 q -41 21 -35 16 q -46 34 -46 25 q -40 56 -46 44 q -20 92 -35 69 q 23 166 -6 115 q 115 322 52 218 q 189 448 177 427 q 231 514 215 493 q 335 552 262 552 q 351 532 351 552 q 292 412 351 500 l 263 369 m 638 740 q 536 676 619 722 q 433 629 453 629 q 413 647 413 629 q 416 659 413 653 q 460 731 431 699 q 525 792 490 763 q 587 839 560 820 q 623 867 613 857 q 638 889 634 876 q 656 901 642 901 q 682 877 670 901 q 695 833 695 854 q 638 740 695 777 "},"©":{"x_min":193.96875,"x_max":1119.0625,"ha":1042,"o":"m 1119 762 q 940 225 1119 463 q 701 14 845 98 q 452 -59 572 -59 q 368 -37 409 -59 q 297 20 327 -14 q 242 97 266 55 q 193 256 193 181 q 218 416 193 330 q 283 574 243 501 q 374 712 323 646 q 475 824 424 777 q 653 925 585 923 l 659 925 q 685 934 666 925 q 727 955 704 944 q 893 986 790 986 q 1034 931 959 986 q 1094 860 1070 905 q 1119 762 1119 815 m 497 75 q 673 130 582 75 q 834 268 765 185 q 948 454 903 352 q 992 654 992 556 q 946 822 992 752 q 852 891 900 891 q 749 870 804 891 q 673 833 694 848 q 382 563 461 682 q 318 427 329 482 q 301 269 301 352 q 326 186 301 231 q 398 108 351 142 q 497 75 444 75 m 764 402 q 779 419 775 415 q 793 422 784 422 q 805 413 803 422 q 807 379 807 403 q 788 320 807 354 q 741 262 769 286 q 679 219 712 238 q 560 184 612 184 q 438 231 480 184 q 396 355 396 278 q 480 566 396 455 q 682 733 571 686 q 792 760 744 760 q 869 739 840 760 q 898 682 898 718 q 862 594 898 645 q 788 543 826 543 q 745 584 745 543 q 765 623 745 595 q 786 660 786 651 q 778 670 786 670 q 686 637 736 670 q 596 555 636 603 q 530 453 557 507 q 503 360 503 399 q 564 286 503 286 q 764 402 656 286 "},"˘":{"x_min":333.6875,"x_max":749.4375,"ha":555,"o":"m 333 815 q 342 838 333 826 q 365 849 350 849 q 392 837 380 849 q 418 794 404 824 q 438 753 432 765 q 462 734 444 742 q 503 726 479 726 q 555 739 528 726 q 602 771 583 752 q 640 808 622 790 q 713 853 682 853 q 735 837 721 853 q 749 811 749 821 q 736 780 749 802 q 700 731 723 758 q 648 677 676 703 q 507 616 579 616 q 384 675 434 616 q 333 815 333 735 "},"≥":{"x_min":6.78125,"x_max":458.484375,"ha":475,"o":"m 304 666 q 323 696 309 678 q 345 714 337 714 q 356 711 354 714 q 359 696 358 707 q 363 672 359 685 q 399 584 367 660 q 458 415 458 442 q 426 368 458 388 q 312 310 350 333 q 193 229 274 287 q 176 210 187 225 q 158 196 164 196 q 134 287 134 196 q 163 335 134 311 q 229 373 192 358 q 369 437 343 417 q 316 517 352 476 q 278 564 280 558 q 275 575 276 571 q 274 583 274 579 q 275 591 274 586 q 276 599 276 596 q 279 609 277 602 q 282 617 281 615 q 286 627 283 620 q 290 636 289 634 q 295 646 291 638 q 304 666 299 654 m 165 66 l 38 63 q 6 95 6 63 q 21 148 6 127 q 60 170 35 170 q 169 166 127 170 q 392 158 277 158 q 409 142 403 158 q 416 107 416 127 q 399 72 416 87 q 349 57 381 57 l 165 66 "},"Ă":{"x_min":40.6875,"x_max":1258.4375,"ha":816,"o":"m 947 951 q 977 998 968 998 l 980 998 q 1022 976 990 998 q 1053 935 1053 954 q 879 526 1053 909 q 680 96 706 143 q 645 34 655 50 q 619 0 636 18 q 547 -35 590 -35 q 516 -40 529 -35 q 499 -44 502 -44 q 478 -34 478 -44 q 483 -17 478 -32 q 638 311 489 -3 q 358 320 479 317 q 148 15 242 174 q 126 -15 137 -6 q 99 -25 116 -25 q 61 -7 81 -25 q 40 34 40 10 q 215 324 40 102 q 111 320 133 324 q 83 316 89 316 q 65 347 65 316 q 101 401 65 378 q 198 425 137 425 q 215 425 203 425 q 301 429 257 427 q 611 751 449 602 q 890 959 772 900 q 920 968 909 969 q 947 951 931 968 m 900 855 q 447 429 652 668 q 690 419 567 426 q 900 855 813 678 m 842 1279 q 851 1302 842 1290 q 874 1313 859 1313 q 901 1301 889 1313 q 927 1258 913 1288 q 947 1217 941 1229 q 971 1198 953 1206 q 1012 1190 988 1190 q 1064 1203 1037 1190 q 1111 1235 1092 1216 q 1149 1272 1131 1254 q 1222 1317 1191 1317 q 1244 1301 1230 1317 q 1258 1275 1258 1285 q 1245 1244 1258 1266 q 1209 1195 1232 1222 q 1157 1141 1185 1167 q 1016 1080 1088 1080 q 893 1139 943 1080 q 842 1279 842 1199 "},"D":{"x_min":203.46875,"x_max":1221.484375,"ha":1090,"o":"m 326 664 l 311 666 l 309 666 q 274 680 292 666 q 256 728 256 693 q 294 807 256 763 q 396 888 331 851 q 556 948 460 925 q 758 972 652 972 q 1099 886 976 972 q 1221 663 1221 800 q 1183 493 1221 578 q 1081 335 1145 407 q 931 200 1018 263 q 751 93 845 137 q 362 0 548 0 q 246 14 270 0 q 229 29 238 19 q 216 42 221 39 q 203 77 203 50 q 208 126 203 104 q 391 441 229 198 q 663 832 554 683 q 739 847 670 842 q 779 843 768 847 q 790 828 790 838 q 754 768 790 817 q 528 424 719 719 q 337 122 337 130 q 397 113 337 113 q 544 139 457 113 q 710 206 632 164 q 857 302 787 247 q 978 413 928 356 q 1088 635 1088 538 q 1000 800 1088 732 q 757 868 911 868 q 561 833 653 868 q 434 771 469 798 q 400 735 400 744 q 408 729 400 729 l 437 735 q 443 732 443 735 q 432 722 443 729 q 413 708 420 716 q 377 683 406 700 q 326 664 349 666 "},"ł":{"x_min":-20.1875,"x_max":686.359375,"ha":358,"o":"m 359 260 q 334 252 342 255 q 295 240 326 250 q 182 204 265 230 q 172 137 172 164 q 192 91 172 109 q 244 73 213 73 q 309 95 274 73 q 370 143 344 117 q 454 213 438 213 q 470 164 470 213 l 470 150 q 461 111 470 124 q 333 7 404 42 q 198 -26 261 -26 q 101 12 134 -26 q 67 119 67 51 q 69 167 67 143 q 33 154 40 156 q 25 151 27 152 q -5 165 9 143 q 12 256 -42 239 q 90 279 66 272 q 177 521 119 396 q 298 734 235 645 q 604 1018 498 1018 q 661 998 636 1018 q 686 943 686 979 q 653 839 686 906 q 576 708 620 773 q 469 564 532 643 q 276 336 381 453 q 339 358 296 343 q 445 398 415 383 q 458 404 449 404 q 476 399 466 407 q 490 381 485 391 q 496 361 495 371 q 492 342 497 351 q 480 324 487 333 q 462 308 474 316 q 439 294 450 300 q 413 281 429 288 q 386 270 398 274 q 359 260 375 265 m 573 905 q 567 915 573 915 q 442 779 543 915 q 296 563 341 644 q 210 360 250 482 q 432 656 290 455 q 573 905 573 857 "},"ÿ":{"x_min":-4.75,"x_max":668.046875,"ha":542,"o":"m 247 -225 q 226 -259 244 -228 q 189 -321 209 -290 q 141 -381 170 -353 q 93 -412 112 -410 q 68 -415 73 -415 q 6 -352 6 -415 q 82 -179 6 -278 q 155 -98 111 -141 q 204 -49 200 -55 q 305 140 208 -44 q 185 24 240 69 q 78 -25 129 -19 l 73 -25 q 21 -7 46 -25 q -4 52 -4 9 q 29 177 -4 117 q 72 248 42 198 q 128 345 102 299 q 178 432 152 383 q 217 503 204 482 q 243 524 231 524 q 275 509 255 524 q 294 473 294 494 q 205 290 294 452 q 116 107 116 129 q 122 101 116 101 q 203 153 140 101 q 341 286 265 205 q 474 451 426 377 q 484 466 480 461 q 494 479 488 471 q 503 493 499 488 q 512 504 507 497 q 521 514 517 510 q 530 520 525 517 q 546 527 537 527 q 574 523 556 527 q 597 514 593 519 q 604 505 600 510 q 611 492 611 498 q 606 475 611 485 q 543 367 600 464 q 309 -50 373 81 q 600 206 413 36 q 615 212 607 212 q 636 148 636 212 q 629 123 636 129 q 247 -225 426 -32 m 613 794 q 652 782 637 794 q 668 735 668 769 q 633 664 668 701 q 552 628 598 628 q 514 642 527 628 q 501 675 501 657 q 508 710 501 693 q 529 747 516 728 q 565 780 542 767 q 613 794 589 794 m 444 737 q 412 666 444 704 q 339 628 380 628 q 298 685 298 628 q 324 759 298 720 q 395 798 349 798 q 429 784 414 798 q 444 737 444 770 "},"ĺ":{"x_min":67.828125,"x_max":865.40625,"ha":358,"o":"m 604 1018 q 661 998 636 1018 q 686 941 686 979 q 644 822 686 903 q 543 656 602 741 q 409 477 484 572 q 183 206 291 326 q 177 176 182 198 q 172 132 172 154 q 192 91 172 109 q 244 73 213 73 q 309 95 274 73 q 370 143 344 117 q 454 213 438 213 q 470 164 470 213 l 470 150 q 461 111 470 124 q 333 7 404 42 q 198 -26 261 -26 q 101 12 134 -26 q 67 119 67 51 q 138 430 67 251 q 298 734 209 609 q 604 1018 498 1018 m 573 905 q 567 915 573 915 q 442 779 543 915 q 296 563 341 644 q 210 360 250 482 q 432 656 290 455 q 573 905 573 857 m 808 1178 q 706 1113 790 1160 q 603 1066 623 1066 q 583 1084 583 1066 q 586 1097 583 1090 q 631 1168 601 1136 q 695 1229 660 1201 q 757 1276 731 1258 q 794 1304 784 1295 q 808 1326 804 1314 q 826 1338 813 1338 q 852 1315 840 1338 q 865 1270 865 1292 q 808 1178 865 1215 "},"Ł":{"x_min":-101.734375,"x_max":1204.53125,"ha":1001,"o":"m 297 308 l 283 305 q 257 330 266 303 q 297 434 226 427 q 498 455 320 437 q 604 614 565 557 q 704 742 643 670 q 830 873 764 815 q 1094 992 963 992 q 1178 963 1152 992 q 1204 893 1204 933 q 1167 799 1204 853 q 1082 704 1130 746 q 986 634 1033 663 q 912 605 939 605 q 865 628 885 605 q 845 673 845 651 q 851 702 845 694 q 863 711 857 711 q 870 704 869 711 q 940 746 892 710 q 1027 820 988 781 q 1066 869 1066 859 q 1054 878 1066 878 q 1022 870 1043 878 q 968 837 1002 862 q 895 771 934 811 q 683 502 800 676 q 673 487 680 497 q 663 472 666 478 q 809 501 767 488 q 864 516 852 515 q 886 506 876 518 q 900 477 895 495 q 898 441 906 460 q 867 410 890 423 q 820 388 843 398 q 761 373 798 379 q 641 356 693 362 q 581 349 589 350 q 462 179 499 227 q 959 87 810 87 q 1056 105 1028 87 q 1070 111 1066 111 q 1073 105 1073 111 q 1067 89 1073 100 q 1037 43 1061 78 q 1001 1 1013 8 q 888 -18 968 -18 q 736 -6 809 -18 q 620 15 664 4 q 490 52 576 27 q 376 84 403 77 q 75 -27 250 -27 q -75 16 -30 -27 q -101 103 -101 41 q 42 225 -101 198 q 151 234 88 234 q 326 210 215 234 q 415 326 366 255 q 297 308 367 320 m 128 126 q 40 105 40 126 q 55 90 40 96 q 91 84 70 84 q 218 119 157 84 q 128 126 166 126 "}}}
